{"glyphs":{"0":{"ha":319,"x_min":14,"x_max":315,"o":"m 141 1149 l 146 1149 q 250 1116 189 1149 q 279 1040 279 1073 q 288 1016 286 1040 l 288 986 l 293 967 l 296 967 l 298 981 l 298 1021 q 304 1027 299 1027 l 307 1027 q 315 1019 311 1027 l 315 967 q 293 937 315 937 q 285 913 285 918 l 285 102 q 260 37 276 37 q 225 -4 260 30 q 160 -20 197 -20 q 49 31 83 -20 q 22 88 39 35 q 14 140 14 88 l 14 330 q 16 332 14 332 q 14 335 16 335 q 16 387 14 343 q 14 441 16 411 q 16 471 14 461 q 14 669 14 594 l 14 975 q 30 1048 14 1048 q 41 1086 30 1057 q 60 1105 41 1093 q 92 1127 60 1117 q 141 1149 110 1149 m 117 1010 l 117 932 l 111 932 l 109 943 l 100 943 l 98 929 l 98 916 l 103 916 l 117 918 l 117 891 l 114 891 q 100 902 106 902 q 92 899 95 899 q 79 967 79 907 l 79 989 l 73 989 l 73 964 q 71 924 73 947 q 73 913 71 922 q 71 888 73 903 q 73 810 71 867 q 71 585 71 668 l 73 574 q 62 547 70 547 q 52 576 54 556 q 57 628 57 598 l 57 652 q 41 709 52 709 l 35 709 q 33 663 33 677 l 33 650 q 35 612 33 629 q 33 576 33 599 l 33 560 q 30 549 33 554 q 33 547 30 547 l 30 509 q 35 427 30 504 q 30 403 30 410 q 43 294 32 294 l 46 294 q 65 370 53 370 q 73 316 73 361 l 71 289 q 73 232 73 275 l 76 232 l 79 245 q 76 259 79 254 q 87 381 76 275 q 81 395 84 395 l 87 471 l 84 490 q 87 506 87 504 q 81 631 81 562 l 81 669 q 79 699 81 680 q 81 720 81 701 q 76 745 76 738 l 76 747 q 79 796 76 770 l 76 812 q 84 864 84 854 l 84 878 q 90 883 85 883 q 95 878 95 882 l 95 848 q 100 831 95 840 l 114 840 l 119 840 l 122 812 l 122 75 q 138 47 122 58 l 165 47 q 190 104 190 61 q 187 145 190 111 q 190 148 187 148 l 187 161 l 187 829 q 193 859 193 855 l 193 997 q 176 1062 178 1025 q 160 1081 170 1062 q 149 1084 155 1084 q 117 1010 117 1084 m 225 1067 l 225 1059 q 231 1054 226 1054 l 233 1059 l 233 1067 l 225 1067 m 81 1059 l 84 1043 l 87 1043 q 92 1048 92 1043 l 92 1051 q 84 1059 92 1055 l 81 1059 m 233 1038 l 236 1032 l 236 975 q 244 967 236 971 l 252 1010 q 241 1046 251 1046 q 233 1038 239 1046 m 103 959 l 103 954 l 106 954 l 106 959 l 103 959 m 35 951 l 35 940 q 46 932 35 936 l 52 940 q 43 956 52 954 l 41 956 q 35 951 35 956 m 214 951 q 206 926 206 931 q 214 918 206 922 q 220 924 220 918 l 220 951 l 214 951 m 233 875 q 244 845 236 845 l 247 850 l 247 875 q 250 905 247 886 q 247 913 247 910 l 244 913 q 233 875 237 913 m 258 902 l 258 897 q 266 842 266 846 l 269 842 l 271 856 l 271 905 q 266 910 271 910 q 258 902 262 910 m 214 891 l 212 872 l 212 848 q 217 842 212 842 l 220 842 q 222 850 220 850 l 220 864 l 220 867 l 222 883 q 220 891 220 888 l 214 891 m 35 859 l 38 845 q 35 834 38 844 q 46 812 41 812 l 49 812 l 49 815 q 43 845 43 842 l 43 864 l 35 859 m 266 840 l 266 834 l 269 834 l 269 840 l 266 840 m 236 810 l 236 769 q 228 753 236 755 q 217 793 220 753 l 214 793 q 201 780 211 793 q 212 755 209 755 l 203 707 q 214 693 209 694 l 228 715 q 236 690 236 715 q 225 669 229 669 q 206 680 221 680 l 203 680 l 201 666 l 201 661 q 206 639 201 658 l 203 625 q 209 609 209 614 q 198 538 209 598 l 201 533 l 198 528 q 214 479 198 516 q 209 457 209 462 q 214 425 209 450 q 220 430 220 425 l 220 457 q 222 498 220 474 q 220 519 220 509 q 231 552 222 552 q 241 528 236 545 q 233 492 233 504 q 239 452 236 454 q 236 422 236 433 l 236 403 q 244 381 236 383 l 244 384 q 250 446 244 413 l 244 536 q 247 571 247 553 q 244 598 247 574 q 250 617 250 612 q 244 650 244 644 q 255 690 248 690 q 266 647 266 668 q 258 628 262 628 q 260 568 260 587 l 260 541 q 258 511 260 530 q 263 498 263 503 q 255 449 263 477 q 266 406 266 424 q 271 411 271 406 l 271 484 q 269 495 271 495 l 271 514 l 271 753 q 269 793 271 766 l 266 793 q 260 745 266 792 l 260 720 q 252 704 260 706 l 250 704 q 244 758 246 751 l 247 772 q 244 818 244 804 q 236 810 240 818 m 33 736 q 38 720 38 726 l 49 720 l 52 734 l 52 747 l 49 761 l 46 761 q 33 736 39 761 m 100 655 l 100 650 l 103 650 l 103 655 l 100 655 m 222 633 l 228 633 q 239 601 235 633 q 228 579 235 579 q 220 601 220 581 l 220 614 l 222 633 m 98 612 l 98 568 l 95 552 q 98 538 98 547 l 98 536 q 92 509 98 530 l 98 506 l 103 506 q 109 595 109 534 q 100 612 106 612 l 98 612 m 65 517 q 71 511 71 516 l 71 460 q 68 425 71 442 q 71 397 71 415 q 68 381 68 383 l 60 381 q 54 408 54 404 q 60 430 60 418 q 43 449 57 430 q 57 487 57 481 l 54 500 q 65 517 60 517 m 92 471 l 98 457 q 95 433 95 442 l 95 427 q 103 411 97 411 q 109 446 109 438 l 103 457 q 106 481 106 472 l 103 492 l 100 492 q 92 471 95 492 m 100 406 q 95 384 95 395 l 95 381 q 100 376 96 376 l 106 376 l 109 389 q 100 406 109 404 m 212 395 l 214 381 q 220 387 220 381 l 220 400 l 217 400 q 212 395 212 399 m 266 395 l 263 381 l 263 370 l 266 370 q 271 376 271 370 l 271 381 l 269 395 l 266 395 m 98 335 l 95 330 q 103 305 97 305 l 106 311 l 106 327 q 98 335 106 331 m 241 324 l 241 302 l 244 302 l 244 324 l 241 324 m 214 321 l 214 316 q 220 321 220 316 l 214 321 m 266 305 l 266 297 l 269 297 l 269 305 l 266 305 m 203 254 q 209 248 204 248 l 214 248 q 220 254 220 248 l 220 264 l 217 278 q 203 254 209 278 m 35 264 q 46 243 40 243 l 49 248 q 43 273 49 252 l 41 273 q 35 264 35 273 m 241 267 l 241 259 l 244 259 l 244 267 l 241 267 m 236 229 l 241 227 q 247 232 247 227 q 244 254 244 247 q 236 229 238 254 m 38 218 l 35 213 l 35 202 q 43 189 43 193 l 46 189 q 52 197 52 189 q 38 218 52 211 m 73 208 l 73 153 l 76 153 q 79 170 76 155 l 76 208 l 73 208 m 212 194 q 214 170 214 179 q 220 175 220 170 l 220 197 l 217 197 l 212 194 m 239 194 l 239 183 q 244 178 239 178 q 247 186 247 183 q 244 194 244 191 l 239 194 m 43 170 l 41 151 l 41 148 l 46 148 q 52 153 52 148 l 52 164 q 46 170 52 170 l 43 170 z "},"1":{"ha":205,"x_min":14,"x_max":193,"o":"m 98 1147 l 149 1147 q 160 1137 153 1147 l 160 819 q 163 789 160 808 q 160 770 160 786 q 163 760 160 764 q 160 735 160 745 l 160 711 q 163 684 160 698 q 160 659 160 673 l 160 654 q 163 627 160 641 l 160 613 q 163 578 160 595 q 160 475 160 522 l 160 445 q 163 437 160 437 l 160 423 l 160 301 q 163 266 160 283 q 160 236 160 256 l 160 206 q 163 187 160 191 q 160 163 160 172 l 160 100 q 190 57 161 57 l 193 43 l 193 11 q 174 0 189 0 l 38 0 q 19 24 19 0 l 19 38 q 43 65 19 65 q 57 90 57 79 l 57 190 q 60 220 57 201 q 57 241 57 222 q 65 282 57 258 q 57 326 60 289 q 60 336 60 335 q 57 358 57 356 q 60 429 60 404 q 57 437 60 431 q 60 445 60 442 q 57 453 60 453 l 60 480 l 60 515 q 73 553 60 524 l 73 572 q 60 616 60 612 l 60 675 q 65 689 60 689 q 57 713 61 698 l 62 738 q 57 941 57 801 l 57 958 q 60 968 57 964 q 35 1001 45 1001 q 14 1012 14 1001 l 16 1025 q 14 1047 14 1040 q 46 1061 14 1059 l 71 1088 q 92 1145 84 1117 l 98 1147 m 127 977 l 127 930 l 130 917 l 136 917 q 133 963 133 949 l 133 982 q 127 977 127 981 m 130 890 q 127 779 127 793 q 119 773 121 773 l 109 773 q 100 781 104 773 l 100 811 q 103 854 100 827 q 100 863 100 860 l 98 863 q 92 857 92 862 l 92 836 q 81 757 85 771 q 76 746 81 753 l 76 743 q 87 732 76 739 l 81 656 l 87 640 q 81 621 81 629 q 87 600 87 604 q 81 578 87 591 q 84 553 84 563 l 81 540 q 92 453 90 529 q 98 445 95 453 q 90 418 90 426 q 92 396 92 403 l 98 396 q 111 445 111 435 q 100 469 100 461 l 100 480 q 114 494 100 484 l 117 494 q 125 486 121 494 q 127 388 125 481 l 130 377 l 133 377 q 138 396 133 396 q 136 407 138 402 q 141 553 139 530 q 138 572 138 564 q 141 594 141 587 q 138 597 141 597 l 141 616 l 141 643 q 136 686 136 682 l 136 689 q 141 732 136 693 q 133 890 133 865 l 130 890 m 109 738 l 119 738 q 125 732 125 737 l 125 724 q 117 716 125 720 q 100 727 100 722 l 100 730 q 109 738 100 734 m 119 700 q 127 692 123 700 l 127 678 q 122 656 122 659 l 122 629 q 106 621 119 621 q 100 627 100 621 l 100 648 q 111 681 100 657 q 119 700 113 700 m 119 581 q 127 564 127 578 l 127 548 q 109 529 127 544 q 100 537 104 529 l 100 562 q 119 581 100 566 m 130 361 q 127 323 130 336 q 130 255 130 307 l 133 255 q 136 315 133 303 q 133 361 133 332 l 130 361 m 95 355 l 92 350 l 92 345 q 98 339 93 339 l 100 339 l 100 350 q 95 355 100 355 m 95 279 l 90 244 q 92 236 92 239 l 98 236 l 103 260 q 95 279 100 279 m 130 214 l 127 201 l 127 195 l 130 176 l 133 176 l 136 195 l 136 201 l 133 214 l 130 214 m 130 109 l 130 100 l 133 100 l 133 109 l 130 109 z "},"2":{"ha":296,"x_min":14,"x_max":274,"o":"m 125 1147 l 163 1147 q 212 1120 176 1147 q 228 1096 222 1120 q 252 1031 252 1069 q 260 974 259 1031 l 260 890 q 250 795 260 822 l 250 751 q 241 735 250 737 l 239 735 q 222 792 232 735 q 233 871 233 816 l 233 876 q 214 925 233 892 q 209 873 209 903 l 209 865 q 225 833 225 865 q 217 817 222 817 l 212 817 q 193 898 203 832 l 193 955 l 187 955 l 187 928 q 182 887 187 887 l 184 882 l 184 865 q 182 825 184 852 q 198 806 198 825 l 198 787 q 193 781 198 781 l 190 781 q 179 808 181 781 l 174 808 l 174 800 q 171 760 174 787 q 187 724 179 760 q 203 697 193 724 l 214 694 l 217 700 l 217 727 q 222 732 218 732 l 225 732 q 233 724 229 732 l 233 705 q 222 678 233 690 q 225 656 222 676 q 217 643 222 643 q 201 673 213 643 l 187 684 l 184 684 l 184 667 l 198 651 l 198 635 q 209 627 203 635 q 195 600 209 610 q 198 591 195 597 q 168 515 198 568 l 168 513 q 171 496 171 498 l 165 494 l 157 494 l 149 499 l 146 499 l 146 496 l 155 469 l 155 458 q 144 423 146 452 q 130 388 130 423 q 103 279 123 330 q 95 220 95 243 l 95 79 q 103 71 95 75 l 168 71 q 193 81 189 71 l 193 222 q 190 312 193 266 q 193 372 193 324 q 190 418 193 380 l 198 431 l 225 429 l 255 429 q 263 420 259 429 l 263 366 q 274 336 263 363 l 274 307 q 260 290 262 290 l 263 279 q 260 258 260 260 q 274 225 267 234 l 274 203 l 263 174 l 263 33 q 266 3 263 21 q 241 -14 266 -14 l 33 -14 q 14 -3 18 -14 l 14 165 q 30 250 14 216 l 30 301 q 41 372 38 332 q 60 415 50 373 q 68 450 65 415 q 76 477 73 450 l 95 477 l 95 464 q 103 456 95 460 l 106 461 q 92 486 106 469 q 81 507 92 492 l 81 513 q 90 521 81 517 q 125 475 115 484 l 127 475 l 127 486 q 90 543 90 533 l 90 548 q 98 556 90 552 l 109 556 q 117 540 111 540 l 117 545 l 109 559 l 109 572 q 119 648 114 587 q 133 659 133 656 l 133 686 q 144 705 133 701 l 141 724 l 141 741 q 155 779 141 749 q 165 1012 165 964 q 144 1074 159 1064 q 125 1088 136 1088 q 95 1061 114 1088 l 95 741 q 87 732 95 736 l 35 732 q 24 765 24 732 l 24 776 q 27 871 24 817 q 24 879 27 873 q 27 909 27 897 q 30 1039 27 944 q 41 1088 38 1051 q 71 1120 45 1088 q 125 1147 105 1147 m 46 1015 q 43 977 46 1000 q 46 822 46 888 q 52 827 52 822 l 52 846 q 49 887 52 863 q 76 939 49 930 l 76 947 q 65 955 76 954 l 65 960 q 71 968 71 967 l 71 971 q 49 1015 49 991 l 46 1015 m 220 1015 l 212 1004 l 212 966 l 214 947 q 222 966 220 947 l 220 985 q 225 1012 225 1005 l 220 1015 m 201 770 l 206 762 l 206 751 q 201 746 206 746 q 193 760 195 746 q 201 770 197 770 m 163 757 l 160 751 l 160 708 q 176 694 167 708 q 182 700 182 694 l 182 713 q 165 757 165 727 l 163 757 m 146 705 l 146 689 q 171 643 155 656 l 190 608 l 193 608 l 193 627 q 152 703 152 694 q 149 705 152 705 l 146 705 m 144 640 q 160 610 144 633 l 160 608 l 163 608 q 168 613 168 608 q 155 646 155 635 l 149 646 q 144 640 144 645 m 133 605 l 133 600 q 149 572 146 589 l 155 572 l 155 581 q 141 608 155 585 l 141 610 l 138 610 q 133 605 133 610 m 174 600 l 174 581 q 179 575 174 575 l 184 575 l 184 578 q 176 600 183 600 l 174 600 m 122 586 l 119 567 l 144 540 q 152 526 147 526 q 168 564 161 526 l 163 567 l 160 567 q 152 548 160 548 l 149 548 q 141 570 144 548 q 122 586 136 570 m 119 534 q 127 524 123 524 l 127 529 q 122 534 127 534 l 119 534 m 136 513 l 136 510 q 141 505 136 505 l 141 513 l 136 513 m 81 439 l 81 437 q 100 412 81 424 l 100 418 q 90 445 90 433 l 87 445 q 81 439 81 444 m 71 410 l 71 396 q 76 391 71 391 q 79 399 76 393 q 76 410 76 404 l 71 410 m 214 366 l 214 355 l 217 355 l 217 366 l 214 366 m 239 301 l 231 285 q 236 266 236 274 q 225 241 229 241 q 220 247 220 241 l 220 285 l 217 285 q 209 269 212 285 q 214 241 214 245 q 209 225 212 225 q 212 217 212 220 l 214 217 q 222 231 220 217 l 241 228 l 244 241 l 244 296 q 239 301 244 301 m 239 168 l 236 155 l 236 149 q 241 144 237 144 l 244 149 l 244 168 l 239 168 m 214 157 l 214 152 l 217 152 l 217 157 l 214 157 z "},"3":{"ha":277,"x_min":14,"x_max":263,"o":"m 103 1149 l 160 1149 q 203 1127 172 1149 q 225 1100 225 1118 q 250 1024 250 1080 q 258 962 255 1024 q 255 943 255 951 q 263 918 263 925 l 263 842 q 258 821 258 823 q 260 769 258 795 q 258 745 258 754 q 263 723 263 734 l 263 696 q 225 647 263 686 q 198 612 225 640 l 198 601 q 217 585 217 601 q 255 498 246 552 q 258 460 258 481 l 258 435 q 255 387 258 406 q 258 340 258 370 q 255 319 258 334 l 258 308 q 255 275 255 289 q 258 259 255 263 q 255 229 255 241 l 255 142 q 244 53 244 76 q 217 7 234 44 q 190 -12 213 7 q 155 -20 188 -12 l 141 -20 q 46 26 68 -20 q 24 129 24 56 q 19 161 20 129 l 19 186 l 22 191 l 27 189 l 30 189 q 35 194 35 189 q 24 213 28 194 q 27 224 27 222 q 22 245 27 229 q 24 283 24 269 l 24 294 q 22 324 24 306 q 24 327 22 327 l 22 340 l 22 359 q 24 384 22 369 q 14 416 14 402 l 14 422 q 22 430 14 426 l 68 430 q 90 414 83 430 l 90 321 q 87 294 90 309 q 90 270 90 284 l 90 227 q 87 202 90 217 q 92 186 90 186 q 84 102 90 127 q 103 47 91 47 l 122 39 q 157 75 157 52 q 163 373 157 94 q 141 547 163 504 q 98 571 121 571 l 81 571 q 71 587 76 571 q 73 617 73 606 l 73 628 q 90 636 76 636 l 117 636 q 157 696 153 669 l 157 742 q 152 764 157 745 l 152 842 q 157 872 157 869 l 157 1054 q 122 1089 149 1089 q 81 1048 104 1089 q 92 1005 92 1021 l 92 831 q 90 802 92 820 q 92 785 92 798 q 71 750 92 750 l 30 750 q 22 758 26 750 l 22 815 q 30 859 22 830 q 22 886 26 867 q 38 945 26 945 l 35 959 l 38 972 l 30 986 q 33 994 30 989 l 27 1059 q 41 1103 33 1074 q 103 1149 77 1147 m 195 1035 l 195 1019 l 182 948 l 182 921 q 184 913 182 913 l 182 899 l 182 853 q 190 837 184 837 l 193 850 l 193 869 q 209 924 193 913 l 209 951 q 203 972 209 954 l 203 975 q 206 989 203 984 q 201 1016 203 1009 q 209 1040 205 1031 l 203 1043 q 195 1035 199 1043 m 57 1021 l 57 1019 q 46 978 57 998 l 49 954 q 46 937 49 951 q 57 880 57 925 l 57 867 q 54 842 57 857 q 57 834 57 837 q 62 840 62 834 l 62 875 q 73 945 62 937 l 73 951 q 68 962 68 958 q 71 972 71 971 q 62 994 62 986 l 62 1021 l 57 1021 m 222 1019 l 222 972 q 236 997 225 972 q 225 1019 231 1019 l 222 1019 m 220 924 l 220 878 l 217 872 l 222 869 q 236 891 236 876 l 236 897 q 222 924 236 911 l 220 924 m 220 791 q 236 769 220 781 l 239 774 l 233 793 q 239 807 239 802 l 233 810 q 220 791 220 806 m 222 473 l 222 463 q 225 449 222 454 q 220 408 222 415 l 222 403 q 220 387 222 401 q 222 351 222 353 q 220 321 222 340 q 222 254 222 281 q 220 202 222 228 q 222 137 222 181 l 222 113 l 228 113 q 241 180 228 115 l 241 216 q 233 289 241 254 q 241 311 241 302 q 236 346 241 321 l 241 365 l 233 397 q 239 414 239 406 l 239 422 q 228 452 228 436 l 231 471 l 225 473 l 222 473 m 187 419 l 187 403 q 193 397 188 397 l 195 397 l 195 406 l 193 419 l 187 419 m 184 359 l 184 335 q 190 319 184 328 q 182 256 182 271 l 190 243 l 190 235 q 179 205 179 208 q 195 142 187 186 l 195 96 q 212 64 195 77 l 214 64 l 214 75 q 203 91 203 88 q 206 137 206 128 l 203 151 q 209 213 209 180 q 203 237 203 231 l 203 245 q 206 254 203 254 l 203 267 l 203 313 l 206 330 q 193 376 200 376 q 184 359 184 373 m 57 319 q 54 308 57 313 l 60 275 l 62 275 q 65 294 62 291 q 62 305 62 299 l 62 319 l 57 319 m 57 264 q 46 191 57 222 l 52 178 l 46 164 q 57 123 57 138 q 65 137 62 123 q 62 148 65 143 q 65 175 62 151 q 60 264 65 203 l 57 264 m 27 170 l 27 164 l 30 164 l 30 170 l 27 170 z "},"4":{"ha":298,"x_min":14,"x_max":296,"o":"m 174 1153 l 182 1153 q 225 1147 221 1147 l 241 1147 l 255 1150 l 263 1139 l 263 955 q 260 947 263 947 l 263 933 l 263 602 q 260 553 263 573 q 263 507 263 536 l 263 336 q 293 320 263 329 l 296 315 l 296 258 q 263 241 296 252 l 263 90 q 293 60 263 74 l 296 54 l 296 8 q 274 0 294 0 l 144 0 q 125 11 130 0 l 125 46 q 152 71 125 64 q 155 81 155 75 l 155 241 q 138 250 152 250 l 22 250 q 14 293 14 250 q 27 393 14 322 l 27 426 q 35 442 29 442 q 49 437 44 437 l 49 439 q 41 464 49 448 q 52 524 43 500 l 52 556 q 76 618 73 618 q 90 572 79 618 q 100 543 100 562 l 98 543 q 109 513 109 526 l 109 486 q 84 350 97 467 l 84 334 q 109 323 87 323 l 138 323 q 155 331 153 323 l 155 811 q 149 817 155 817 q 133 749 146 749 q 122 751 123 751 q 100 746 112 746 q 98 749 100 749 l 100 768 q 95 792 95 785 q 103 819 103 817 l 103 827 q 100 838 103 833 q 117 884 100 875 q 125 944 120 924 q 119 963 119 955 q 133 1031 127 980 q 152 1137 144 1031 q 174 1153 159 1153 m 225 903 l 222 890 l 222 887 l 225 868 l 231 868 l 233 882 l 233 884 l 231 903 l 225 903 m 119 781 l 122 757 l 127 757 l 127 787 l 125 787 q 119 781 119 786 m 187 749 l 184 735 l 184 730 q 193 722 184 726 q 198 727 198 722 q 190 749 198 747 l 187 749 m 127 741 q 136 719 132 734 q 127 708 132 708 l 122 708 q 119 719 119 718 q 127 741 121 741 m 81 732 l 87 732 q 109 705 109 718 q 92 689 106 689 l 92 637 q 84 629 92 633 q 76 656 76 639 q 90 694 76 683 q 79 719 90 703 l 81 732 m 214 703 l 220 700 l 225 700 q 233 716 231 700 q 231 724 231 722 l 228 724 q 214 703 214 717 m 184 678 l 184 608 q 179 494 184 572 q 203 464 182 464 l 206 469 l 206 513 q 214 521 206 517 q 222 505 219 521 q 209 464 222 464 l 209 448 q 203 442 209 442 l 190 445 q 179 404 184 437 q 182 355 179 381 l 179 342 q 193 317 188 317 l 201 317 q 195 342 195 335 q 212 366 205 366 q 228 304 222 366 l 231 304 q 236 323 231 312 q 233 361 233 346 l 233 372 l 241 399 q 236 415 236 408 l 239 448 q 233 469 233 458 l 233 486 q 236 526 233 503 l 233 540 q 244 575 233 547 q 231 637 236 601 l 233 654 l 233 673 l 231 686 l 228 686 q 222 681 222 686 l 222 651 q 217 621 222 632 q 222 578 222 599 q 212 562 222 567 q 201 575 201 567 q 209 627 209 604 q 206 673 206 664 l 209 686 q 206 697 206 691 l 195 697 q 184 678 184 693 m 111 684 q 127 648 127 675 l 122 646 l 114 646 q 103 665 103 650 l 103 667 q 111 684 105 684 m 100 621 l 106 621 q 117 564 117 621 q 109 548 117 550 q 103 553 103 548 l 103 578 l 92 608 l 92 613 q 100 621 92 617 m 73 553 q 71 532 71 534 q 84 510 84 513 l 87 510 l 87 521 q 76 553 77 532 l 73 553 m 60 480 l 60 469 l 65 472 q 62 480 62 477 l 60 480 m 71 442 l 71 437 q 76 431 71 431 l 76 448 q 71 442 71 447 m 212 420 l 214 420 q 222 410 222 420 q 214 393 220 393 l 209 393 l 206 407 l 206 415 q 212 420 207 420 m 201 193 l 201 184 l 203 184 l 203 193 l 201 193 z "},"5":{"ha":277,"x_min":20,"x_max":259,"o":"m 28 1135 l 229 1135 q 240 1124 233 1135 l 240 1065 q 216 1054 237 1054 l 96 1054 q 77 1016 77 1044 l 80 1010 l 80 929 q 72 899 80 899 q 58 945 61 899 l 58 972 q 53 978 58 978 l 53 970 q 50 918 53 948 l 53 913 q 47 883 47 886 l 50 867 q 47 864 50 864 q 53 777 53 821 q 66 850 60 777 l 72 853 q 80 818 77 846 q 77 807 80 812 q 80 769 80 784 l 80 742 q 85 736 81 736 q 126 764 100 740 l 191 764 q 237 720 210 764 q 256 661 256 668 l 256 357 q 259 327 256 345 q 256 305 256 324 l 256 300 q 259 273 256 273 q 256 235 256 250 l 256 129 q 221 15 231 15 q 197 -9 215 15 q 148 -20 152 -20 q 39 28 65 -20 q 23 61 39 39 q 20 77 20 65 q 23 132 20 95 q 20 159 20 146 q 37 167 37 162 q 23 180 23 178 q 39 191 26 180 q 23 245 30 203 l 23 278 q 26 292 23 287 l 23 308 l 23 370 q 20 411 23 384 l 31 419 l 69 419 q 80 408 73 419 l 80 308 q 77 294 80 299 l 80 278 l 80 161 q 77 83 80 131 q 121 42 90 42 q 148 56 148 50 q 151 132 148 71 q 148 153 151 138 q 151 161 148 161 q 148 248 148 220 l 148 666 q 118 682 138 682 q 91 652 109 682 q 77 579 77 594 l 77 563 q 80 533 77 551 q 69 519 75 521 l 28 519 q 20 536 20 522 l 20 601 q 26 650 20 623 l 23 677 q 31 707 28 689 q 23 761 26 718 l 28 810 q 26 831 26 821 l 31 850 q 23 872 23 864 q 37 886 23 874 l 37 888 q 26 910 26 900 l 26 916 l 31 935 q 23 956 23 948 l 23 970 q 20 1019 23 993 q 23 1027 20 1021 q 20 1078 20 1057 l 20 1119 q 28 1135 22 1135 m 69 891 l 72 891 q 80 875 77 891 q 69 859 75 859 q 64 875 64 867 l 64 886 q 69 891 64 891 m 53 709 l 53 669 l 58 669 l 61 682 l 58 715 q 53 709 53 714 m 180 696 l 180 690 l 186 690 q 189 701 189 700 l 186 701 q 180 696 180 701 m 205 682 l 205 677 q 210 682 210 677 l 205 682 m 197 671 l 194 658 l 194 650 l 199 650 q 202 671 199 652 l 197 671 m 221 658 q 210 617 221 637 q 213 579 213 594 q 205 571 213 575 l 202 571 q 189 593 189 578 q 199 617 189 596 q 191 636 199 624 q 180 628 180 632 l 180 465 q 178 406 180 437 q 180 357 180 395 l 180 327 l 183 313 l 186 313 q 197 324 189 313 q 191 349 191 337 q 199 365 199 351 l 199 376 q 191 397 199 384 q 194 422 194 412 q 191 430 194 425 q 197 460 193 435 q 194 481 194 471 q 199 503 199 499 l 208 503 q 218 479 214 503 q 213 457 218 474 q 216 419 216 434 l 216 416 q 213 378 216 401 q 218 359 218 368 q 216 327 218 346 q 224 227 218 251 l 227 227 q 232 270 227 239 q 229 305 229 288 q 235 330 235 323 q 229 362 229 354 q 235 387 235 380 q 229 430 229 426 l 229 463 q 235 487 229 469 q 232 511 232 502 l 237 522 q 227 601 232 542 l 229 628 q 227 658 227 646 l 221 658 m 202 549 l 205 549 l 205 536 l 208 522 l 202 519 q 197 525 197 519 l 197 544 q 202 549 197 549 m 53 321 l 53 224 q 47 194 53 205 q 50 175 50 183 l 47 164 q 53 121 53 155 q 64 156 62 121 l 64 197 q 58 248 58 243 l 58 259 q 61 300 58 276 q 58 321 58 311 l 53 321 m 183 286 l 183 270 l 189 270 q 194 275 194 270 l 194 278 q 186 286 194 282 l 183 286 m 221 218 l 221 199 l 227 199 l 227 224 q 221 218 221 223 m 42 80 l 42 75 q 47 80 47 75 l 42 80 z "},"6":{"ha":323,"x_min":14,"x_max":301,"o":"m 130 1142 l 163 1142 q 250 1096 227 1129 q 274 968 274 999 q 271 732 274 929 q 247 724 261 724 l 203 724 q 193 735 199 724 l 193 1053 q 157 1077 180 1077 q 122 1036 122 1054 l 122 640 l 119 608 q 127 605 125 605 q 152 629 132 605 q 190 643 159 629 l 212 643 q 277 591 255 643 q 301 475 301 511 l 301 412 q 298 350 301 387 q 301 331 301 339 q 298 304 301 318 q 301 217 301 260 l 301 190 q 277 43 301 96 q 239 -3 277 26 q 201 -22 224 -22 q 171 -27 201 -27 q 90 -8 90 -22 q 35 73 35 34 q 14 163 14 147 l 14 244 q 19 323 14 286 q 16 393 16 353 l 16 399 q 22 420 16 401 l 22 453 q 30 572 30 515 l 30 659 q 27 670 30 665 q 30 678 30 675 q 27 814 30 705 q 30 844 27 820 q 27 890 27 861 l 27 911 l 30 928 l 27 933 q 52 1080 33 1064 q 92 1126 66 1114 q 130 1142 120 1142 m 239 1047 l 236 1034 l 239 1015 l 241 1015 q 244 1044 241 1029 l 239 1047 m 95 952 l 95 936 l 98 917 l 100 917 l 103 930 l 103 944 l 100 958 q 95 952 95 957 m 236 949 q 214 917 236 944 q 222 868 219 909 q 236 854 232 854 q 244 857 241 857 l 244 922 l 241 949 l 236 949 m 68 947 l 68 936 q 73 930 68 930 l 76 936 l 76 947 l 68 947 m 68 903 q 71 860 71 876 q 79 892 77 860 q 71 903 75 903 l 68 903 m 98 901 q 95 865 98 883 q 98 833 98 851 q 103 838 103 833 l 103 882 l 100 901 l 98 901 m 98 819 l 98 800 l 100 800 l 100 819 l 98 819 m 46 760 l 46 727 l 49 727 q 54 757 54 746 l 49 760 l 46 760 m 98 757 l 95 741 q 98 716 95 731 q 95 662 95 686 q 98 651 95 656 l 95 635 l 95 597 l 92 570 l 90 570 q 76 602 82 570 q 81 637 81 629 q 76 681 81 661 q 79 705 79 696 l 79 724 l 76 743 l 71 743 l 71 732 q 65 684 71 697 q 71 537 71 621 l 68 505 l 71 488 q 68 442 71 471 q 71 323 71 386 l 71 317 q 76 312 71 312 q 81 328 81 321 l 79 353 q 84 372 84 363 l 92 372 l 98 342 l 100 342 l 106 345 q 103 385 103 378 q 106 423 103 389 q 98 434 102 434 l 95 434 l 92 420 l 87 420 q 81 429 81 420 q 87 475 81 450 l 92 475 q 100 450 93 450 q 109 467 106 467 l 103 526 l 109 543 l 106 556 q 111 572 111 565 l 111 581 q 100 643 111 619 q 103 673 103 661 q 100 713 103 690 q 103 738 103 728 l 100 757 l 98 757 m 46 722 q 43 681 43 694 q 46 670 43 675 q 43 651 43 659 q 46 637 43 637 l 43 605 l 43 494 q 46 480 43 485 l 43 464 l 43 377 q 46 307 43 352 l 43 301 q 46 269 46 293 l 49 269 l 52 282 q 57 445 57 431 q 52 483 52 474 q 60 507 52 490 q 54 537 60 511 l 57 570 l 54 594 q 57 610 54 596 l 54 635 q 62 678 57 678 q 46 722 50 722 m 122 518 l 122 496 q 119 467 122 477 q 122 431 122 449 l 122 372 q 119 353 122 356 q 122 328 122 338 l 122 76 q 155 41 133 41 l 174 41 q 193 71 193 54 l 193 529 q 165 562 193 543 l 155 562 q 122 518 122 538 m 90 553 l 92 553 q 95 537 92 551 l 92 524 q 95 502 95 513 l 87 496 q 79 526 79 507 q 90 553 82 553 m 266 483 l 266 477 l 269 477 l 269 483 l 266 483 m 266 464 q 260 391 262 397 l 263 377 q 260 309 260 319 l 263 296 l 260 279 q 263 258 260 273 l 258 203 q 263 184 258 198 q 260 168 263 182 q 263 146 263 149 l 260 136 q 263 109 263 121 l 263 100 q 269 95 264 95 l 271 109 l 271 133 q 279 209 271 174 q 271 277 277 250 l 271 296 q 277 336 271 311 q 271 353 271 347 l 274 385 q 271 420 271 408 l 274 426 q 269 464 272 433 l 266 464 m 239 434 l 236 429 l 236 423 l 239 410 l 241 410 l 244 423 l 244 429 q 239 434 244 434 m 239 399 q 222 353 231 357 l 222 350 l 233 320 q 220 312 233 314 l 220 296 l 217 269 q 225 260 221 269 l 225 250 q 217 217 225 241 q 233 160 223 160 q 228 136 228 142 l 228 133 q 239 100 239 106 l 236 81 q 247 65 241 65 q 252 71 252 65 q 244 98 244 85 l 244 393 q 239 399 244 399 m 73 271 l 71 258 l 71 255 q 76 250 71 250 l 76 271 l 73 271 m 46 260 l 43 247 q 46 225 43 236 q 43 184 43 201 l 43 171 l 46 157 q 52 163 52 157 l 52 247 l 49 260 l 46 260 m 71 138 l 71 130 l 76 130 l 76 144 q 71 138 71 143 m 71 98 l 71 92 l 73 92 l 73 98 l 71 98 z "},"7":{"ha":272,"x_min":14,"x_max":260,"o":"m 24 1141 l 250 1141 q 260 1130 254 1141 l 260 1067 q 244 1000 260 1046 q 233 924 244 963 l 233 875 l 217 766 l 217 736 q 209 631 217 717 l 209 538 q 198 332 209 373 q 201 300 201 304 q 195 270 195 277 l 198 259 q 195 256 198 256 q 198 245 195 250 q 195 148 195 174 q 198 7 195 111 q 174 -7 198 -7 l 157 -7 q 136 -4 146 -7 q 114 -7 125 -7 l 92 -7 q 73 7 77 -7 q 76 145 76 96 l 76 159 l 90 270 l 90 302 q 100 441 90 407 l 100 530 q 117 571 100 555 l 117 595 q 119 598 117 598 l 117 604 l 117 636 q 130 677 117 661 q 125 734 125 711 q 141 772 125 737 l 141 793 q 155 899 152 842 q 176 1005 163 899 q 184 1043 176 1030 q 157 1059 184 1057 l 109 1059 q 81 1046 101 1059 l 81 742 q 71 731 81 738 l 24 731 q 14 750 14 736 l 14 1130 q 24 1141 14 1134 m 54 1086 l 54 1021 q 52 991 54 1010 q 54 978 54 987 q 52 948 52 954 q 54 932 52 946 l 52 918 q 54 856 54 882 l 54 834 q 60 829 55 829 l 60 834 q 65 956 65 946 l 62 981 q 65 1005 65 991 q 60 1043 60 1034 l 60 1086 l 54 1086 m 30 1008 l 30 940 q 35 935 31 935 q 43 948 41 948 q 35 972 35 966 q 41 997 35 977 q 33 1008 37 1008 l 30 1008 m 33 918 l 30 913 l 30 891 l 35 891 l 38 910 l 38 913 q 33 918 38 918 m 54 815 l 54 793 l 60 793 l 60 815 l 54 815 m 160 802 l 160 796 q 165 791 161 791 l 171 791 l 171 802 l 160 802 m 149 731 q 146 712 149 723 q 174 671 159 671 l 176 677 q 152 731 159 730 l 149 731 m 133 655 q 130 644 133 649 q 149 566 130 631 l 149 563 q 141 557 142 557 l 136 557 l 117 560 l 117 557 q 127 492 117 538 l 127 473 q 130 414 127 454 q 122 408 123 408 l 109 411 q 106 406 109 406 q 109 389 106 404 q 106 349 109 382 q 109 321 106 345 q 106 305 109 319 l 119 229 l 114 221 l 114 208 q 125 194 121 194 q 157 202 130 199 q 176 245 176 228 q 174 256 176 252 q 179 338 179 300 q 176 406 179 348 q 184 454 179 438 q 168 495 184 459 q 165 536 165 519 l 168 560 q 152 620 152 598 q 144 655 152 655 l 133 655 m 176 636 l 176 631 q 182 601 182 604 l 182 566 l 184 547 l 187 547 q 190 555 187 549 q 187 566 190 561 q 190 587 187 568 q 187 639 187 624 l 182 642 q 176 636 176 641 m 141 547 l 146 547 q 157 525 153 547 l 157 444 q 155 441 157 441 q 168 422 155 438 q 163 362 165 373 q 165 327 165 345 l 165 316 l 163 302 l 155 302 l 152 330 l 152 335 q 155 362 152 348 q 141 411 155 399 l 141 416 q 152 435 152 429 q 138 500 142 439 l 138 533 l 141 547 m 184 525 l 182 511 l 182 509 l 184 490 l 187 490 l 190 517 l 190 519 q 184 525 190 525 m 133 368 q 138 362 138 367 l 138 354 l 136 338 q 144 254 140 338 q 136 243 140 243 l 133 243 q 125 305 125 243 l 125 308 q 130 338 125 327 l 127 354 l 127 362 q 133 368 128 368 m 160 275 l 165 275 l 171 256 q 160 243 165 244 l 155 251 l 155 270 q 160 275 155 275 m 109 178 l 106 172 l 106 118 q 111 113 106 113 q 127 164 111 146 q 109 178 123 178 m 155 148 q 163 132 157 132 l 163 142 q 157 148 163 148 l 155 148 m 133 137 l 130 123 l 130 110 l 133 91 l 138 91 q 144 107 138 96 l 136 137 l 133 137 m 157 99 l 157 91 l 163 91 l 163 94 q 157 99 163 99 z "},"8":{"ha":317,"x_min":14,"x_max":290,"o":"m 122 1149 l 176 1149 q 258 1100 241 1131 q 282 1040 282 1051 l 282 1019 l 290 932 q 285 880 290 924 l 288 848 l 285 829 l 288 823 q 282 785 282 803 l 282 658 q 236 606 277 643 l 233 601 q 285 506 285 564 q 290 468 290 486 q 285 286 290 359 q 288 245 288 270 q 282 208 282 216 l 282 202 q 285 191 282 191 l 282 172 l 282 77 q 231 1 261 22 q 152 -20 231 -14 q 71 7 71 -13 q 43 39 43 16 q 19 102 19 76 l 19 104 q 16 183 19 160 q 22 346 19 226 q 19 530 19 446 q 68 598 21 555 l 68 604 q 19 671 35 638 l 19 688 q 14 758 14 755 q 19 834 19 814 l 19 1029 q 57 1119 19 1062 q 122 1149 104 1149 m 114 1024 l 114 902 q 111 769 114 836 q 127 655 113 655 q 149 636 127 638 l 155 636 q 179 661 172 636 q 190 699 190 661 l 190 1027 q 152 1084 190 1072 q 114 1024 114 1065 m 231 1048 q 228 1038 231 1042 l 231 1027 q 214 964 226 964 q 206 937 210 964 l 228 907 l 222 897 q 228 872 228 879 l 228 869 q 225 842 228 857 q 231 783 231 814 l 236 783 l 239 796 l 239 815 q 236 826 239 826 q 239 848 239 841 q 241 978 239 890 q 239 986 239 983 q 241 997 241 991 q 236 1024 236 1021 q 241 1038 236 1038 q 239 1048 239 1042 l 231 1048 m 258 1019 l 255 1000 q 258 997 255 997 l 255 983 l 255 897 q 258 867 255 885 q 255 853 255 862 l 258 837 l 255 812 l 258 774 l 260 774 l 263 785 l 260 791 q 266 815 263 795 q 263 837 263 835 q 269 859 269 857 q 263 880 263 869 l 263 883 q 271 929 263 899 q 260 1019 260 1013 l 258 1019 m 92 986 l 87 910 q 90 886 90 900 q 87 872 90 877 q 90 850 90 857 q 87 774 90 829 q 90 753 90 760 q 87 742 87 748 q 90 734 90 736 q 98 772 98 734 q 95 845 98 791 l 98 872 q 95 899 95 886 q 98 905 95 905 l 95 924 l 95 986 l 92 986 m 57 940 l 57 937 q 65 929 57 933 l 68 929 l 68 935 q 62 940 68 940 l 57 940 m 49 888 q 57 859 57 865 q 52 842 52 848 q 60 812 57 834 q 35 791 60 805 l 35 783 q 52 769 35 780 q 43 764 52 764 l 43 753 q 57 742 57 753 q 52 718 52 724 l 62 709 l 71 709 l 71 712 q 73 742 71 724 l 71 766 l 73 780 q 71 807 71 794 q 73 829 71 826 q 71 859 71 847 l 71 913 q 65 918 71 918 q 49 888 56 918 m 209 897 l 209 894 l 214 894 l 214 897 l 209 897 m 52 685 l 52 671 l 54 671 q 60 677 60 671 l 60 685 l 52 685 m 114 511 q 111 370 114 444 q 114 297 114 332 q 111 281 114 295 q 114 248 114 267 l 114 243 q 111 235 114 235 l 114 221 l 114 102 q 138 47 114 71 l 168 47 q 190 99 190 73 l 190 517 q 157 568 190 543 q 114 511 114 551 m 54 528 l 52 522 q 57 514 52 521 q 52 500 57 500 q 68 484 52 494 q 71 506 68 487 q 54 528 56 528 m 65 481 q 52 452 54 452 l 60 438 l 60 430 q 41 408 41 415 q 46 392 46 399 q 38 384 42 392 l 38 373 q 62 346 62 350 q 57 332 62 332 l 60 327 l 60 292 q 54 267 60 285 q 62 254 60 254 q 60 245 62 251 q 62 191 62 209 l 68 189 l 71 189 l 71 254 q 73 332 71 288 q 71 368 71 346 q 73 389 71 370 q 71 400 71 399 q 73 449 73 426 l 73 460 q 65 481 73 480 m 255 465 q 258 449 255 453 q 255 397 255 419 l 255 378 q 258 343 255 361 q 255 313 255 334 q 258 302 255 302 l 255 283 l 255 161 q 258 151 255 155 l 255 145 l 258 118 l 260 118 q 263 140 260 130 l 260 151 q 269 224 269 182 l 269 232 q 271 243 269 238 q 263 289 263 264 q 269 330 269 321 q 263 346 269 334 q 269 365 269 359 q 260 471 266 422 q 255 465 255 470 m 90 430 l 90 425 q 87 376 87 380 q 90 368 90 370 l 87 362 q 90 332 90 344 l 90 327 l 95 327 q 98 373 98 359 l 98 400 q 90 430 98 430 m 225 414 l 222 408 l 222 403 l 231 403 l 231 408 q 225 414 231 414 m 222 370 q 225 359 222 364 q 217 338 217 346 l 217 332 q 228 319 228 320 q 212 289 228 295 q 206 270 206 272 q 225 259 206 263 l 225 248 q 209 229 209 231 l 209 210 q 225 167 210 184 l 225 156 q 231 110 225 146 l 236 110 q 241 148 241 139 q 239 159 241 159 l 241 178 l 241 216 q 236 251 241 239 q 239 267 236 253 q 236 302 236 301 l 239 321 q 236 368 236 342 l 236 373 q 231 378 236 378 q 222 370 227 378 m 38 332 q 43 327 39 327 l 43 332 l 38 332 m 90 297 l 90 267 q 95 262 90 262 q 98 283 95 264 l 95 302 q 90 297 90 302 m 90 245 l 90 227 l 92 208 l 95 208 q 98 235 95 220 l 95 251 q 90 245 90 250 m 92 205 l 90 191 l 90 183 l 95 183 l 95 205 l 92 205 m 231 102 l 231 77 l 236 77 q 244 91 242 77 l 233 102 l 231 102 z "},"9":{"ha":314,"x_min":14,"x_max":288,"o":"m 127 1149 l 160 1149 q 252 1105 194 1149 q 277 1062 252 1099 q 288 997 277 1051 q 274 601 282 601 l 266 601 q 241 633 266 614 l 241 642 l 258 642 q 263 682 263 667 l 263 699 q 269 715 263 706 q 266 731 266 729 l 269 745 l 258 745 l 244 734 q 231 766 231 759 q 247 777 247 774 l 247 791 q 206 761 227 791 q 212 736 212 743 l 212 734 q 203 693 212 713 q 212 666 212 674 l 203 642 q 212 585 209 634 l 206 571 q 209 549 209 556 q 198 503 201 540 l 220 460 q 214 435 214 442 l 214 427 q 220 422 215 422 l 222 422 q 239 452 222 427 l 247 452 l 247 449 q 250 430 247 441 q 247 403 247 416 q 255 387 249 387 l 258 387 q 263 430 263 415 l 260 444 q 263 454 263 453 q 260 484 260 478 q 266 509 266 502 l 266 555 q 271 560 267 560 q 274 557 271 557 q 277 422 277 464 l 277 370 q 279 338 277 352 q 277 305 277 323 l 277 267 q 279 199 277 240 l 277 183 q 279 167 279 169 l 277 134 q 279 102 279 106 q 263 58 279 94 q 231 1 254 16 q 176 -20 212 -20 l 130 -20 q 79 4 79 -11 q 52 42 67 4 q 35 140 38 42 q 33 153 33 144 q 35 324 35 248 l 35 397 q 52 406 38 406 l 95 406 q 111 400 102 406 q 109 292 109 332 l 109 113 q 141 34 109 45 l 149 34 q 187 88 181 34 l 187 142 q 190 243 187 208 q 187 338 187 271 l 187 373 q 190 384 187 379 q 187 395 187 389 l 187 476 q 193 500 187 483 q 184 503 187 503 q 146 476 180 503 q 106 473 106 476 q 57 492 68 473 q 16 568 44 492 q 14 658 16 646 q 16 834 16 754 l 16 1043 q 84 1130 45 1116 q 127 1149 85 1136 m 111 1029 l 111 704 q 114 582 111 665 q 141 549 133 549 l 157 549 q 187 585 187 570 l 187 1027 q 149 1081 187 1067 l 144 1081 q 111 1029 115 1056 m 73 1054 q 71 1048 73 1048 q 90 1016 87 1016 l 92 1016 l 92 1027 q 79 1054 79 1042 l 73 1054 m 46 1029 l 46 986 q 43 935 46 964 q 46 921 46 930 q 41 905 41 912 q 46 886 41 897 q 43 880 46 880 q 46 826 46 844 l 46 755 q 43 728 46 743 q 46 704 46 718 l 46 669 q 52 663 47 663 q 62 690 62 688 q 57 707 57 699 q 68 802 68 707 l 68 826 q 65 859 68 844 q 68 891 68 873 l 68 918 l 71 937 q 62 954 62 940 l 62 956 q 68 978 68 975 q 52 1035 57 1004 q 46 1029 46 1034 m 87 1002 q 84 981 84 987 q 87 959 84 974 q 79 937 83 937 q 84 799 84 898 l 87 780 q 84 769 84 775 q 87 715 87 739 l 92 715 l 92 1002 l 87 1002 m 244 1002 l 241 989 l 241 978 l 247 978 l 250 991 l 250 997 q 244 1002 250 1002 m 241 954 l 241 943 q 247 937 242 937 l 247 948 q 241 954 247 954 m 244 907 l 244 883 q 250 888 250 883 l 250 902 q 244 907 250 907 m 231 690 q 244 680 243 685 l 244 677 q 231 655 234 655 q 222 663 227 655 l 222 674 q 231 690 224 690 m 49 636 l 49 625 l 54 625 l 54 636 l 49 636 m 228 609 l 233 609 q 250 576 250 600 q 241 571 243 571 l 233 571 q 225 587 225 574 l 225 590 l 228 609 m 233 533 l 244 533 q 250 528 250 532 l 250 500 q 247 498 250 498 l 250 492 l 250 476 l 247 463 l 239 463 q 225 503 239 470 l 225 525 q 233 533 225 529 m 228 408 l 220 376 l 225 373 q 236 389 236 376 l 236 408 l 228 408 m 252 373 l 252 338 l 258 338 l 260 365 l 258 378 q 252 373 252 378 m 222 308 l 222 300 l 228 300 l 228 308 l 222 308 m 252 294 l 252 235 l 258 235 l 258 251 q 260 281 258 262 q 258 294 258 286 l 252 294 m 65 283 q 57 229 60 262 q 68 172 60 172 l 92 199 l 90 227 l 90 240 q 68 275 68 251 l 68 283 l 65 283 m 225 248 l 225 213 q 231 208 226 208 l 233 213 l 233 216 l 231 232 q 233 240 233 237 q 231 248 231 245 l 225 248 m 252 213 l 252 151 q 258 145 253 145 l 258 213 l 252 213 m 222 183 l 217 164 l 220 151 l 225 151 q 233 172 233 153 q 225 183 229 183 l 222 183 m 252 121 l 252 118 q 258 113 253 113 l 258 126 q 252 121 252 125 m 62 115 l 60 96 l 62 83 q 68 88 68 83 l 68 110 q 62 115 68 115 z "},"\u0000":{"ha":0,"x_min":0,"x_max":0,"o":""}," ":{"ha":345,"x_min":0,"x_max":0,"o":""},"!":{"ha":217,"x_min":41,"x_max":157,"o":"m 54 1147 l 130 1147 q 155 1137 140 1147 q 157 987 157 1038 l 157 594 q 141 399 157 551 q 130 255 141 320 l 130 190 q 122 182 130 186 l 81 182 q 73 190 77 182 l 73 193 q 49 467 60 387 l 49 545 q 41 697 49 623 l 43 722 q 41 730 43 724 q 43 768 43 753 l 43 795 q 41 836 43 808 l 43 836 q 41 838 43 838 l 46 876 q 43 879 46 879 l 46 895 q 49 1126 49 1040 l 49 1142 q 54 1147 50 1147 m 81 1001 q 90 979 90 983 q 79 963 79 977 l 79 958 l 84 949 q 95 960 92 951 q 92 979 92 963 q 98 985 98 979 l 98 998 q 92 1004 98 1004 l 87 1004 l 81 1001 m 119 963 q 114 890 114 912 l 117 884 q 114 873 114 880 l 114 857 q 117 846 114 851 q 111 822 114 841 q 114 800 114 807 q 111 798 114 798 q 117 757 117 763 l 114 732 q 117 692 117 709 l 114 692 l 117 686 l 114 670 l 117 627 q 114 600 117 614 q 119 469 119 526 q 125 475 125 469 l 125 556 q 127 559 125 559 q 125 562 127 562 q 127 608 127 593 l 127 629 q 125 640 127 635 q 127 651 127 645 l 127 678 q 125 700 127 697 q 127 730 127 718 l 127 817 q 125 901 127 850 l 127 906 l 125 922 l 125 963 l 119 963 m 84 933 q 79 925 84 932 l 79 884 q 73 817 79 857 q 76 760 76 776 l 71 732 q 81 678 73 678 q 76 640 76 658 l 76 629 q 95 594 76 594 q 98 597 95 597 l 95 624 q 100 665 100 663 q 95 703 95 694 l 95 711 q 100 741 95 730 q 98 749 100 743 q 100 819 100 794 l 100 852 q 90 873 100 861 l 90 879 q 100 903 100 890 q 84 933 98 933 m 81 562 l 79 548 q 84 543 84 547 q 92 545 90 545 l 92 556 q 87 562 92 562 l 81 562 m 54 103 l 87 100 l 114 100 l 130 103 q 155 87 144 99 l 152 68 l 152 11 q 127 0 149 0 l 65 0 q 49 8 51 0 l 49 95 l 54 103 z "},"\"":{"ha":309,"x_min":16,"x_max":298,"o":"m 26 1142 l 64 1139 l 96 1139 l 116 1142 q 145 1122 133 1137 l 142 1100 l 138 1007 q 109 994 134 994 l 35 994 q 16 1004 18 994 l 19 1133 l 26 1142 m 178 1142 l 217 1139 l 249 1139 l 269 1142 q 298 1122 286 1137 l 294 1100 l 291 1007 q 262 994 287 994 l 188 994 q 168 1004 171 994 l 172 1133 l 178 1142 z "},"#":{"ha":1408,"x_min":58,"x_max":1344,"o":"m 702 1126 q 1152 934 952 1126 q 1274 759 1238 838 q 1344 461 1344 610 l 1344 437 q 1153 -33 1344 178 q 702 -228 954 -228 q 238 -21 440 -228 q 58 451 58 184 q 248 929 58 722 q 702 1126 446 1126 m 684 1095 q 687 1021 687 1042 q 688 1016 688 1017 l 682 1011 l 670 1011 q 663 1089 663 1011 q 661 1094 661 1089 q 639 1092 646 1092 l 634 1092 q 637 1046 636 1082 q 629 1037 635 1046 q 639 1023 639 1032 l 639 1008 q 660 987 639 987 l 663 987 q 713 1001 713 987 q 715 1010 713 1002 q 713 1034 713 1025 q 722 1043 715 1034 q 712 1052 718 1043 l 712 1055 q 711 1095 712 1067 l 684 1095 m 760 1092 q 755 1069 758 1088 q 783 1062 783 1067 q 769 1036 783 1042 q 777 1026 771 1036 q 769 983 770 985 q 795 979 779 983 q 814 1028 800 1028 l 806 1038 q 810 1061 808 1054 q 838 1056 834 1056 l 838 1058 q 841 1079 838 1063 q 760 1092 770 1092 m 516 1052 q 524 1019 516 1042 q 518 1011 522 1019 l 518 1008 q 536 977 530 1008 q 553 966 543 966 q 608 989 608 977 l 608 995 q 603 1019 608 1002 q 576 1011 579 1011 q 579 998 579 1004 q 559 994 572 994 q 555 1015 555 1003 q 559 1023 559 1016 q 545 1047 547 1023 q 563 1053 549 1050 q 567 1041 567 1048 l 594 1048 q 573 1079 589 1079 l 567 1079 q 516 1052 516 1071 m 876 1067 q 869 1047 869 1049 q 895 1036 895 1038 q 875 1011 888 1011 q 880 1000 880 1004 q 866 959 866 965 q 890 950 886 950 q 917 995 903 995 q 912 1007 912 1002 q 922 1026 918 1026 q 945 1017 941 1017 l 954 1038 q 876 1068 885 1067 l 876 1067 m 389 1006 q 410 964 408 972 l 407 953 q 430 929 422 953 q 440 913 431 929 q 500 955 500 940 q 485 987 500 963 q 488 1000 488 993 q 469 1019 474 1000 q 446 1034 461 1034 q 389 1006 440 1034 m 995 1016 q 968 977 972 977 q 959 975 960 975 q 962 965 959 972 q 938 926 938 928 q 1000 887 996 887 q 1010 907 1010 901 q 972 934 976 928 q 983 945 981 945 l 984 945 l 1010 929 q 1023 949 1013 930 q 996 968 996 963 q 1006 981 1002 979 q 1044 956 1008 979 q 1057 975 1047 957 q 995 1016 1054 977 m 443 1006 q 470 959 445 1006 l 470 958 q 452 947 460 947 q 425 998 431 984 q 443 1006 439 1006 m 291 918 q 313 884 291 910 l 311 874 l 322 874 q 353 848 345 848 q 399 886 369 848 l 401 893 q 380 925 401 900 l 380 926 l 382 935 l 372 935 q 337 962 347 962 q 292 925 323 962 l 291 918 m 1095 943 q 1062 910 1095 941 l 1055 911 l 1051 911 l 1051 899 l 1021 868 q 1040 850 1021 866 l 1062 871 l 1063 871 q 1055 833 1055 836 l 1076 814 l 1086 852 q 1098 848 1097 848 l 1101 848 q 1139 884 1114 848 l 1139 889 q 1095 943 1139 903 m 332 932 l 336 932 q 372 892 347 922 l 372 889 q 359 878 372 887 l 357 878 q 321 919 346 887 l 321 922 q 332 932 321 923 m 413 672 l 414 662 l 414 584 q 374 515 374 569 q 394 412 374 458 q 425 354 397 411 q 448 321 448 326 l 448 318 l 446 307 q 452 269 448 290 q 449 245 449 260 q 450 233 450 234 l 449 230 q 461 178 454 178 q 476 144 476 165 q 503 113 481 130 q 528 92 513 92 q 552 55 552 58 q 591 5 572 5 q 603 -23 599 5 q 640 -47 614 -39 q 690 -71 652 -61 q 700 -72 699 -71 q 777 -66 723 -68 q 808 -50 793 -60 q 856 -26 831 -50 q 908 30 902 -26 q 935 106 920 45 q 960 174 960 134 q 969 204 969 188 l 969 215 q 983 264 983 249 q 978 282 981 277 q 979 306 979 297 l 979 312 q 978 319 979 317 q 979 330 979 326 q 962 394 979 357 q 964 410 963 410 l 963 414 l 963 429 q 956 465 963 442 q 968 490 968 474 l 966 500 q 974 541 974 519 l 974 549 q 979 575 979 566 l 966 621 l 968 645 q 944 729 968 664 q 881 817 922 779 q 808 878 850 864 q 648 910 713 910 l 636 910 q 549 892 602 910 q 480 848 519 881 q 424 753 447 806 q 413 672 418 730 m 1098 907 q 1111 890 1111 897 l 1095 876 l 1092 876 q 1080 887 1090 876 l 1080 889 q 1098 907 1080 891 m 621 895 q 795 867 720 895 q 863 819 854 835 q 903 751 881 804 q 944 648 925 727 l 944 647 q 942 618 944 642 q 951 581 948 601 q 956 576 954 581 l 956 574 q 948 562 956 563 l 951 547 q 938 496 951 522 q 944 491 944 495 l 944 487 q 939 482 944 485 l 930 482 q 926 469 930 477 q 941 424 932 469 l 941 418 q 938 385 938 395 q 954 343 947 374 q 956 332 954 342 l 954 321 q 957 303 957 306 q 951 282 957 300 q 959 262 959 269 q 945 219 959 255 q 937 173 945 194 q 922 127 937 149 q 901 71 911 119 q 882 30 901 68 l 882 28 q 884 22 882 27 q 857 -2 876 -2 q 818 -24 844 -2 q 777 -41 798 -24 l 702 -48 l 700 -48 q 655 -31 686 -48 q 629 -17 655 -24 q 623 4 623 -10 q 624 19 623 6 q 585 43 585 28 q 574 65 574 56 q 578 75 574 68 q 543 115 565 75 q 519 130 526 115 q 503 146 519 134 l 491 182 q 475 221 475 189 q 473 233 473 227 l 473 234 q 475 236 473 236 l 473 239 q 475 275 475 272 q 470 312 470 304 l 471 319 l 467 342 q 409 439 452 347 q 398 512 398 482 l 398 518 q 430 564 398 555 l 440 564 l 440 566 q 437 611 440 587 q 439 637 439 625 q 437 672 439 652 q 501 840 437 777 q 579 889 535 875 q 621 895 583 889 m 452 688 q 454 684 452 687 q 450 668 450 676 q 452 635 450 657 q 450 610 450 614 q 454 562 454 572 q 490 532 490 548 l 491 532 q 498 542 491 538 l 501 542 l 511 534 q 537 538 531 538 l 542 532 l 542 529 q 522 409 522 446 q 534 373 530 393 q 552 351 552 364 q 572 327 572 348 l 589 328 l 610 327 q 625 333 621 333 q 630 328 627 333 q 627 315 627 317 q 630 302 630 305 q 629 297 629 298 q 646 275 646 286 l 646 269 q 666 246 660 269 q 661 222 661 228 q 663 210 663 214 l 664 210 q 706 281 678 243 q 736 337 724 309 l 741 337 q 745 332 745 337 q 722 285 743 315 l 724 285 q 760 302 759 293 q 766 303 763 302 q 787 302 779 302 q 805 307 789 302 l 805 309 l 800 309 q 781 306 794 309 q 751 330 751 313 l 751 334 q 755 343 752 343 l 760 343 q 764 327 763 343 q 778 319 772 319 q 802 322 797 322 q 850 306 835 306 q 875 336 875 306 q 857 409 875 378 q 848 475 848 448 l 848 478 q 881 529 848 497 q 926 574 892 529 q 938 579 928 574 q 929 618 935 602 q 930 642 930 633 l 930 645 q 905 726 919 701 l 880 771 q 854 806 869 780 q 778 857 817 844 q 666 882 696 882 l 651 882 l 642 880 q 636 882 640 882 q 537 848 550 869 q 485 795 511 827 q 452 688 452 756 m 208 819 q 237 790 208 812 q 238 780 238 784 l 252 781 q 285 764 270 764 q 322 808 308 779 l 322 814 q 295 842 322 824 l 295 853 l 292 853 l 281 852 q 249 871 260 871 q 208 825 233 871 l 208 819 m 597 854 q 616 837 616 848 l 616 832 q 582 810 614 826 l 576 810 q 561 827 561 816 l 561 829 q 597 854 561 846 m 573 825 l 576 823 l 581 823 l 603 837 q 594 841 602 841 q 573 825 573 836 m 248 841 l 252 841 q 294 806 291 813 q 283 793 288 795 l 280 793 q 237 827 237 823 q 248 841 243 839 m 530 806 l 534 806 q 548 793 548 805 l 548 787 q 528 758 548 781 q 491 702 519 702 q 479 722 479 707 l 479 735 q 521 804 479 772 q 530 806 526 806 m 1095 791 l 1095 790 q 1105 774 1095 781 l 1111 774 q 1120 781 1120 779 l 1120 784 q 1107 801 1116 801 q 1095 791 1095 795 m 491 733 l 491 722 l 492 714 l 495 714 q 518 765 507 714 q 537 789 532 781 l 537 791 q 533 796 537 794 q 497 759 513 788 q 491 733 491 745 m 1180 768 q 1169 769 1175 769 q 1126 739 1169 757 q 1160 672 1154 689 q 1181 684 1177 680 l 1160 726 l 1175 733 q 1190 705 1190 709 q 1211 714 1194 705 q 1198 743 1211 720 l 1198 744 q 1213 751 1198 747 l 1214 751 q 1235 711 1221 733 q 1255 720 1252 720 q 1220 787 1255 727 q 1180 768 1184 768 m 167 768 q 157 744 167 764 q 228 713 222 717 l 228 711 q 218 696 223 696 q 203 711 205 696 q 191 707 195 707 l 149 724 l 140 699 l 140 698 q 184 671 184 684 l 184 669 q 197 673 192 673 q 208 668 208 672 q 201 651 205 651 l 199 651 l 130 678 l 130 677 q 120 652 120 656 q 165 630 165 637 l 165 626 l 167 626 q 178 629 168 626 l 198 621 q 237 662 237 635 q 233 673 237 665 q 253 694 248 680 q 256 703 253 699 q 238 739 248 739 q 222 756 222 744 q 212 751 214 751 l 168 768 l 167 768 m 1240 675 q 1219 659 1240 668 l 1216 648 l 1216 647 q 1223 614 1216 637 q 1210 610 1217 610 q 1202 627 1205 610 q 1213 633 1213 631 q 1205 657 1205 655 q 1177 637 1177 652 l 1177 629 q 1206 579 1184 579 l 1214 581 q 1223 575 1214 578 q 1246 593 1223 583 l 1249 604 l 1249 605 q 1241 637 1249 615 q 1256 644 1250 644 q 1262 626 1262 635 q 1252 621 1261 621 l 1259 595 q 1289 617 1289 600 q 1261 672 1280 672 l 1257 672 q 1252 671 1254 672 q 1240 675 1246 675 m 788 672 q 841 659 801 672 l 844 659 q 873 668 848 659 q 878 663 876 668 l 878 659 q 838 645 878 652 q 800 657 831 645 l 787 659 l 764 654 l 763 654 q 760 657 760 654 l 760 662 q 788 672 760 669 m 660 663 l 664 663 q 712 648 673 663 q 730 642 730 646 l 730 637 q 721 633 728 633 q 670 650 710 633 q 664 651 664 650 q 630 635 650 651 l 625 635 q 621 640 623 635 l 621 644 q 660 663 641 663 m 664 625 l 669 625 q 707 615 707 621 q 702 608 705 608 l 692 608 q 666 612 687 608 q 621 583 642 612 l 619 583 q 614 587 614 585 l 614 589 q 664 625 627 625 m 827 608 l 831 608 q 884 605 836 608 l 884 604 l 899 606 q 905 602 905 604 l 905 597 q 890 590 905 593 q 836 595 848 595 l 835 595 q 812 593 827 595 l 810 596 l 810 600 q 827 608 810 606 m 654 590 l 660 590 q 748 569 686 590 q 784 536 784 547 l 784 530 q 770 522 779 522 l 768 522 q 713 542 760 522 q 684 544 701 542 q 680 539 684 541 l 664 539 q 602 524 654 539 l 599 524 l 594 530 q 630 579 595 541 q 654 590 643 590 m 419 545 l 419 544 q 488 467 469 544 l 490 467 l 490 472 q 488 478 490 475 q 490 509 490 479 q 475 538 482 509 q 440 551 457 551 l 434 551 q 419 545 431 551 m 935 549 q 880 512 930 539 l 872 500 l 873 500 q 895 505 884 505 l 899 505 q 924 498 908 505 q 938 548 938 519 l 935 549 m 412 529 l 412 508 q 443 400 412 446 q 473 355 454 370 q 479 370 479 366 l 479 378 l 471 420 q 480 463 477 455 q 467 496 475 463 q 425 532 444 532 q 412 529 423 532 m 137 530 l 137 502 l 132 496 l 137 490 l 137 463 l 152 463 l 152 491 l 155 491 l 167 465 q 180 490 170 465 l 183 490 l 183 463 l 198 463 l 198 490 l 203 496 l 198 502 l 198 530 l 184 530 q 170 502 182 530 l 165 502 q 153 530 165 505 l 137 530 m 219 530 l 219 503 q 213 496 219 503 q 219 486 219 494 l 219 463 l 233 463 l 233 491 l 234 491 q 248 465 237 491 l 264 491 l 265 491 l 265 463 l 279 463 l 279 490 l 285 497 q 279 502 279 497 l 279 530 l 265 530 q 250 502 262 530 l 249 502 q 234 530 245 502 l 219 530 m 295 530 l 295 529 q 311 497 295 527 q 295 463 295 465 l 311 463 q 319 476 315 463 l 321 476 q 328 463 324 476 l 346 463 l 346 465 q 331 497 331 493 l 346 530 l 328 530 q 321 517 324 517 l 319 517 q 311 530 315 530 l 295 530 m 1000 530 l 1000 503 q 995 496 995 496 q 1000 486 1000 494 l 1000 463 l 1014 463 l 1014 491 l 1015 491 q 1029 465 1019 491 l 1045 491 l 1047 491 l 1047 463 l 1060 463 l 1060 490 l 1066 497 q 1060 502 1060 497 l 1060 530 l 1047 530 q 1032 502 1044 530 l 1030 502 q 1015 530 1027 502 l 1000 530 m 1081 530 l 1081 503 l 1076 496 q 1081 486 1081 494 l 1081 463 l 1095 463 l 1095 491 l 1096 491 q 1109 465 1100 491 l 1126 491 l 1128 491 l 1128 463 l 1141 463 l 1141 490 l 1147 497 q 1141 502 1141 497 l 1141 530 l 1128 530 q 1113 502 1124 530 l 1111 502 q 1096 530 1108 502 l 1081 530 m 1158 530 q 1174 496 1174 498 l 1158 463 l 1174 463 q 1181 476 1177 463 l 1183 476 q 1190 463 1186 476 l 1210 463 q 1194 497 1194 494 l 1210 530 l 1190 530 q 1183 517 1186 517 l 1181 517 q 1174 530 1177 530 l 1158 530 m 1221 530 q 1238 496 1238 498 l 1221 463 l 1238 463 q 1246 476 1242 463 l 1247 476 q 1255 463 1251 476 l 1274 463 q 1257 497 1257 494 l 1274 530 l 1255 530 q 1247 517 1251 517 l 1246 517 q 1238 530 1242 530 l 1221 530 m 692 527 q 737 512 734 522 l 737 508 q 733 503 737 506 q 694 514 709 514 l 692 514 q 652 497 652 507 q 648 493 649 493 l 644 493 q 639 502 639 494 q 692 527 639 517 m 440 511 q 449 503 446 509 l 443 454 q 454 427 446 427 l 460 430 q 465 426 465 428 l 465 421 q 458 414 465 419 l 452 414 q 430 454 435 414 q 434 493 434 481 l 434 498 l 433 507 q 440 511 437 511 m 699 508 q 754 481 730 508 l 754 476 q 697 451 734 451 q 645 482 645 460 l 645 486 q 699 508 667 508 m 763 502 l 768 502 q 784 478 784 489 q 775 463 782 463 q 769 467 769 465 l 769 481 l 758 493 l 758 497 q 763 502 758 499 m 702 494 q 705 486 705 490 l 705 478 q 702 465 705 474 l 703 465 q 736 481 736 468 q 702 494 718 494 m 896 493 q 899 484 899 487 q 893 467 897 475 l 895 467 q 918 487 918 467 q 896 493 907 493 m 660 482 l 660 479 l 661 479 l 661 482 l 660 482 m 861 478 l 861 472 q 865 469 862 469 l 865 471 l 863 478 l 861 478 m 458 472 q 467 469 462 472 q 464 452 464 458 l 465 439 l 460 436 q 449 454 452 436 q 458 472 452 472 m 758 466 l 763 466 q 768 461 765 466 l 768 460 q 741 418 768 448 l 739 418 q 732 426 735 418 l 754 457 q 758 466 755 466 m 880 454 l 869 454 l 861 456 q 886 372 863 426 q 887 340 887 352 l 887 334 q 881 312 887 321 q 909 292 888 312 l 911 292 q 918 343 911 295 l 927 429 q 923 442 926 442 q 897 400 923 418 l 895 400 q 890 405 892 400 l 890 408 q 912 454 912 429 l 912 458 q 880 454 894 454 m 805 437 l 810 437 q 815 426 814 437 l 814 418 l 818 397 l 818 394 q 809 390 817 390 q 800 430 802 390 l 800 433 q 805 437 800 435 m 633 436 l 639 436 q 684 414 659 414 l 691 414 q 724 421 699 414 l 726 418 l 726 412 q 690 400 716 400 q 630 431 630 408 l 630 433 q 633 436 631 436 m 1225 426 q 1223 400 1223 408 q 1242 387 1227 400 q 1220 375 1242 385 l 1217 351 q 1267 373 1263 373 l 1272 373 l 1280 366 q 1286 372 1282 366 l 1297 370 l 1302 370 l 1302 379 l 1304 390 q 1283 399 1289 390 q 1276 393 1276 395 q 1238 416 1265 393 l 1225 426 m 153 415 q 134 403 153 409 l 131 393 q 132 369 132 371 q 123 366 127 366 l 122 366 q 117 380 118 366 q 126 384 121 384 q 123 405 125 405 q 99 390 99 405 q 116 345 99 345 q 127 339 120 345 q 147 349 127 345 l 152 363 q 149 384 152 366 q 161 388 155 388 q 165 373 163 385 q 156 369 156 370 q 157 349 156 368 l 159 349 q 183 364 183 349 q 165 409 183 409 q 155 415 161 409 l 153 415 m 768 403 l 772 403 q 777 399 774 403 q 758 360 766 360 l 755 360 q 751 366 753 360 q 768 403 764 401 m 787 369 q 806 357 806 363 l 806 353 q 803 349 806 349 l 800 349 q 781 360 781 355 l 781 364 q 787 369 781 368 m 1204 288 q 1241 275 1241 280 l 1241 272 l 1249 276 q 1283 272 1273 272 l 1287 290 q 1265 294 1269 294 l 1265 296 q 1292 307 1267 298 l 1297 328 q 1267 321 1272 321 q 1234 342 1267 337 l 1226 342 q 1204 288 1211 342 m 152 326 q 146 330 152 328 q 111 313 146 320 q 110 312 110 313 q 116 294 113 294 q 141 298 134 298 q 156 266 146 266 l 157 266 q 199 285 199 269 l 199 288 l 189 333 q 152 326 159 326 m 1231 319 q 1249 312 1249 319 q 1244 300 1248 300 q 1226 307 1226 302 q 1231 319 1227 319 m 176 307 q 180 292 180 299 q 161 288 175 288 q 156 303 156 297 q 176 307 169 307 m 1181 224 q 1210 203 1181 211 q 1214 194 1213 194 q 1223 199 1221 199 q 1246 191 1229 195 q 1270 233 1261 191 l 1270 236 q 1242 255 1270 247 q 1238 262 1242 262 l 1234 260 l 1231 260 l 1205 267 q 1181 224 1192 267 m 174 254 q 165 256 170 254 q 152 243 165 250 q 131 233 131 239 q 138 216 137 216 q 167 227 162 227 q 174 209 170 227 q 146 199 147 199 l 146 197 q 153 179 150 179 q 186 189 181 189 q 193 188 188 188 q 228 208 193 197 l 228 210 q 207 266 212 250 q 174 254 178 254 m 1208 243 q 1249 230 1215 243 l 1249 229 q 1242 214 1246 214 q 1202 230 1202 228 q 1208 243 1205 243 m 197 239 q 204 221 200 235 q 192 216 195 216 q 184 234 186 224 q 197 239 193 239 m 805 215 l 802 216 q 773 210 793 212 q 753 201 767 201 q 743 204 750 201 q 732 200 735 200 q 734 197 732 197 l 760 197 q 854 222 854 207 q 831 224 839 224 l 830 224 q 805 215 810 215 m 1173 206 l 1144 149 q 1160 143 1154 143 q 1168 159 1168 157 l 1169 159 q 1187 143 1187 157 q 1196 146 1192 146 q 1226 131 1200 146 l 1227 131 q 1235 151 1235 148 q 1204 174 1204 163 q 1195 172 1198 172 q 1180 180 1180 178 q 1187 200 1187 193 q 1173 206 1177 206 m 204 176 q 195 179 201 176 q 163 153 195 167 q 174 136 170 140 q 210 153 205 153 q 188 113 203 138 q 197 94 188 109 l 227 111 q 235 109 228 109 q 262 130 235 119 q 267 136 267 133 q 259 151 259 149 l 223 134 l 223 136 l 244 173 q 234 193 244 180 l 204 176 m 836 178 q 842 153 838 153 l 845 153 q 850 163 850 155 l 850 168 q 844 179 850 176 l 839 179 l 836 178 m 812 172 q 808 155 809 168 q 815 144 810 144 q 820 146 818 146 l 820 164 q 821 165 820 165 q 812 172 820 172 m 779 164 l 781 149 l 781 140 q 785 136 781 138 l 788 136 q 791 138 791 136 l 791 158 l 790 165 l 783 165 l 779 164 m 1138 140 l 1103 91 q 1132 68 1103 90 l 1132 61 l 1141 62 q 1169 43 1151 56 l 1171 43 q 1181 60 1171 45 l 1156 79 q 1168 94 1164 94 q 1192 77 1175 90 l 1195 77 q 1205 94 1195 79 q 1177 115 1177 112 l 1177 122 l 1175 122 l 1165 121 q 1138 140 1162 125 m 833 106 q 836 103 833 103 l 844 103 q 846 127 846 119 q 845 131 845 130 l 839 131 q 833 106 833 131 m 250 98 l 241 100 q 223 80 241 87 q 213 71 223 79 q 225 55 223 55 l 253 75 l 262 73 l 262 80 l 291 103 q 280 119 280 117 q 250 98 279 119 m 794 106 l 794 92 q 798 90 795 90 l 802 90 q 806 109 806 90 l 806 118 l 799 118 q 794 106 794 117 m 1141 112 l 1143 112 q 1152 104 1152 106 q 1139 90 1143 91 q 1131 97 1131 95 l 1131 98 q 1141 112 1139 111 m 289 75 l 283 75 l 280 76 q 273 56 280 64 l 273 50 q 289 25 273 43 l 289 24 q 281 16 289 22 l 280 16 q 271 26 277 16 l 271 28 l 276 34 q 262 49 263 49 q 249 35 250 40 l 249 30 q 279 -6 249 17 l 288 -6 q 298 -2 293 -2 l 300 -2 l 302 -3 q 311 16 302 6 l 311 22 q 295 47 311 29 l 295 49 q 302 56 295 51 l 304 56 q 313 43 313 51 q 309 39 311 43 q 322 24 309 38 q 336 41 336 33 l 336 43 q 306 79 336 56 l 300 79 q 289 75 294 79 m 817 76 l 817 64 l 818 56 l 823 56 q 829 67 829 59 l 829 70 q 824 79 829 77 l 820 79 q 817 76 817 79 m 1056 37 l 1056 34 q 1081 12 1059 34 l 1081 4 l 1088 4 q 1114 -18 1090 4 l 1117 -18 q 1129 -3 1117 -16 q 1111 12 1114 12 l 1111 14 l 1141 9 l 1156 25 q 1126 34 1133 31 q 1129 45 1129 40 q 1098 73 1109 73 l 1095 73 q 1056 37 1086 73 m 787 25 l 790 24 l 794 24 q 803 46 798 26 q 802 50 802 49 l 794 50 q 787 25 790 50 m 1095 50 q 1107 40 1101 48 l 1107 35 q 1098 26 1107 33 q 1083 40 1083 38 q 1095 50 1090 50 m 814 20 l 814 14 q 818 10 814 12 l 821 10 q 827 30 825 10 l 823 33 l 820 33 q 814 20 816 33 m 322 3 l 323 -1 l 323 -8 l 302 -33 q 319 -47 315 -46 q 340 -23 333 -28 q 353 -35 353 -33 l 353 -36 q 334 -60 341 -50 l 334 -62 q 351 -74 336 -62 q 373 -47 351 -71 l 380 -47 l 380 -38 q 401 -9 401 -12 l 387 3 l 385 3 q 366 -21 385 -1 q 352 -9 352 -11 l 352 -8 q 370 14 352 -7 l 370 16 q 357 28 370 17 l 355 28 q 328 3 334 3 l 322 3 m 1004 -14 l 1004 -17 q 1019 -41 1004 -22 l 1019 -47 l 1017 -50 q 1035 -58 1029 -50 q 1045 -69 1035 -63 l 1051 -69 q 1087 -41 1064 -69 q 1088 -36 1088 -38 q 1074 -12 1088 -30 l 1074 -6 l 1076 -3 q 1053 13 1062 -3 q 1040 19 1046 19 q 1004 -14 1004 -1 m 1040 -3 q 1065 -39 1065 -34 q 1056 -47 1057 -47 l 1053 -47 q 1026 -16 1051 -46 l 1026 -12 q 1040 -3 1034 -3 m 939 -48 l 939 -51 l 956 -78 l 954 -89 q 977 -114 966 -89 q 979 -119 979 -114 q 1026 -84 1026 -98 l 1026 -81 q 1008 -51 1026 -74 q 985 -24 998 -24 q 939 -48 979 -24 m 981 -47 q 985 -56 985 -48 q 972 -64 979 -64 l 966 -54 q 981 -47 976 -47 m 464 -51 q 440 -84 452 -84 q 443 -93 443 -89 q 430 -124 443 -96 l 431 -124 q 449 -132 445 -132 l 461 -105 l 463 -105 q 486 -115 467 -105 q 494 -99 486 -113 q 470 -87 484 -96 q 477 -75 475 -75 q 511 -90 506 -90 l 512 -90 q 518 -75 512 -85 q 464 -50 465 -50 l 464 -51 m 866 -83 q 880 -115 880 -111 q 876 -123 880 -118 q 897 -157 887 -123 q 917 -149 917 -152 q 906 -119 906 -125 q 923 -113 922 -113 q 938 -141 936 -141 l 956 -134 l 942 -104 l 945 -93 q 924 -58 935 -93 q 866 -83 921 -58 m 995 -74 l 998 -74 q 1004 -81 1000 -74 l 1004 -83 q 990 -93 1002 -87 l 984 -84 l 984 -81 q 995 -74 984 -79 m 507 -117 q 511 -126 511 -122 q 506 -145 506 -142 l 506 -149 q 545 -170 506 -163 l 551 -170 q 568 -142 563 -170 q 576 -138 576 -139 q 573 -129 573 -133 q 579 -105 579 -107 q 533 -83 579 -90 q 515 -113 523 -83 q 507 -117 507 -115 m 911 -84 l 912 -84 q 916 -96 916 -94 l 899 -104 q 893 -92 895 -99 q 911 -84 905 -84 m 805 -100 l 812 -134 l 808 -141 l 808 -142 q 824 -178 819 -142 l 825 -178 l 878 -165 q 873 -149 873 -151 l 841 -156 q 836 -138 836 -145 q 841 -132 838 -138 q 825 -99 830 -132 q 824 -94 824 -99 q 805 -100 805 -98 m 597 -100 q 585 -139 593 -139 q 583 -141 583 -139 q 589 -149 587 -142 l 585 -181 l 587 -181 q 606 -182 587 -181 l 606 -181 l 610 -144 l 612 -144 q 633 -187 614 -147 q 652 -190 648 -190 q 664 -153 652 -157 q 659 -145 661 -146 l 664 -109 l 644 -106 q 636 -145 640 -145 q 614 -102 618 -102 q 597 -100 603 -100 m 542 -104 q 557 -109 557 -105 q 541 -150 546 -150 q 528 -144 528 -147 q 542 -104 538 -104 m 670 -109 l 670 -127 l 691 -127 q 694 -130 694 -128 l 694 -139 q 687 -151 694 -146 l 687 -153 q 694 -159 691 -153 l 694 -192 l 715 -192 l 715 -157 l 721 -151 l 713 -142 l 713 -129 q 717 -126 714 -126 l 736 -126 l 736 -109 l 670 -109 z "},"$":{"ha":857,"x_min":46,"x_max":828,"o":"m 222 1130 q 261 1097 261 1122 l 261 981 l 255 981 l 255 954 l 261 954 l 261 894 q 264 855 261 875 q 222 795 264 795 q 178 855 178 795 l 180 885 l 180 1088 q 222 1130 180 1130 m 652 1130 q 691 1097 691 1122 l 691 981 l 685 981 l 685 954 l 691 954 l 691 894 q 694 855 691 875 q 652 795 694 795 q 607 855 607 795 l 610 885 l 610 1088 q 652 1130 610 1130 m 67 1127 l 85 1127 q 153 1085 153 1127 l 153 1023 q 133 966 153 983 q 153 912 150 966 l 153 846 q 118 799 153 799 l 67 799 q 61 804 61 799 l 61 810 q 73 825 73 824 l 73 948 l 79 948 l 79 954 l 73 954 l 73 972 q 82 989 80 972 l 97 996 l 97 1013 l 91 1010 l 88 1010 l 88 1013 q 94 1019 89 1019 q 97 1017 94 1017 l 97 1058 l 94 1058 l 94 1040 l 91 1040 q 88 1043 88 1040 l 82 1040 q 73 1043 76 1043 l 73 1091 q 61 1115 73 1102 l 61 1121 q 67 1127 62 1127 m 279 1127 l 312 1127 q 323 1124 319 1127 q 336 1127 329 1127 l 357 1127 q 362 1121 362 1126 l 362 1115 q 353 1109 362 1109 l 353 838 q 332 799 353 812 l 306 799 q 279 873 279 809 l 279 888 q 282 900 279 895 q 279 903 282 903 l 282 939 l 282 1106 l 273 1118 l 273 1121 q 279 1127 274 1127 m 497 1127 l 515 1127 q 583 1085 583 1127 l 583 1023 q 562 966 583 983 q 583 912 580 966 l 583 846 q 547 799 583 799 l 497 799 q 491 804 491 799 l 491 810 q 503 825 491 812 l 503 948 l 509 948 l 509 954 l 503 954 l 503 972 q 512 989 509 972 q 527 996 514 989 l 527 1013 l 521 1010 l 517 1010 l 517 1013 q 524 1019 519 1019 q 527 1017 524 1017 l 527 1058 l 524 1058 l 524 1040 l 521 1040 q 517 1043 517 1040 l 512 1040 q 503 1043 506 1043 l 503 1091 q 491 1115 503 1102 l 491 1121 q 497 1127 492 1127 m 383 1124 l 434 1124 q 470 1070 470 1124 l 470 1004 q 452 963 470 981 q 470 930 463 963 l 470 823 l 479 810 l 479 804 q 473 799 479 799 l 461 799 q 437 825 437 799 l 437 945 q 428 954 437 949 l 419 954 l 419 859 l 416 840 q 419 825 419 836 l 419 817 q 428 810 428 817 l 428 804 q 422 799 428 799 l 383 799 q 377 804 377 799 l 377 810 q 387 817 377 817 l 387 1106 q 377 1112 377 1106 l 377 1118 q 383 1124 378 1124 m 711 1124 l 745 1124 q 771 981 753 1124 l 774 981 l 774 1103 l 768 1112 l 768 1118 q 774 1124 769 1124 l 804 1124 q 810 1118 810 1123 l 810 1112 q 798 1088 798 1099 l 798 823 l 801 802 l 795 799 l 781 799 q 745 975 772 799 l 741 975 l 741 867 q 739 840 741 857 q 747 810 742 817 l 747 804 q 741 799 747 799 l 711 799 q 706 804 706 799 l 706 810 l 715 823 l 715 1106 q 706 1112 706 1106 l 706 1118 q 711 1124 707 1124 m 321 1115 l 315 1106 l 315 831 l 317 817 l 323 817 q 332 834 332 819 l 332 1103 q 321 1115 332 1107 m 210 1091 l 210 924 q 213 852 210 895 q 210 840 210 847 q 222 819 216 819 l 231 825 l 228 840 l 228 849 q 231 852 228 852 q 228 855 231 855 q 231 996 231 949 l 231 1100 q 222 1109 231 1104 l 219 1109 q 210 1091 210 1106 m 640 1091 l 640 924 q 643 852 640 895 q 640 840 640 847 q 652 819 645 819 l 661 825 l 658 840 l 658 849 q 661 852 658 852 q 658 855 661 855 q 661 996 661 949 l 661 1100 q 652 1109 661 1104 l 649 1109 q 640 1091 640 1106 m 103 1106 l 103 978 q 123 1017 123 978 l 123 1082 q 109 1106 123 1099 l 103 1106 m 532 1106 l 532 978 q 553 1017 553 978 l 553 1082 q 538 1106 553 1099 l 532 1106 m 419 1100 l 419 978 q 437 996 437 978 l 437 1091 q 428 1100 437 1095 l 419 1100 m 136 1085 l 136 1031 l 138 1031 l 138 1061 l 144 1061 l 144 1049 l 148 1049 l 148 1070 l 142 1067 l 138 1073 l 138 1076 l 142 1082 l 136 1085 m 566 1085 l 566 1031 l 568 1031 l 568 1061 l 574 1061 l 574 1049 l 577 1049 l 577 1070 l 572 1067 l 568 1073 l 568 1076 l 572 1082 l 566 1085 m 789 1082 l 789 1076 l 792 1076 l 792 1082 l 789 1082 m 302 1076 l 302 1070 l 306 1070 l 306 1076 l 302 1076 m 449 1073 q 446 1053 449 1056 l 446 1043 l 443 1043 l 443 1031 l 446 1031 q 452 1038 446 1038 l 452 1073 l 449 1073 m 458 1073 l 458 1010 l 461 1010 l 461 1043 l 464 1043 q 461 1073 461 1044 l 458 1073 m 85 1070 l 85 1064 l 88 1064 l 88 1070 l 85 1070 m 515 1070 l 515 1064 l 517 1064 l 517 1070 l 515 1070 m 195 1061 l 195 1055 l 198 1055 l 198 1061 l 195 1061 m 625 1061 l 625 1055 l 628 1055 l 628 1061 l 625 1061 m 786 1061 l 786 1058 q 789 989 786 1044 l 792 989 l 792 1061 l 786 1061 m 144 1043 l 144 1034 l 148 1034 l 148 1043 l 144 1043 m 574 1043 l 574 1034 l 577 1034 l 577 1043 l 574 1043 m 747 1043 l 747 1038 l 751 1038 l 751 1043 l 747 1043 m 407 1034 l 407 1023 l 401 1023 l 401 1031 l 395 1031 l 395 989 q 392 957 395 977 q 398 936 398 948 l 401 936 l 401 942 l 407 942 l 407 924 l 410 924 l 410 993 l 407 993 l 407 981 l 401 981 l 401 1010 l 407 1010 l 407 1008 q 404 1004 407 1004 q 407 996 407 999 l 410 996 l 410 1034 l 407 1034 m 449 1034 l 449 1028 l 452 1028 l 452 1034 l 449 1034 m 88 1034 l 94 1034 l 94 1031 q 79 1023 94 1023 l 79 1017 l 85 1008 q 82 1004 82 1008 q 73 1008 76 1008 l 73 1025 q 79 1031 79 1025 l 82 1031 l 88 1028 l 88 1034 m 237 1023 l 237 939 l 243 939 l 243 960 l 249 960 l 249 966 l 243 966 l 243 987 l 249 987 l 249 993 l 243 993 l 243 1008 l 249 1008 l 249 1031 q 237 1023 237 1027 m 517 1034 l 524 1034 l 524 1031 q 509 1023 524 1023 l 509 1017 l 515 1008 q 512 1004 512 1008 q 503 1008 506 1008 l 503 1025 q 509 1031 509 1025 l 512 1031 l 517 1028 l 517 1034 m 667 1023 l 667 939 l 673 939 l 673 960 l 679 960 l 679 966 l 673 966 l 673 987 l 679 987 l 679 993 l 673 993 l 673 1008 l 679 1008 l 679 1031 q 667 1023 667 1027 m 136 1028 l 136 1023 l 138 1023 l 138 1028 l 136 1028 m 144 1028 l 144 1023 l 148 1023 l 148 1028 l 144 1028 m 566 1028 l 566 1023 l 568 1023 l 568 1028 l 566 1028 m 574 1028 l 574 1023 l 577 1023 l 577 1028 l 574 1028 m 186 1023 l 186 1013 l 189 1013 l 189 1023 l 186 1023 m 616 1023 l 616 1013 l 619 1013 l 619 1023 l 616 1023 m 136 1019 l 136 1013 l 138 1013 l 138 1019 l 136 1019 m 342 1019 q 338 998 342 1002 q 342 987 342 994 l 338 981 q 342 960 342 977 l 345 960 l 347 975 l 347 981 q 345 993 347 987 q 347 1004 347 998 l 345 1019 l 342 1019 m 566 1019 l 566 1013 l 568 1013 l 568 1019 l 566 1019 m 724 1019 l 724 1017 q 726 993 724 1004 q 724 968 724 981 l 730 968 l 732 996 q 730 1004 732 999 q 732 1017 732 1010 l 732 1019 l 724 1019 m 302 1017 q 300 966 302 966 l 297 966 l 297 963 q 302 954 297 961 l 302 948 q 288 918 293 918 l 288 903 l 291 903 l 291 912 l 297 912 l 302 897 l 309 897 l 306 903 l 306 915 l 309 921 q 300 924 303 924 l 300 930 l 309 930 q 306 948 309 932 q 309 968 306 957 q 306 1017 306 985 l 302 1017 m 195 1013 l 195 1004 l 193 1004 l 186 1008 l 186 939 l 193 942 l 195 942 l 195 939 q 189 933 195 933 q 186 936 189 936 l 186 906 l 193 909 l 195 909 l 195 894 l 198 894 q 204 915 198 908 l 204 921 l 198 930 l 198 933 l 204 942 l 204 954 q 198 968 198 961 l 193 966 l 189 972 l 189 983 l 195 983 l 195 978 l 198 978 l 198 1013 l 195 1013 m 625 1013 l 625 1004 l 622 1004 l 616 1008 l 616 939 l 622 942 l 625 942 l 625 939 q 619 933 625 933 q 616 936 619 936 l 616 906 l 622 909 l 625 909 l 625 894 l 628 894 q 634 915 628 908 l 634 921 q 628 930 628 928 l 628 933 l 634 942 l 634 954 q 628 968 628 961 l 622 966 l 619 972 l 619 983 l 625 983 l 625 978 l 628 978 l 628 1013 l 625 1013 m 288 998 q 297 989 288 994 l 297 1002 q 288 998 291 998 m 751 1002 l 751 993 l 753 993 l 753 1002 l 751 1002 m 73 1002 l 79 1002 l 79 993 l 73 993 l 73 1002 m 503 1002 l 509 1002 l 509 993 l 503 993 l 503 1002 m 94 993 l 94 987 l 97 987 l 97 993 l 94 993 m 524 993 l 524 987 l 527 987 l 527 993 l 524 993 m 85 983 l 85 968 l 88 968 l 88 983 l 85 983 m 515 983 l 515 968 l 517 968 l 517 983 l 515 983 m 789 983 l 789 978 l 792 978 l 792 983 l 789 983 m 94 981 l 94 960 l 97 960 l 97 981 l 94 981 m 524 981 l 524 960 l 527 960 l 527 981 l 524 981 m 288 978 l 288 945 l 291 945 l 291 978 l 288 978 m 756 972 l 756 960 l 760 960 l 760 972 l 756 972 m 766 968 q 756 945 766 959 l 762 945 l 768 966 l 768 968 l 766 968 m 85 963 l 85 945 l 91 948 l 94 948 l 94 921 l 97 921 l 97 954 l 91 951 q 88 963 88 956 l 85 963 m 401 966 l 407 966 l 407 951 l 401 951 l 401 966 m 515 963 l 515 945 l 521 948 l 524 948 l 524 921 l 527 921 l 527 954 l 521 951 q 517 963 517 956 l 515 963 m 103 954 l 103 819 l 112 819 q 123 855 123 819 l 123 933 q 109 960 118 960 q 103 954 103 959 m 532 954 l 532 819 l 542 819 q 553 855 553 819 l 553 933 q 538 960 547 960 q 532 954 532 959 m 189 957 l 195 957 l 195 951 l 189 951 l 189 957 m 619 957 l 625 957 l 625 951 l 619 951 l 619 957 m 246 939 l 246 933 l 249 933 l 249 939 l 246 939 m 676 939 l 676 933 l 679 933 l 679 939 l 676 939 m 760 936 l 762 930 l 762 924 l 760 918 q 766 909 766 918 l 768 909 l 768 912 l 766 927 l 768 927 l 774 924 l 774 936 q 768 939 768 936 q 760 936 762 936 m 85 936 l 85 927 l 88 927 l 88 936 l 85 936 m 515 936 l 515 927 l 517 927 l 517 936 l 515 936 m 237 933 l 237 921 l 240 921 q 243 933 243 931 l 237 933 m 667 933 l 667 921 l 670 921 q 673 933 673 931 l 667 933 m 398 924 l 398 918 l 401 918 l 401 924 l 398 924 m 94 918 l 94 912 l 97 912 l 97 918 l 94 918 m 407 918 l 407 912 l 410 912 l 410 918 l 407 918 m 524 918 l 524 912 l 527 912 l 527 918 l 524 918 m 774 918 q 768 891 774 911 q 771 870 771 879 l 774 870 q 781 888 774 881 q 771 894 771 888 l 771 897 l 781 897 q 777 918 777 909 l 774 918 m 237 915 l 237 909 q 243 915 243 909 l 237 915 m 458 915 l 458 849 l 461 849 q 464 879 461 878 q 461 915 461 888 l 458 915 m 667 915 l 667 909 q 673 915 673 909 l 667 915 m 449 909 q 443 894 449 894 l 443 888 l 449 888 l 449 885 l 443 885 l 443 870 q 452 873 449 873 l 452 909 l 449 909 m 138 906 l 136 894 l 136 888 l 138 888 l 142 903 l 142 906 l 138 906 m 568 906 l 566 894 l 566 888 l 568 888 l 572 903 l 572 906 l 568 906 m 138 885 q 136 873 138 878 l 142 873 l 142 885 l 138 885 m 568 885 q 566 873 568 878 l 572 873 l 572 885 l 568 885 m 781 882 l 781 873 l 783 873 l 783 882 l 781 882 m 186 873 l 186 867 l 189 867 l 189 873 l 186 873 m 616 873 l 616 867 l 619 867 l 619 873 l 616 873 m 130 864 l 130 861 q 133 859 130 859 l 130 852 l 130 849 q 142 844 134 849 l 142 861 l 138 867 q 130 864 133 864 m 559 864 l 559 861 q 562 859 559 859 l 559 852 l 559 849 q 572 844 564 849 l 572 861 l 568 867 q 559 864 563 864 m 240 855 l 240 849 l 243 849 l 243 855 l 240 855 m 670 855 l 670 849 l 673 849 l 673 855 l 670 855 m 138 840 l 138 834 l 142 834 l 142 840 l 138 840 m 568 840 l 568 834 l 572 834 l 572 840 l 568 840 m 53 744 l 98 744 q 104 738 104 743 l 104 725 l 92 712 l 92 705 q 104 534 104 557 l 108 534 q 111 543 108 537 l 108 566 q 117 731 117 653 q 127 744 122 744 l 157 744 q 176 536 167 744 l 179 536 l 192 718 q 182 725 182 718 l 182 738 q 189 744 183 744 q 279 741 254 741 l 279 738 l 286 741 l 328 741 q 335 734 335 740 l 335 728 l 325 715 l 325 407 q 335 400 335 407 l 335 394 q 328 387 335 387 l 286 387 q 283 391 283 387 l 277 387 l 231 387 q 224 394 224 387 l 224 400 l 237 414 l 237 488 l 234 507 q 237 511 234 511 q 234 576 234 555 l 234 667 q 237 680 234 673 q 234 683 237 683 l 237 699 l 237 705 l 234 722 q 212 673 212 722 q 199 540 212 631 l 202 534 q 182 387 189 387 l 159 387 q 150 400 151 387 q 140 589 140 570 l 137 589 q 127 507 130 555 q 130 498 130 501 q 121 391 121 445 l 114 387 l 92 387 q 59 715 79 387 q 46 728 54 715 l 46 738 q 53 744 47 744 m 354 744 l 396 744 q 403 738 403 743 l 403 728 l 396 718 l 396 407 l 403 397 l 403 394 q 396 387 403 387 l 354 387 q 348 394 348 387 l 348 400 q 357 407 348 407 l 357 718 l 348 731 l 348 738 q 354 744 349 744 m 448 744 q 494 731 494 736 l 494 624 q 487 618 494 618 l 474 618 q 468 624 468 618 l 468 718 l 461 718 q 452 699 452 715 l 452 676 q 497 511 452 624 q 500 446 500 467 q 468 378 500 378 q 422 391 422 386 l 422 514 q 429 520 423 520 l 435 520 q 441 514 441 519 l 441 472 l 432 472 l 432 478 l 429 478 l 429 449 l 435 452 l 439 452 l 441 436 l 441 414 q 452 404 441 409 l 455 404 q 465 423 465 407 l 465 452 q 419 618 465 519 q 416 669 416 651 l 416 673 q 419 676 416 676 l 416 683 l 416 686 q 439 744 416 732 l 448 744 m 523 744 q 526 741 526 744 l 532 744 l 562 744 q 568 738 568 743 l 568 728 l 562 718 l 562 602 l 565 602 l 581 722 q 572 731 576 722 l 572 734 q 581 744 572 739 l 610 744 q 617 738 617 743 l 617 728 q 604 709 604 713 q 607 699 607 703 q 591 637 602 699 q 594 634 591 634 q 588 592 591 599 q 623 404 617 408 l 623 394 q 617 387 623 387 l 581 387 q 575 394 575 387 l 575 404 q 581 410 576 410 l 565 527 l 562 527 l 562 410 l 568 400 l 568 394 q 562 387 568 387 l 523 387 q 516 394 516 387 l 516 400 l 526 414 l 526 722 q 516 728 516 722 l 516 738 q 523 744 517 744 m 640 744 l 708 744 q 721 741 715 744 q 734 744 726 744 l 769 744 q 776 738 776 743 l 776 728 l 766 715 q 776 602 766 671 l 779 602 q 783 618 779 612 l 779 624 q 785 644 779 630 q 783 654 785 647 l 789 722 q 779 728 779 722 l 779 738 q 785 744 780 744 l 821 744 q 828 738 828 743 l 828 731 q 789 501 806 731 l 789 416 q 802 400 802 402 l 802 394 q 795 387 802 387 l 753 387 q 747 394 747 387 l 747 404 l 753 414 q 756 514 756 498 q 730 722 756 577 l 721 722 l 721 709 l 718 692 l 705 709 l 705 676 l 708 676 q 714 686 708 686 q 721 680 721 685 l 721 634 q 714 627 721 627 l 705 627 q 698 634 698 627 l 698 722 l 682 722 q 675 715 675 720 l 675 592 q 708 582 675 585 l 708 572 q 675 563 708 566 l 675 414 q 682 407 676 407 l 698 407 l 698 514 q 705 520 699 520 l 714 520 q 721 514 721 519 l 721 481 q 718 443 721 459 q 721 404 721 426 l 721 394 q 714 387 721 387 l 640 387 q 633 394 633 387 l 633 400 l 643 414 l 643 715 l 633 728 l 633 738 q 640 744 634 744 m 279 728 q 270 702 270 716 q 273 631 270 688 l 270 631 q 273 627 270 627 l 270 605 l 270 592 q 277 585 271 585 l 290 585 l 290 589 q 292 705 290 615 q 279 728 288 728 m 536 686 l 536 667 l 539 667 l 539 686 l 536 686 m 585 686 l 585 676 l 591 676 l 591 680 q 585 686 591 686 m 656 686 l 656 676 l 659 676 l 659 686 l 656 686 m 250 683 l 250 673 l 254 673 l 254 683 l 250 683 m 477 680 l 477 667 l 481 667 q 484 676 481 670 l 477 680 m 795 680 l 795 669 l 802 669 q 799 680 799 676 l 795 680 m 153 676 l 153 667 l 157 667 l 157 676 l 153 676 m 665 673 l 665 660 l 669 660 l 669 673 l 665 673 m 585 667 l 581 660 q 585 650 585 654 q 578 644 578 649 l 578 634 l 581 634 l 591 663 l 585 667 m 789 667 l 789 654 q 795 647 790 647 q 802 660 795 652 l 789 667 m 130 663 l 130 656 l 134 656 l 134 663 l 130 663 m 195 663 q 192 640 195 653 l 199 640 l 199 637 l 192 637 l 192 618 l 195 602 l 199 602 q 202 608 199 608 q 199 611 202 611 l 202 644 q 199 663 199 661 l 195 663 m 656 663 q 652 644 656 648 l 659 644 l 659 663 l 656 663 m 705 663 l 705 656 l 708 656 l 708 663 l 705 663 m 143 660 l 143 654 l 146 654 l 146 660 l 143 660 m 536 660 l 536 637 l 539 637 l 539 660 l 536 660 m 244 654 q 241 640 244 652 l 244 621 q 241 589 241 604 l 241 582 q 250 576 241 576 l 250 553 l 244 553 l 244 547 q 254 543 248 547 l 254 585 l 248 582 l 244 589 q 254 595 244 595 l 254 634 l 248 634 l 248 637 l 254 637 l 254 654 l 244 654 m 426 650 l 426 644 l 429 644 l 429 650 l 426 650 m 72 647 l 72 637 l 75 637 l 75 647 l 72 647 m 299 644 q 296 624 299 624 l 299 618 l 299 611 q 296 608 299 608 q 299 592 299 603 l 306 595 l 309 595 q 312 585 309 591 q 302 579 304 579 q 299 582 302 582 l 296 566 l 296 559 q 319 592 319 576 q 309 595 312 595 l 309 605 l 319 618 l 319 621 q 302 644 306 621 l 299 644 m 545 644 l 545 627 l 552 627 l 552 621 l 545 621 l 545 595 l 549 595 q 555 627 549 605 l 552 627 l 555 634 l 555 644 l 545 644 m 257 637 l 257 631 l 260 631 l 260 637 l 257 637 m 665 637 q 659 627 665 627 q 656 631 659 631 q 652 602 656 619 q 656 598 656 602 l 663 602 l 665 602 l 665 595 l 669 595 l 669 637 l 665 637 m 121 624 l 121 611 l 127 614 q 130 611 127 611 l 130 634 q 121 624 125 634 m 315 631 l 315 624 l 319 624 l 319 631 l 315 631 m 536 627 l 536 534 l 539 534 l 539 627 l 536 627 m 302 621 l 309 621 l 309 614 l 302 614 l 302 621 m 146 614 l 146 605 l 150 605 l 150 614 l 146 614 m 439 611 q 435 598 439 604 q 445 585 440 585 l 455 585 l 455 589 q 441 611 441 589 l 439 611 m 121 605 l 117 589 l 124 585 l 127 585 l 130 605 l 121 605 m 195 598 l 195 589 l 199 589 l 199 598 l 195 598 m 367 598 q 364 543 367 581 l 367 527 l 374 530 q 380 524 375 524 l 383 524 l 383 527 q 374 536 383 532 l 377 543 l 377 556 l 370 556 l 370 566 l 377 566 l 377 598 l 370 595 q 367 598 370 598 m 159 595 l 159 589 l 163 589 l 163 595 l 159 595 m 766 595 l 766 582 l 769 582 l 769 595 l 766 595 m 656 592 l 656 534 l 659 534 l 659 553 l 665 553 l 665 536 l 669 536 l 669 559 q 659 563 663 563 l 659 579 l 665 579 l 665 566 l 669 566 l 669 589 l 663 585 l 659 585 l 659 592 l 656 592 m 150 585 l 150 566 q 157 559 151 559 l 159 559 l 159 566 q 153 585 153 573 l 150 585 m 159 585 l 159 576 l 163 576 l 163 585 l 159 585 m 189 585 l 189 576 l 192 576 l 192 585 l 189 585 m 458 585 l 458 579 l 465 579 q 458 585 465 585 m 545 585 l 545 579 l 549 579 l 549 585 l 545 585 m 82 582 l 82 563 q 88 549 88 563 l 92 549 l 92 569 q 85 582 85 569 l 82 582 m 552 582 l 552 566 l 555 566 l 555 582 l 552 582 m 445 579 q 471 549 445 563 l 468 543 q 471 540 471 543 l 468 540 l 471 534 l 465 524 l 465 520 q 471 514 465 514 l 468 507 q 477 498 468 503 q 481 501 477 501 q 484 498 481 498 l 481 491 l 481 481 l 484 481 l 487 501 q 477 527 487 512 l 471 524 l 468 524 q 481 534 468 532 q 468 576 468 562 l 461 576 q 455 566 461 566 l 452 566 l 452 579 l 445 579 m 760 579 l 760 566 l 766 569 l 769 569 l 769 559 l 763 549 l 763 517 l 766 517 l 766 527 l 772 527 l 772 494 l 766 494 l 766 488 l 772 488 l 772 465 q 783 462 776 465 l 783 475 q 776 481 783 481 l 779 520 l 779 547 q 769 540 771 540 l 769 543 q 772 569 772 561 q 766 579 766 569 l 760 579 m 192 572 l 192 563 l 195 563 l 195 572 l 192 572 m 117 566 l 117 563 l 124 563 l 124 566 l 117 566 m 315 566 l 315 559 l 319 559 l 319 566 l 315 566 m 163 563 l 163 547 l 166 547 l 166 563 l 163 563 m 273 563 l 267 423 q 283 400 274 400 l 290 410 l 290 563 l 273 563 m 545 559 l 545 553 l 549 553 l 549 559 l 545 559 m 299 556 l 299 549 l 302 549 l 302 556 l 299 556 m 306 549 l 315 549 l 315 556 l 312 556 q 306 549 306 555 m 455 553 l 455 549 q 458 540 458 543 l 461 540 l 461 543 q 458 553 458 549 l 455 553 m 82 549 l 82 514 l 95 501 l 95 498 l 88 498 l 88 485 l 85 469 l 92 465 l 88 459 q 92 449 92 452 l 95 449 l 95 465 l 101 465 l 101 459 l 104 459 l 104 472 q 98 478 104 478 l 101 501 l 101 511 q 95 520 95 511 l 88 517 l 85 524 l 85 527 l 88 527 q 98 524 94 524 l 98 543 l 95 543 l 95 536 l 88 536 q 82 549 88 549 m 150 543 q 157 524 152 524 l 153 517 l 153 514 l 159 505 l 157 475 l 159 475 l 157 469 l 157 465 q 163 459 163 465 l 166 459 q 173 465 166 465 l 173 472 l 166 472 l 170 494 l 170 501 l 159 520 l 170 520 q 166 543 166 533 l 163 543 l 163 536 l 157 536 l 157 549 q 150 543 150 549 m 309 543 l 309 536 l 315 536 l 315 543 l 309 543 m 250 536 l 250 527 l 254 527 l 254 536 l 250 536 m 545 534 l 545 527 l 549 527 l 549 534 l 545 534 m 367 520 l 364 498 q 367 488 367 492 q 364 485 364 488 l 370 481 q 383 514 370 488 l 374 520 q 370 517 374 517 q 367 520 370 520 m 665 520 l 665 507 l 669 507 l 669 520 l 665 520 m 250 517 l 250 511 l 254 511 l 254 517 l 250 517 m 578 501 l 578 494 q 588 465 581 465 l 585 449 l 585 446 l 591 449 q 594 446 591 446 q 597 449 594 449 q 604 443 598 443 q 597 491 597 484 l 594 491 l 594 485 l 588 485 l 588 488 l 591 494 l 591 498 l 588 498 l 588 491 q 581 501 581 491 l 578 501 m 763 469 l 763 462 l 766 462 l 766 469 l 763 469 m 705 462 l 705 439 q 711 433 705 433 l 711 456 q 705 462 711 462 m 772 452 l 772 446 l 776 446 l 776 452 l 772 452 m 772 443 l 772 427 l 776 427 l 776 443 l 772 443 m 98 436 l 98 430 l 101 430 l 101 436 l 98 436 m 429 427 l 429 420 l 432 420 l 432 427 l 429 427 m 190 306 q 227 275 227 300 l 227 166 l 220 166 l 220 141 l 227 141 l 227 85 q 229 49 227 67 q 190 -7 229 -7 q 148 49 148 -7 l 151 77 l 151 267 q 190 306 151 306 m 66 303 l 131 303 q 136 298 136 302 l 136 273 q 134 270 136 270 l 136 264 l 136 258 q 134 245 136 249 l 136 228 l 136 205 q 131 200 136 200 l 120 200 q 114 205 114 200 l 114 286 l 103 286 q 98 281 98 286 l 98 169 q 125 161 98 163 l 125 152 q 98 144 125 146 l 98 18 l 109 4 l 109 1 q 103 -5 109 -5 l 66 -5 q 61 1 61 -5 l 61 7 q 69 15 61 11 l 66 29 q 69 35 66 35 l 66 49 l 66 197 q 69 200 66 200 l 66 205 l 66 208 l 69 225 q 66 233 66 231 l 69 233 l 66 239 l 66 253 q 69 256 66 256 l 66 261 l 66 267 q 69 278 66 273 l 61 292 l 61 298 q 66 303 62 303 m 391 303 l 425 303 q 431 298 431 302 l 431 205 q 425 200 431 200 l 416 200 q 411 205 411 200 l 411 283 q 406 290 411 290 l 399 290 l 399 15 l 408 4 q 399 -5 408 0 l 366 -5 q 361 1 361 -5 l 361 7 l 369 18 l 369 290 l 363 290 q 358 283 358 288 l 358 205 q 352 200 358 200 l 344 200 q 338 205 338 200 l 338 286 q 327 267 327 282 l 327 18 l 330 -2 l 324 -5 l 310 -5 q 277 161 303 -5 l 274 161 l 274 60 q 271 35 274 50 q 279 7 275 13 l 279 1 q 274 -5 279 -5 l 245 -5 q 240 1 240 -5 l 240 7 l 249 18 l 249 283 q 240 290 240 283 l 240 295 q 245 300 241 300 l 277 300 q 302 166 285 300 l 304 166 l 304 281 l 299 290 l 299 295 l 302 300 q 391 303 362 303 m 534 303 l 568 303 q 573 298 573 302 l 573 290 q 565 253 568 286 q 573 222 573 253 l 579 222 q 587 258 581 252 l 587 283 q 579 290 579 283 l 579 298 q 585 303 580 303 l 615 303 q 621 298 621 302 l 621 290 q 590 163 604 290 q 587 161 587 163 q 618 12 609 16 q 621 9 621 12 l 621 1 q 615 -5 621 -5 l 579 -5 q 573 1 573 -5 l 573 9 q 579 20 579 16 q 568 85 579 48 l 565 85 q 559 15 559 39 q 565 9 565 14 l 565 1 q 559 -5 565 -5 l 531 -5 q 526 1 526 -5 l 526 9 q 543 54 535 19 l 540 60 q 559 158 545 76 q 551 203 555 163 q 553 205 553 203 q 540 278 547 205 q 528 290 535 278 l 528 298 q 534 303 530 303 m 632 303 l 666 303 q 671 298 671 302 l 671 290 q 663 253 667 286 q 671 222 671 253 l 677 222 q 685 258 679 252 l 685 283 q 677 290 677 283 l 677 298 q 682 303 677 303 l 713 303 q 719 298 719 302 l 719 290 q 688 163 703 290 q 685 161 685 163 q 716 12 707 16 q 719 9 719 12 l 719 1 q 713 -5 719 -5 l 677 -5 q 671 1 671 -5 l 671 9 q 677 20 677 16 q 666 85 677 48 l 663 85 q 657 15 657 39 q 663 9 663 14 l 663 1 q 657 -5 663 -5 l 629 -5 q 624 1 624 -5 l 624 9 q 640 54 633 19 l 637 60 q 657 158 644 76 q 649 203 652 163 q 652 205 652 203 q 637 278 646 205 q 627 290 633 278 l 627 298 q 632 303 627 303 m 730 303 l 764 303 q 769 298 769 302 l 769 290 q 761 253 764 286 q 769 222 769 253 l 775 222 q 783 258 777 252 l 783 283 q 775 290 775 283 l 775 298 q 781 303 776 303 l 811 303 q 817 298 817 302 l 817 290 q 786 163 800 290 q 783 161 783 163 q 814 12 805 16 q 817 9 817 12 l 817 1 q 811 -5 817 -5 l 775 -5 q 769 1 769 -5 l 769 9 q 775 20 775 16 q 764 85 775 48 l 761 85 q 755 15 755 39 q 761 9 761 14 l 761 1 q 755 -5 761 -5 l 727 -5 q 722 1 722 -5 l 722 9 q 739 54 731 19 l 736 60 q 755 158 741 76 q 747 203 751 163 q 749 205 749 203 q 736 278 743 205 q 724 290 731 278 l 724 298 q 730 303 726 303 m 178 270 l 178 113 q 181 46 178 85 q 178 35 178 41 q 190 15 184 15 l 198 20 l 195 35 l 195 43 q 198 46 195 46 q 195 49 198 49 q 198 180 198 137 l 198 278 q 190 286 198 282 l 187 286 q 178 270 178 283 m 319 261 l 319 256 l 321 256 l 321 261 l 319 261 m 593 261 l 593 253 q 599 258 599 253 l 593 261 m 691 261 l 691 253 q 696 258 696 253 l 691 261 m 789 261 l 789 253 q 794 258 794 253 l 789 261 m 123 253 l 123 233 l 128 233 l 128 248 q 123 253 128 253 m 587 248 q 590 236 590 242 l 595 236 l 595 250 q 587 248 590 248 m 685 248 q 688 236 688 242 l 694 236 l 694 250 q 685 248 688 248 m 783 248 q 786 236 786 242 l 791 236 l 791 250 q 783 248 786 248 m 165 241 l 165 236 l 168 236 l 168 241 l 165 241 m 316 241 l 316 239 q 319 174 316 226 l 321 174 l 321 241 l 316 241 m 565 228 l 565 216 q 559 225 559 216 q 553 219 553 224 l 553 211 l 568 216 l 568 205 l 565 205 l 559 208 l 557 203 l 565 191 q 559 186 559 191 l 559 178 l 565 180 l 570 178 q 576 200 576 195 l 576 203 l 573 203 l 573 197 l 568 197 l 568 203 l 573 211 l 573 219 l 568 216 l 568 228 l 565 228 m 663 228 l 663 216 q 657 225 657 216 q 652 219 652 224 l 652 211 l 666 216 l 666 205 l 663 205 l 657 208 l 654 203 l 663 191 q 657 186 657 191 l 657 178 l 663 180 l 669 178 q 674 200 674 195 l 674 203 l 671 203 l 671 197 l 666 197 l 666 203 l 671 211 l 671 219 l 666 216 l 666 228 l 663 228 m 761 228 l 761 216 q 755 225 755 216 q 749 219 749 224 l 749 211 l 764 216 l 764 205 l 761 205 l 755 208 l 753 203 l 761 191 q 755 186 755 191 l 755 178 l 761 180 l 766 178 q 772 200 772 195 l 772 203 l 769 203 l 769 197 l 764 197 l 764 203 l 769 211 l 769 219 l 764 216 l 764 228 l 761 228 m 279 225 l 279 219 l 282 219 l 282 225 l 279 225 m 204 205 l 204 127 l 210 127 l 210 146 l 215 146 l 215 152 l 210 152 l 210 172 l 215 172 l 215 178 l 210 178 l 210 191 l 215 191 l 215 214 q 204 205 204 210 m 156 205 l 156 197 l 159 197 l 159 205 l 156 205 m 257 203 l 257 200 q 260 178 257 189 q 257 155 257 167 l 262 155 l 265 180 q 262 189 265 183 q 265 200 265 193 l 265 203 l 257 203 m 165 197 l 165 189 l 162 189 l 156 191 l 156 127 l 162 130 l 165 130 l 165 127 q 159 121 165 121 q 156 124 159 124 l 156 96 l 162 99 l 165 99 l 165 85 l 168 85 q 173 104 168 98 l 173 110 l 168 119 l 168 121 l 173 130 l 173 141 q 168 155 168 148 l 162 152 l 159 158 l 159 169 l 165 169 l 165 163 l 168 163 l 168 197 l 165 197 m 78 194 l 78 186 l 81 186 l 81 194 l 78 194 m 377 194 l 377 189 q 383 194 383 189 l 377 194 m 86 186 l 86 174 l 89 174 l 89 186 l 86 186 m 282 186 l 282 178 l 285 178 l 285 186 l 282 186 m 78 183 l 78 116 l 81 116 l 81 132 l 86 132 l 86 113 l 78 113 l 78 82 l 81 82 l 81 87 l 86 87 l 86 79 l 89 79 q 92 99 89 88 l 89 104 q 92 107 89 107 l 89 121 l 89 124 q 92 146 89 136 q 89 172 89 157 l 86 172 l 86 144 l 81 144 l 81 183 l 78 183 m 389 174 l 389 163 l 383 163 l 383 172 q 377 166 377 171 l 377 121 l 383 113 l 377 104 l 377 85 l 383 87 q 389 77 389 87 l 391 77 l 391 146 q 394 149 391 149 q 391 174 391 151 l 389 174 m 562 172 l 562 166 l 565 166 l 565 172 l 562 172 m 660 172 l 660 166 l 663 166 l 663 172 l 660 172 m 758 172 l 758 166 l 761 166 l 761 172 l 758 172 m 319 169 l 319 163 l 321 163 l 321 169 l 319 169 m 570 169 l 570 155 l 573 155 l 573 169 l 570 169 m 669 169 l 669 155 l 671 155 l 671 169 l 669 169 m 766 169 l 766 155 l 769 155 l 769 169 l 766 169 m 579 163 l 579 152 l 582 152 l 582 163 l 579 163 m 677 163 l 677 152 l 680 152 l 680 163 l 677 163 m 775 163 l 775 152 l 778 152 l 778 163 l 775 163 m 288 158 l 288 146 l 290 146 l 290 158 l 288 158 m 296 155 q 288 132 296 146 l 294 132 l 299 152 l 299 155 l 296 155 m 383 155 l 389 155 l 389 152 q 383 146 389 146 l 383 155 m 565 149 l 565 144 l 568 144 l 568 149 l 565 149 m 663 149 l 663 144 l 666 144 l 666 149 l 663 149 m 761 149 l 761 144 l 764 144 l 764 149 l 761 149 m 573 146 l 570 132 l 579 138 q 582 136 579 136 l 582 138 q 573 146 582 142 m 671 146 l 669 132 q 677 138 670 132 q 680 136 677 136 l 680 138 q 671 146 680 142 m 769 146 l 766 132 l 775 138 q 778 136 775 136 l 778 138 q 769 146 778 142 m 159 144 l 165 144 l 165 138 l 159 138 l 159 144 m 212 127 l 212 121 l 215 121 l 215 127 l 212 127 m 290 124 l 294 119 l 294 113 l 290 107 q 296 99 296 107 l 299 99 l 299 102 l 296 116 l 299 116 l 304 113 l 304 124 q 299 127 299 124 q 290 124 294 124 m 383 130 l 389 130 l 389 124 l 383 124 l 383 130 m 582 124 l 582 119 l 585 119 l 585 124 l 582 124 m 680 124 l 680 119 l 682 119 l 682 124 l 680 124 m 778 124 l 778 119 l 781 119 l 781 124 l 778 124 m 204 121 l 204 110 l 207 110 q 210 121 210 120 l 204 121 m 587 113 q 585 104 587 110 l 585 102 l 587 102 q 590 110 587 104 l 590 113 l 587 113 m 685 113 q 682 104 685 110 l 682 102 l 685 102 q 688 110 685 104 l 688 113 l 685 113 m 783 113 q 781 104 783 110 l 781 102 l 783 102 q 786 110 783 104 l 786 113 l 783 113 m 304 107 q 299 82 304 100 q 302 62 302 71 l 304 62 q 310 79 304 73 q 302 85 302 79 l 302 87 l 310 87 q 307 107 307 99 l 304 107 m 204 104 l 204 99 q 210 104 210 99 l 204 104 m 81 104 l 86 104 l 86 99 l 81 99 l 81 104 m 551 85 l 553 71 q 548 62 548 71 q 551 54 551 57 l 553 54 q 559 68 553 61 q 557 79 557 73 q 562 85 562 79 q 559 87 559 85 q 551 85 554 85 m 649 85 l 652 71 q 646 62 646 71 q 649 54 649 57 l 652 54 q 657 68 652 61 q 654 79 654 73 q 660 85 660 79 q 657 87 657 85 q 649 85 652 85 m 747 85 l 749 71 q 744 62 744 71 q 747 54 747 57 l 749 54 q 755 68 749 61 q 753 79 753 73 q 758 85 758 79 q 755 87 755 85 q 747 85 750 85 m 310 74 l 310 65 l 313 65 l 313 74 l 310 74 m 156 65 l 156 60 l 159 60 l 159 65 l 156 65 m 207 49 l 207 43 l 210 43 l 210 49 l 207 49 m 166 -38 q 189 -57 189 -42 l 189 -124 l 185 -124 l 185 -140 l 189 -140 l 189 -174 q 191 -196 189 -185 q 166 -231 191 -231 q 140 -196 140 -231 l 142 -179 l 142 -62 q 166 -38 142 -38 m 223 -38 q 245 -57 245 -42 l 245 -124 l 242 -124 l 242 -140 l 245 -140 l 245 -174 q 247 -196 245 -185 q 223 -231 247 -231 q 197 -196 197 -231 l 199 -179 l 199 -62 q 223 -38 199 -38 m 333 -38 q 345 -41 336 -38 q 352 -40 348 -40 l 355 -40 q 359 -43 359 -41 l 359 -100 q 355 -104 359 -104 l 350 -104 q 347 -100 347 -104 l 347 -69 q 338 -50 347 -50 q 335 -54 338 -54 l 336 -71 l 336 -179 l 335 -189 q 336 -198 336 -192 l 336 -214 q 340 -217 337 -217 l 342 -217 q 347 -207 347 -215 l 345 -191 q 347 -186 345 -189 q 345 -170 345 -177 l 345 -165 q 350 -160 345 -163 l 355 -160 q 359 -163 359 -161 l 359 -191 q 350 -229 359 -229 q 332 -231 347 -229 q 317 -212 323 -231 l 317 -60 q 333 -38 320 -38 m 50 -40 l 74 -40 q 77 -43 77 -41 l 77 -50 l 70 -57 l 70 -60 q 77 -152 77 -140 l 79 -152 q 81 -146 79 -150 l 79 -134 q 84 -47 84 -88 q 89 -40 87 -40 l 104 -40 q 115 -150 110 -40 l 117 -150 l 123 -54 q 118 -50 118 -54 l 118 -43 q 121 -40 119 -40 l 139 -40 q 142 -43 142 -41 l 142 -50 q 130 -124 135 -50 q 127 -148 129 -124 l 129 -152 q 118 -229 122 -229 l 106 -229 q 101 -222 102 -229 q 96 -122 96 -132 l 94 -122 q 89 -165 91 -140 q 91 -170 91 -169 q 85 -227 85 -199 l 82 -229 l 70 -229 q 53 -56 64 -229 q 46 -49 50 -56 l 46 -43 q 50 -40 47 -40 m 258 -40 l 271 -40 q 307 -66 307 -40 l 307 -198 q 294 -229 307 -222 l 258 -229 q 254 -225 254 -229 l 254 -220 q 259 -217 254 -217 l 259 -54 l 254 -47 l 254 -43 q 258 -40 254 -40 m 371 -40 l 390 -40 q 397 -41 393 -40 q 404 -40 399 -40 l 416 -40 q 419 -43 419 -41 l 419 -47 q 414 -50 419 -50 l 414 -207 q 401 -229 414 -222 l 387 -229 q 371 -186 371 -223 l 371 -178 q 372 -170 371 -174 q 371 -169 372 -169 l 372 -148 l 372 -52 l 368 -45 l 368 -43 q 371 -40 368 -40 m 426 -40 l 532 -40 q 536 -43 536 -41 l 536 -100 q 532 -104 536 -104 l 527 -104 q 524 -100 524 -104 l 524 -52 q 520 -49 524 -49 l 517 -49 l 517 -217 l 522 -224 q 517 -229 522 -227 l 496 -229 q 493 -225 493 -229 l 493 -222 l 498 -215 l 498 -49 l 494 -49 q 491 -52 491 -49 l 491 -100 q 488 -104 491 -104 l 481 -104 q 479 -102 479 -104 l 475 -104 l 471 -104 q 467 -100 467 -104 l 467 -52 q 464 -49 467 -49 l 460 -49 l 460 -217 l 465 -224 q 460 -229 465 -227 l 439 -229 q 436 -225 436 -229 l 436 -222 l 441 -215 l 441 -49 l 438 -49 q 434 -52 434 -49 l 434 -100 q 431 -104 434 -104 l 426 -104 q 422 -100 422 -104 l 422 -43 q 426 -40 423 -40 m 543 -40 l 582 -40 q 585 -43 585 -41 l 585 -59 l 584 -67 l 577 -59 l 577 -76 l 578 -76 q 582 -71 578 -71 q 585 -75 585 -71 l 585 -98 q 582 -102 585 -102 l 577 -102 q 574 -98 574 -102 l 574 -52 l 565 -52 q 562 -56 562 -52 l 562 -121 q 578 -126 562 -124 l 578 -131 q 562 -136 578 -134 l 562 -215 q 565 -218 562 -218 l 574 -218 l 574 -162 q 577 -159 574 -159 l 582 -159 q 585 -162 585 -159 l 585 -179 q 584 -199 585 -191 q 585 -220 585 -209 l 585 -225 q 582 -229 585 -229 l 543 -229 q 539 -225 539 -229 l 539 -222 l 545 -215 l 545 -56 l 539 -49 l 539 -43 q 543 -40 540 -40 m 725 -40 l 764 -40 q 768 -43 768 -41 l 768 -59 l 766 -67 l 759 -59 l 759 -76 l 761 -76 q 764 -71 761 -71 q 768 -75 768 -71 l 768 -98 q 764 -102 768 -102 l 759 -102 q 755 -98 755 -102 l 755 -52 l 747 -52 q 743 -56 743 -52 l 743 -121 q 761 -126 743 -124 l 761 -131 q 743 -136 761 -134 l 743 -215 q 747 -218 744 -218 l 755 -218 l 755 -162 q 759 -159 756 -159 l 764 -159 q 768 -162 768 -159 l 768 -179 q 766 -199 768 -191 q 768 -220 768 -209 l 768 -225 q 764 -229 768 -229 l 725 -229 q 722 -225 722 -229 l 722 -222 l 726 -215 l 726 -56 l 722 -49 l 722 -43 q 725 -40 722 -40 m 793 -40 q 817 -47 817 -44 l 817 -104 q 814 -107 817 -107 l 807 -107 q 804 -104 804 -107 l 804 -54 l 800 -54 q 795 -64 795 -56 l 795 -76 q 819 -163 795 -104 q 821 -198 821 -186 q 804 -234 821 -234 q 780 -227 780 -230 l 780 -162 q 783 -159 780 -159 l 787 -159 q 790 -162 790 -159 l 790 -184 l 785 -184 l 785 -181 l 783 -181 l 783 -196 l 787 -195 l 788 -195 l 790 -203 l 790 -215 q 795 -220 790 -218 l 797 -220 q 802 -210 802 -218 l 802 -195 q 778 -107 802 -159 q 777 -79 777 -90 l 777 -78 q 778 -76 777 -76 l 777 -73 l 777 -71 q 788 -40 777 -46 l 793 -40 m 600 -41 l 629 -41 q 649 -73 649 -41 l 649 -111 q 639 -134 649 -123 q 649 -153 645 -134 l 649 -215 l 654 -222 l 654 -225 q 651 -229 654 -229 l 644 -229 q 630 -214 630 -229 l 630 -144 q 625 -140 630 -142 l 620 -140 l 620 -195 l 618 -205 q 620 -214 620 -208 l 620 -218 q 625 -222 625 -218 l 625 -225 q 622 -229 625 -229 l 600 -229 q 596 -225 596 -229 l 596 -222 q 601 -218 596 -218 l 601 -52 q 596 -49 596 -52 l 596 -45 q 600 -41 596 -41 m 395 -47 l 391 -52 l 391 -210 l 393 -218 l 397 -218 q 401 -208 401 -217 l 401 -54 q 395 -47 401 -51 m 159 -60 l 159 -157 q 161 -198 159 -174 q 159 -205 159 -201 q 166 -217 163 -217 l 172 -214 l 170 -205 l 170 -199 q 172 -198 170 -198 q 170 -196 172 -196 q 172 -115 172 -142 l 172 -56 q 166 -50 172 -53 l 165 -50 q 159 -60 159 -52 m 216 -60 l 216 -157 q 218 -198 216 -174 q 216 -205 216 -201 q 223 -217 219 -217 l 229 -214 l 227 -205 l 227 -199 q 229 -198 227 -198 q 227 -196 229 -196 q 229 -115 229 -142 l 229 -56 q 223 -50 229 -53 l 221 -50 q 216 -60 216 -52 m 278 -54 l 278 -217 l 283 -217 q 288 -207 288 -215 l 288 -57 q 281 -50 288 -54 q 278 -54 278 -51 m 620 -56 l 620 -126 q 630 -115 630 -126 l 630 -60 q 625 -56 630 -58 l 620 -56 m 350 -62 l 350 -75 l 355 -71 q 350 -62 353 -62 m 324 -69 l 324 -73 l 326 -73 l 326 -69 l 324 -69 m 385 -69 l 385 -73 l 387 -73 l 387 -69 l 385 -69 m 551 -71 l 551 -76 l 553 -76 l 553 -71 l 551 -71 m 637 -71 q 635 -83 637 -81 l 635 -88 l 633 -88 l 633 -95 l 635 -95 q 639 -92 635 -92 l 639 -71 l 637 -71 m 642 -71 l 642 -107 l 644 -107 l 644 -88 l 646 -88 q 644 -71 644 -87 l 642 -71 m 733 -71 l 733 -76 l 735 -76 l 735 -71 l 733 -71 m 809 -75 l 809 -81 l 810 -81 q 812 -76 810 -79 l 809 -75 m 103 -76 l 103 -81 l 104 -81 l 104 -76 l 103 -76 m 330 -76 q 324 -85 330 -85 l 324 -92 l 328 -90 l 328 -93 q 321 -96 328 -96 l 321 -98 l 324 -104 l 324 -115 l 330 -115 l 332 -107 l 332 -76 l 330 -76 m 151 -78 l 151 -81 l 153 -81 l 153 -78 l 151 -78 m 208 -78 l 208 -81 l 210 -81 l 210 -78 l 208 -78 m 556 -78 l 556 -85 l 558 -85 l 558 -78 l 556 -78 m 739 -78 l 739 -85 l 740 -85 l 740 -78 l 739 -78 m 271 -81 l 271 -85 l 273 -85 l 273 -81 l 271 -81 m 91 -83 l 91 -86 l 92 -86 l 92 -83 l 91 -83 m 125 -83 q 123 -95 125 -88 l 127 -95 l 127 -96 l 123 -96 l 123 -107 l 125 -115 l 127 -115 q 129 -112 127 -112 q 127 -111 129 -111 l 129 -93 q 127 -83 129 -92 l 125 -83 m 551 -83 q 549 -93 551 -91 l 553 -93 l 553 -83 l 551 -83 m 577 -83 l 577 -86 l 578 -86 l 578 -83 l 577 -83 m 733 -83 q 732 -93 733 -91 l 735 -93 l 735 -83 l 733 -83 m 759 -83 l 759 -86 l 761 -86 l 761 -83 l 759 -83 m 98 -85 l 98 -88 l 100 -88 l 100 -85 l 98 -85 m 781 -90 l 781 -93 l 783 -93 l 783 -90 l 781 -90 m 60 -92 l 60 -96 l 62 -96 l 62 -92 l 60 -92 m 297 -92 q 295 -107 297 -107 q 297 -119 297 -109 q 304 -100 304 -119 l 300 -102 l 298 -102 l 298 -92 l 297 -92 m 613 -93 l 613 -100 l 610 -100 l 610 -95 l 606 -95 l 606 -119 q 604 -138 606 -126 q 608 -150 608 -143 l 610 -150 l 610 -146 l 613 -146 l 613 -157 l 614 -157 l 614 -117 l 613 -117 l 613 -124 l 610 -124 l 610 -107 l 613 -107 l 613 -109 q 611 -111 613 -111 q 613 -115 613 -114 l 614 -115 l 614 -93 l 613 -93 m 637 -93 l 637 -96 l 639 -96 l 639 -93 l 637 -93 m 175 -100 l 175 -148 l 178 -148 l 178 -136 l 182 -136 l 182 -133 l 178 -133 l 178 -121 l 182 -121 l 182 -117 l 178 -117 l 178 -109 l 182 -109 l 182 -95 q 175 -100 175 -98 m 232 -100 l 232 -148 l 235 -148 l 235 -136 l 239 -136 l 239 -133 l 235 -133 l 235 -121 l 239 -121 l 239 -117 l 235 -117 l 235 -109 l 239 -109 l 239 -95 q 232 -100 232 -98 m 556 -96 q 553 -102 556 -102 q 551 -100 553 -100 q 549 -115 551 -106 q 551 -117 551 -115 l 555 -115 l 556 -115 l 556 -119 l 558 -119 l 558 -96 l 556 -96 m 739 -96 q 735 -102 739 -102 q 733 -100 735 -100 q 732 -115 733 -106 q 733 -117 733 -115 l 736 -115 l 739 -115 l 739 -119 l 740 -119 l 740 -96 l 739 -96 m 85 -104 l 85 -111 l 89 -109 q 91 -111 89 -111 l 91 -98 q 85 -104 88 -98 m 146 -100 l 146 -105 l 147 -105 l 147 -100 l 146 -100 m 203 -100 l 203 -105 l 204 -105 l 204 -100 l 203 -100 m 326 -100 l 330 -100 l 330 -102 l 326 -102 l 326 -100 m 407 -102 q 405 -114 407 -112 q 407 -121 407 -117 l 405 -124 q 407 -136 407 -126 l 408 -136 l 410 -127 l 410 -124 q 408 -117 410 -120 q 410 -111 410 -114 l 408 -102 l 407 -102 m 385 -104 q 383 -133 385 -133 l 381 -133 l 381 -134 l 385 -140 l 385 -143 q 376 -160 379 -160 l 376 -169 l 378 -169 l 378 -163 l 381 -163 l 385 -172 l 388 -172 l 387 -169 l 387 -162 l 388 -159 q 383 -157 385 -157 l 383 -153 l 388 -153 q 387 -143 388 -152 q 388 -131 387 -138 q 387 -104 387 -121 l 385 -104 m 151 -105 l 151 -111 l 149 -111 l 146 -109 l 146 -148 l 149 -146 l 151 -146 l 151 -148 q 147 -152 151 -152 q 146 -150 147 -150 l 146 -167 l 149 -165 l 151 -165 l 151 -174 l 153 -174 q 156 -162 153 -166 l 156 -159 l 153 -153 l 153 -152 l 156 -146 l 156 -140 q 153 -131 153 -135 l 149 -133 l 147 -130 l 147 -122 l 151 -122 l 151 -126 l 153 -126 l 153 -105 l 151 -105 m 208 -105 l 208 -111 l 206 -111 l 203 -109 l 203 -148 l 206 -146 l 208 -146 l 208 -148 q 204 -152 208 -152 q 203 -150 204 -150 l 203 -167 l 206 -165 l 208 -165 l 208 -174 l 210 -174 q 213 -162 210 -166 l 213 -159 l 210 -153 l 210 -152 l 213 -146 l 213 -140 q 210 -131 210 -135 l 206 -133 l 204 -130 l 204 -122 l 208 -122 l 208 -126 l 210 -126 l 210 -105 l 208 -105 m 446 -107 l 446 -111 q 450 -107 450 -111 l 446 -107 m 503 -107 l 503 -111 q 507 -107 507 -111 l 503 -107 m 100 -109 l 100 -114 l 101 -114 l 101 -109 l 100 -109 m 788 -111 q 787 -117 788 -114 q 791 -124 789 -124 l 797 -124 l 797 -122 q 790 -111 790 -122 l 788 -111 m 376 -114 q 381 -119 376 -116 l 381 -112 q 376 -114 378 -114 m 85 -114 l 84 -122 l 87 -124 l 89 -124 l 91 -114 l 85 -114 m 125 -117 l 125 -122 l 127 -122 l 127 -117 l 125 -117 m 264 -121 l 266 -124 l 262 -126 q 264 -131 264 -129 l 268 -131 l 268 -117 q 264 -121 264 -118 m 292 -117 l 292 -121 l 294 -121 l 294 -117 l 292 -117 m 106 -119 l 106 -122 l 108 -122 l 108 -119 l 106 -119 m 271 -119 l 271 -178 l 273 -178 q 275 -165 273 -168 q 273 -159 273 -162 q 275 -157 273 -157 l 273 -153 l 273 -152 q 275 -134 273 -144 q 273 -119 273 -128 l 271 -119 m 324 -119 l 324 -131 l 328 -130 l 330 -130 l 330 -134 l 332 -134 l 332 -121 q 324 -119 328 -121 m 453 -119 l 453 -126 l 450 -126 l 450 -121 q 446 -124 446 -121 l 446 -152 l 450 -157 l 446 -162 l 446 -174 l 450 -172 q 453 -179 453 -172 l 455 -179 l 455 -136 q 456 -134 455 -134 q 455 -119 455 -134 l 453 -119 m 510 -119 l 510 -126 l 507 -126 l 507 -121 q 503 -124 503 -121 l 503 -152 q 507 -157 503 -153 l 503 -162 l 503 -174 l 507 -172 q 510 -179 510 -172 l 511 -179 l 511 -136 q 513 -134 511 -134 q 511 -119 511 -134 l 510 -119 m 551 -121 l 551 -152 l 553 -152 l 553 -141 l 556 -141 l 556 -150 l 558 -150 l 558 -138 q 553 -136 555 -136 l 553 -127 l 556 -127 l 556 -134 l 558 -134 l 558 -122 l 555 -124 l 553 -124 l 553 -121 l 551 -121 m 733 -121 l 733 -152 l 735 -152 l 735 -141 l 739 -141 l 739 -150 l 740 -150 l 740 -138 q 735 -136 736 -136 l 735 -127 l 739 -127 l 739 -134 l 740 -134 l 740 -122 l 736 -124 l 735 -124 l 735 -121 l 733 -121 m 294 -122 l 300 -131 l 297 -131 l 297 -140 l 300 -138 l 300 -143 l 297 -143 l 297 -163 l 298 -163 q 302 -160 298 -160 l 302 -124 l 294 -122 m 101 -124 l 101 -134 q 104 -138 102 -138 l 106 -138 l 106 -134 q 103 -124 103 -130 l 101 -124 m 106 -124 l 106 -130 l 108 -130 l 108 -124 l 106 -124 m 121 -124 l 121 -130 l 123 -130 l 123 -124 l 121 -124 m 799 -124 l 799 -127 l 802 -127 q 799 -124 802 -124 m 65 -126 l 65 -136 q 68 -143 68 -136 l 70 -143 l 70 -133 q 66 -126 66 -133 l 65 -126 m 376 -126 l 376 -144 l 378 -144 l 378 -126 l 376 -126 m 791 -127 q 806 -143 791 -136 l 804 -146 q 806 -148 806 -146 l 804 -148 l 806 -152 l 802 -157 l 802 -159 q 806 -162 802 -162 l 804 -165 q 809 -170 804 -168 q 810 -169 809 -169 q 812 -170 810 -170 l 810 -174 l 810 -179 l 812 -179 l 814 -169 q 809 -155 814 -163 l 806 -157 l 804 -157 q 810 -152 804 -153 q 804 -130 804 -136 l 800 -130 q 797 -134 800 -134 l 795 -134 l 795 -127 l 791 -127 m 123 -131 l 123 -136 l 125 -136 l 125 -131 l 123 -131 m 262 -133 l 262 -152 l 266 -150 q 268 -152 266 -152 l 268 -148 l 264 -148 l 264 -146 q 269 -140 269 -146 q 264 -133 264 -140 l 262 -133 m 324 -133 l 324 -143 l 328 -141 l 332 -143 l 332 -138 q 326 -133 326 -138 l 324 -133 m 450 -131 l 453 -131 l 453 -133 q 450 -136 453 -136 l 450 -131 m 507 -131 l 510 -131 l 510 -133 q 507 -136 510 -136 l 507 -131 m 84 -134 l 84 -136 l 87 -136 l 87 -134 l 84 -134 m 610 -133 l 613 -133 l 613 -141 l 610 -141 l 610 -133 m 108 -136 l 108 -144 l 110 -144 l 110 -136 l 108 -136 m 292 -136 l 292 -144 l 294 -144 l 294 -136 l 292 -136 m 147 -138 l 151 -138 l 151 -141 l 147 -141 l 147 -138 m 204 -138 l 208 -138 l 208 -141 l 204 -141 l 204 -138 m 797 -141 l 797 -143 q 799 -148 799 -146 l 800 -148 l 800 -146 q 799 -141 799 -143 l 797 -141 m 65 -143 l 65 -162 l 72 -169 l 72 -170 l 68 -170 l 68 -178 l 66 -186 l 70 -188 l 68 -191 q 70 -196 70 -195 l 72 -196 l 72 -188 l 75 -188 l 75 -191 l 77 -191 l 77 -184 q 74 -181 77 -181 l 75 -169 l 75 -163 q 72 -159 72 -163 l 68 -160 l 66 -157 l 66 -155 l 68 -155 q 74 -157 72 -157 l 74 -146 l 72 -146 l 72 -150 l 68 -150 q 65 -143 68 -143 m 101 -146 q 104 -157 102 -157 l 103 -160 l 103 -162 l 106 -167 l 104 -182 l 106 -182 l 104 -186 l 104 -188 q 108 -191 108 -188 l 110 -191 q 113 -188 110 -188 l 113 -184 l 110 -184 l 111 -172 l 111 -169 l 106 -159 l 111 -159 q 110 -146 110 -152 l 108 -146 l 108 -150 l 104 -150 l 104 -143 q 101 -146 101 -144 m 330 -144 l 330 -152 l 332 -152 l 332 -144 l 330 -144 m 180 -148 l 180 -152 l 182 -152 l 182 -148 l 180 -148 m 237 -148 l 237 -152 l 239 -152 l 239 -148 l 237 -148 m 324 -148 l 324 -152 l 326 -152 l 326 -148 l 324 -148 m 450 -146 l 453 -146 l 453 -150 l 450 -150 l 450 -146 m 507 -146 l 510 -146 l 510 -150 l 507 -150 l 507 -146 m 175 -152 l 175 -159 l 177 -159 l 178 -152 l 175 -152 m 232 -152 l 232 -159 l 233 -159 l 235 -152 l 232 -152 m 608 -157 l 608 -160 l 610 -160 l 610 -157 l 608 -157 m 262 -160 l 262 -174 l 264 -174 l 264 -167 l 266 -167 l 269 -169 q 268 -159 268 -166 q 262 -160 264 -160 m 556 -159 l 556 -165 l 558 -165 l 558 -159 l 556 -159 m 739 -159 l 739 -165 l 740 -165 l 740 -159 l 739 -159 m 613 -160 l 613 -163 l 614 -163 l 614 -160 l 613 -160 m 175 -162 l 175 -165 q 178 -162 178 -165 l 175 -162 m 232 -162 l 232 -165 q 235 -162 235 -165 l 232 -162 m 642 -162 l 642 -199 l 644 -199 q 646 -182 644 -183 q 644 -162 644 -177 l 642 -162 m 637 -165 q 633 -174 637 -174 l 633 -178 l 637 -178 l 637 -179 l 633 -179 l 633 -188 q 639 -186 637 -186 l 639 -165 l 637 -165 m 146 -186 l 146 -189 l 147 -189 l 147 -186 l 146 -186 m 203 -186 l 203 -189 l 204 -189 l 204 -186 l 203 -186 m 577 -189 l 577 -201 q 581 -205 578 -205 l 581 -193 q 577 -189 581 -189 m 759 -189 l 759 -201 q 762 -205 760 -205 l 762 -193 q 759 -189 762 -189 m 350 -193 l 350 -205 l 353 -205 l 353 -196 q 350 -193 353 -193 m 177 -196 l 177 -199 l 178 -199 l 178 -196 l 177 -196 m 233 -196 l 233 -199 l 235 -199 l 235 -196 l 233 -196 m 74 -203 l 74 -207 l 75 -207 l 75 -203 l 74 -203 m 783 -208 l 783 -212 l 785 -212 l 785 -208 l 783 -208 m 661 -212 l 671 -212 q 675 -215 675 -212 l 675 -225 q 671 -229 675 -229 l 661 -229 q 658 -225 658 -229 l 658 -215 q 661 -212 659 -212 z "},"%":{"ha":857,"x_min":46,"x_max":828,"o":"m 222 1130 q 261 1097 261 1122 l 261 981 l 255 981 l 255 954 l 261 954 l 261 894 q 264 855 261 875 q 222 795 264 795 q 178 855 178 795 l 180 885 l 180 1088 q 222 1130 180 1130 m 652 1130 q 691 1097 691 1122 l 691 981 l 685 981 l 685 954 l 691 954 l 691 894 q 694 855 691 875 q 652 795 694 795 q 607 855 607 795 l 610 885 l 610 1088 q 652 1130 610 1130 m 67 1127 l 85 1127 q 153 1085 153 1127 l 153 1023 q 133 966 153 983 q 153 912 150 966 l 153 846 q 118 799 153 799 l 67 799 q 61 804 61 799 l 61 810 q 73 825 73 824 l 73 948 l 79 948 l 79 954 l 73 954 l 73 972 q 82 989 80 972 l 97 996 l 97 1013 l 91 1010 l 88 1010 l 88 1013 q 94 1019 89 1019 q 97 1017 94 1017 l 97 1058 l 94 1058 l 94 1040 l 91 1040 q 88 1043 88 1040 l 82 1040 q 73 1043 76 1043 l 73 1091 q 61 1115 73 1102 l 61 1121 q 67 1127 62 1127 m 279 1127 l 312 1127 q 323 1124 319 1127 q 336 1127 329 1127 l 357 1127 q 362 1121 362 1126 l 362 1115 q 353 1109 362 1109 l 353 838 q 332 799 353 812 l 306 799 q 279 873 279 809 l 279 888 q 282 900 279 895 q 279 903 282 903 l 282 939 l 282 1106 l 273 1118 l 273 1121 q 279 1127 274 1127 m 497 1127 l 515 1127 q 583 1085 583 1127 l 583 1023 q 562 966 583 983 q 583 912 580 966 l 583 846 q 547 799 583 799 l 497 799 q 491 804 491 799 l 491 810 q 503 825 491 812 l 503 948 l 509 948 l 509 954 l 503 954 l 503 972 q 512 989 509 972 q 527 996 514 989 l 527 1013 l 521 1010 l 517 1010 l 517 1013 q 524 1019 519 1019 q 527 1017 524 1017 l 527 1058 l 524 1058 l 524 1040 l 521 1040 q 517 1043 517 1040 l 512 1040 q 503 1043 506 1043 l 503 1091 q 491 1115 503 1102 l 491 1121 q 497 1127 492 1127 m 383 1124 l 434 1124 q 470 1070 470 1124 l 470 1004 q 452 963 470 981 q 470 930 463 963 l 470 823 l 479 810 l 479 804 q 473 799 479 799 l 461 799 q 437 825 437 799 l 437 945 q 428 954 437 949 l 419 954 l 419 859 l 416 840 q 419 825 419 836 l 419 817 q 428 810 428 817 l 428 804 q 422 799 428 799 l 383 799 q 377 804 377 799 l 377 810 q 387 817 377 817 l 387 1106 q 377 1112 377 1106 l 377 1118 q 383 1124 378 1124 m 711 1124 l 745 1124 q 771 981 753 1124 l 774 981 l 774 1103 l 768 1112 l 768 1118 q 774 1124 769 1124 l 804 1124 q 810 1118 810 1123 l 810 1112 q 798 1088 798 1099 l 798 823 l 801 802 l 795 799 l 781 799 q 745 975 772 799 l 741 975 l 741 867 q 739 840 741 857 q 747 810 742 817 l 747 804 q 741 799 747 799 l 711 799 q 706 804 706 799 l 706 810 l 715 823 l 715 1106 q 706 1112 706 1106 l 706 1118 q 711 1124 707 1124 m 321 1115 l 315 1106 l 315 831 l 317 817 l 323 817 q 332 834 332 819 l 332 1103 q 321 1115 332 1107 m 210 1091 l 210 924 q 213 852 210 895 q 210 840 210 847 q 222 819 216 819 l 231 825 l 228 840 l 228 849 q 231 852 228 852 q 228 855 231 855 q 231 996 231 949 l 231 1100 q 222 1109 231 1104 l 219 1109 q 210 1091 210 1106 m 640 1091 l 640 924 q 643 852 640 895 q 640 840 640 847 q 652 819 645 819 l 661 825 l 658 840 l 658 849 q 661 852 658 852 q 658 855 661 855 q 661 996 661 949 l 661 1100 q 652 1109 661 1104 l 649 1109 q 640 1091 640 1106 m 103 1106 l 103 978 q 123 1017 123 978 l 123 1082 q 109 1106 123 1099 l 103 1106 m 532 1106 l 532 978 q 553 1017 553 978 l 553 1082 q 538 1106 553 1099 l 532 1106 m 419 1100 l 419 978 q 437 996 437 978 l 437 1091 q 428 1100 437 1095 l 419 1100 m 136 1085 l 136 1031 l 138 1031 l 138 1061 l 144 1061 l 144 1049 l 148 1049 l 148 1070 l 142 1067 l 138 1073 l 138 1076 l 142 1082 l 136 1085 m 566 1085 l 566 1031 l 568 1031 l 568 1061 l 574 1061 l 574 1049 l 577 1049 l 577 1070 l 572 1067 l 568 1073 l 568 1076 l 572 1082 l 566 1085 m 789 1082 l 789 1076 l 792 1076 l 792 1082 l 789 1082 m 302 1076 l 302 1070 l 306 1070 l 306 1076 l 302 1076 m 449 1073 q 446 1053 449 1056 l 446 1043 l 443 1043 l 443 1031 l 446 1031 q 452 1038 446 1038 l 452 1073 l 449 1073 m 458 1073 l 458 1010 l 461 1010 l 461 1043 l 464 1043 q 461 1073 461 1044 l 458 1073 m 85 1070 l 85 1064 l 88 1064 l 88 1070 l 85 1070 m 515 1070 l 515 1064 l 517 1064 l 517 1070 l 515 1070 m 195 1061 l 195 1055 l 198 1055 l 198 1061 l 195 1061 m 625 1061 l 625 1055 l 628 1055 l 628 1061 l 625 1061 m 786 1061 l 786 1058 q 789 989 786 1044 l 792 989 l 792 1061 l 786 1061 m 144 1043 l 144 1034 l 148 1034 l 148 1043 l 144 1043 m 574 1043 l 574 1034 l 577 1034 l 577 1043 l 574 1043 m 747 1043 l 747 1038 l 751 1038 l 751 1043 l 747 1043 m 407 1034 l 407 1023 l 401 1023 l 401 1031 l 395 1031 l 395 989 q 392 957 395 977 q 398 936 398 948 l 401 936 l 401 942 l 407 942 l 407 924 l 410 924 l 410 993 l 407 993 l 407 981 l 401 981 l 401 1010 l 407 1010 l 407 1008 q 404 1004 407 1004 q 407 996 407 999 l 410 996 l 410 1034 l 407 1034 m 449 1034 l 449 1028 l 452 1028 l 452 1034 l 449 1034 m 88 1034 l 94 1034 l 94 1031 q 79 1023 94 1023 l 79 1017 l 85 1008 q 82 1004 82 1008 q 73 1008 76 1008 l 73 1025 q 79 1031 79 1025 l 82 1031 l 88 1028 l 88 1034 m 237 1023 l 237 939 l 243 939 l 243 960 l 249 960 l 249 966 l 243 966 l 243 987 l 249 987 l 249 993 l 243 993 l 243 1008 l 249 1008 l 249 1031 q 237 1023 237 1027 m 517 1034 l 524 1034 l 524 1031 q 509 1023 524 1023 l 509 1017 l 515 1008 q 512 1004 512 1008 q 503 1008 506 1008 l 503 1025 q 509 1031 509 1025 l 512 1031 l 517 1028 l 517 1034 m 667 1023 l 667 939 l 673 939 l 673 960 l 679 960 l 679 966 l 673 966 l 673 987 l 679 987 l 679 993 l 673 993 l 673 1008 l 679 1008 l 679 1031 q 667 1023 667 1027 m 136 1028 l 136 1023 l 138 1023 l 138 1028 l 136 1028 m 144 1028 l 144 1023 l 148 1023 l 148 1028 l 144 1028 m 566 1028 l 566 1023 l 568 1023 l 568 1028 l 566 1028 m 574 1028 l 574 1023 l 577 1023 l 577 1028 l 574 1028 m 186 1023 l 186 1013 l 189 1013 l 189 1023 l 186 1023 m 616 1023 l 616 1013 l 619 1013 l 619 1023 l 616 1023 m 136 1019 l 136 1013 l 138 1013 l 138 1019 l 136 1019 m 342 1019 q 338 998 342 1002 q 342 987 342 994 l 338 981 q 342 960 342 977 l 345 960 l 347 975 l 347 981 q 345 993 347 987 q 347 1004 347 998 l 345 1019 l 342 1019 m 566 1019 l 566 1013 l 568 1013 l 568 1019 l 566 1019 m 724 1019 l 724 1017 q 726 993 724 1004 q 724 968 724 981 l 730 968 l 732 996 q 730 1004 732 999 q 732 1017 732 1010 l 732 1019 l 724 1019 m 302 1017 q 300 966 302 966 l 297 966 l 297 963 q 302 954 297 961 l 302 948 q 288 918 293 918 l 288 903 l 291 903 l 291 912 l 297 912 l 302 897 l 309 897 l 306 903 l 306 915 l 309 921 q 300 924 303 924 l 300 930 l 309 930 q 306 948 309 932 q 309 968 306 957 q 306 1017 306 985 l 302 1017 m 195 1013 l 195 1004 l 193 1004 l 186 1008 l 186 939 l 193 942 l 195 942 l 195 939 q 189 933 195 933 q 186 936 189 936 l 186 906 l 193 909 l 195 909 l 195 894 l 198 894 q 204 915 198 908 l 204 921 l 198 930 l 198 933 l 204 942 l 204 954 q 198 968 198 961 l 193 966 l 189 972 l 189 983 l 195 983 l 195 978 l 198 978 l 198 1013 l 195 1013 m 625 1013 l 625 1004 l 622 1004 l 616 1008 l 616 939 l 622 942 l 625 942 l 625 939 q 619 933 625 933 q 616 936 619 936 l 616 906 l 622 909 l 625 909 l 625 894 l 628 894 q 634 915 628 908 l 634 921 q 628 930 628 928 l 628 933 l 634 942 l 634 954 q 628 968 628 961 l 622 966 l 619 972 l 619 983 l 625 983 l 625 978 l 628 978 l 628 1013 l 625 1013 m 288 998 q 297 989 288 994 l 297 1002 q 288 998 291 998 m 751 1002 l 751 993 l 753 993 l 753 1002 l 751 1002 m 73 1002 l 79 1002 l 79 993 l 73 993 l 73 1002 m 503 1002 l 509 1002 l 509 993 l 503 993 l 503 1002 m 94 993 l 94 987 l 97 987 l 97 993 l 94 993 m 524 993 l 524 987 l 527 987 l 527 993 l 524 993 m 85 983 l 85 968 l 88 968 l 88 983 l 85 983 m 515 983 l 515 968 l 517 968 l 517 983 l 515 983 m 789 983 l 789 978 l 792 978 l 792 983 l 789 983 m 94 981 l 94 960 l 97 960 l 97 981 l 94 981 m 524 981 l 524 960 l 527 960 l 527 981 l 524 981 m 288 978 l 288 945 l 291 945 l 291 978 l 288 978 m 756 972 l 756 960 l 760 960 l 760 972 l 756 972 m 766 968 q 756 945 766 959 l 762 945 l 768 966 l 768 968 l 766 968 m 85 963 l 85 945 l 91 948 l 94 948 l 94 921 l 97 921 l 97 954 l 91 951 q 88 963 88 956 l 85 963 m 401 966 l 407 966 l 407 951 l 401 951 l 401 966 m 515 963 l 515 945 l 521 948 l 524 948 l 524 921 l 527 921 l 527 954 l 521 951 q 517 963 517 956 l 515 963 m 103 954 l 103 819 l 112 819 q 123 855 123 819 l 123 933 q 109 960 118 960 q 103 954 103 959 m 532 954 l 532 819 l 542 819 q 553 855 553 819 l 553 933 q 538 960 547 960 q 532 954 532 959 m 189 957 l 195 957 l 195 951 l 189 951 l 189 957 m 619 957 l 625 957 l 625 951 l 619 951 l 619 957 m 246 939 l 246 933 l 249 933 l 249 939 l 246 939 m 676 939 l 676 933 l 679 933 l 679 939 l 676 939 m 760 936 l 762 930 l 762 924 l 760 918 q 766 909 766 918 l 768 909 l 768 912 l 766 927 l 768 927 l 774 924 l 774 936 q 768 939 768 936 q 760 936 762 936 m 85 936 l 85 927 l 88 927 l 88 936 l 85 936 m 515 936 l 515 927 l 517 927 l 517 936 l 515 936 m 237 933 l 237 921 l 240 921 q 243 933 243 931 l 237 933 m 667 933 l 667 921 l 670 921 q 673 933 673 931 l 667 933 m 398 924 l 398 918 l 401 918 l 401 924 l 398 924 m 94 918 l 94 912 l 97 912 l 97 918 l 94 918 m 407 918 l 407 912 l 410 912 l 410 918 l 407 918 m 524 918 l 524 912 l 527 912 l 527 918 l 524 918 m 774 918 q 768 891 774 911 q 771 870 771 879 l 774 870 q 781 888 774 881 q 771 894 771 888 l 771 897 l 781 897 q 777 918 777 909 l 774 918 m 237 915 l 237 909 q 243 915 243 909 l 237 915 m 458 915 l 458 849 l 461 849 q 464 879 461 878 q 461 915 461 888 l 458 915 m 667 915 l 667 909 q 673 915 673 909 l 667 915 m 449 909 q 443 894 449 894 l 443 888 l 449 888 l 449 885 l 443 885 l 443 870 q 452 873 449 873 l 452 909 l 449 909 m 138 906 l 136 894 l 136 888 l 138 888 l 142 903 l 142 906 l 138 906 m 568 906 l 566 894 l 566 888 l 568 888 l 572 903 l 572 906 l 568 906 m 138 885 q 136 873 138 878 l 142 873 l 142 885 l 138 885 m 568 885 q 566 873 568 878 l 572 873 l 572 885 l 568 885 m 781 882 l 781 873 l 783 873 l 783 882 l 781 882 m 186 873 l 186 867 l 189 867 l 189 873 l 186 873 m 616 873 l 616 867 l 619 867 l 619 873 l 616 873 m 130 864 l 130 861 q 133 859 130 859 l 130 852 l 130 849 q 142 844 134 849 l 142 861 l 138 867 q 130 864 133 864 m 559 864 l 559 861 q 562 859 559 859 l 559 852 l 559 849 q 572 844 564 849 l 572 861 l 568 867 q 559 864 563 864 m 240 855 l 240 849 l 243 849 l 243 855 l 240 855 m 670 855 l 670 849 l 673 849 l 673 855 l 670 855 m 138 840 l 138 834 l 142 834 l 142 840 l 138 840 m 568 840 l 568 834 l 572 834 l 572 840 l 568 840 m 53 744 l 98 744 q 104 738 104 743 l 104 725 l 92 712 l 92 705 q 104 534 104 557 l 108 534 q 111 543 108 537 l 108 566 q 117 731 117 653 q 127 744 122 744 l 157 744 q 176 536 167 744 l 179 536 l 192 718 q 182 725 182 718 l 182 738 q 189 744 183 744 q 279 741 254 741 l 279 738 l 286 741 l 328 741 q 335 734 335 740 l 335 728 l 325 715 l 325 407 q 335 400 335 407 l 335 394 q 328 387 335 387 l 286 387 q 283 391 283 387 l 277 387 l 231 387 q 224 394 224 387 l 224 400 l 237 414 l 237 488 l 234 507 q 237 511 234 511 q 234 576 234 555 l 234 667 q 237 680 234 673 q 234 683 237 683 l 237 699 l 237 705 l 234 722 q 212 673 212 722 q 199 540 212 631 l 202 534 q 182 387 189 387 l 159 387 q 150 400 151 387 q 140 589 140 570 l 137 589 q 127 507 130 555 q 130 498 130 501 q 121 391 121 445 l 114 387 l 92 387 q 59 715 79 387 q 46 728 54 715 l 46 738 q 53 744 47 744 m 354 744 l 396 744 q 403 738 403 743 l 403 728 l 396 718 l 396 407 l 403 397 l 403 394 q 396 387 403 387 l 354 387 q 348 394 348 387 l 348 400 q 357 407 348 407 l 357 718 l 348 731 l 348 738 q 354 744 349 744 m 448 744 q 494 731 494 736 l 494 624 q 487 618 494 618 l 474 618 q 468 624 468 618 l 468 718 l 461 718 q 452 699 452 715 l 452 676 q 497 511 452 624 q 500 446 500 467 q 468 378 500 378 q 422 391 422 386 l 422 514 q 429 520 423 520 l 435 520 q 441 514 441 519 l 441 472 l 432 472 l 432 478 l 429 478 l 429 449 l 435 452 l 439 452 l 441 436 l 441 414 q 452 404 441 409 l 455 404 q 465 423 465 407 l 465 452 q 419 618 465 519 q 416 669 416 651 l 416 673 q 419 676 416 676 l 416 683 l 416 686 q 439 744 416 732 l 448 744 m 523 744 q 526 741 526 744 l 532 744 l 562 744 q 568 738 568 743 l 568 728 l 562 718 l 562 602 l 565 602 l 581 722 q 572 731 576 722 l 572 734 q 581 744 572 739 l 610 744 q 617 738 617 743 l 617 728 q 604 709 604 713 q 607 699 607 703 q 591 637 602 699 q 594 634 591 634 q 588 592 591 599 q 623 404 617 408 l 623 394 q 617 387 623 387 l 581 387 q 575 394 575 387 l 575 404 q 581 410 576 410 l 565 527 l 562 527 l 562 410 l 568 400 l 568 394 q 562 387 568 387 l 523 387 q 516 394 516 387 l 516 400 l 526 414 l 526 722 q 516 728 516 722 l 516 738 q 523 744 517 744 m 640 744 l 708 744 q 721 741 715 744 q 734 744 726 744 l 769 744 q 776 738 776 743 l 776 728 l 766 715 q 776 602 766 671 l 779 602 q 783 618 779 612 l 779 624 q 785 644 779 630 q 783 654 785 647 l 789 722 q 779 728 779 722 l 779 738 q 785 744 780 744 l 821 744 q 828 738 828 743 l 828 731 q 789 501 806 731 l 789 416 q 802 400 802 402 l 802 394 q 795 387 802 387 l 753 387 q 747 394 747 387 l 747 404 l 753 414 q 756 514 756 498 q 730 722 756 577 l 721 722 l 721 709 l 718 692 l 705 709 l 705 676 l 708 676 q 714 686 708 686 q 721 680 721 685 l 721 634 q 714 627 721 627 l 705 627 q 698 634 698 627 l 698 722 l 682 722 q 675 715 675 720 l 675 592 q 708 582 675 585 l 708 572 q 675 563 708 566 l 675 414 q 682 407 676 407 l 698 407 l 698 514 q 705 520 699 520 l 714 520 q 721 514 721 519 l 721 481 q 718 443 721 459 q 721 404 721 426 l 721 394 q 714 387 721 387 l 640 387 q 633 394 633 387 l 633 400 l 643 414 l 643 715 l 633 728 l 633 738 q 640 744 634 744 m 279 728 q 270 702 270 716 q 273 631 270 688 l 270 631 q 273 627 270 627 l 270 605 l 270 592 q 277 585 271 585 l 290 585 l 290 589 q 292 705 290 615 q 279 728 288 728 m 536 686 l 536 667 l 539 667 l 539 686 l 536 686 m 585 686 l 585 676 l 591 676 l 591 680 q 585 686 591 686 m 656 686 l 656 676 l 659 676 l 659 686 l 656 686 m 250 683 l 250 673 l 254 673 l 254 683 l 250 683 m 477 680 l 477 667 l 481 667 q 484 676 481 670 l 477 680 m 795 680 l 795 669 l 802 669 q 799 680 799 676 l 795 680 m 153 676 l 153 667 l 157 667 l 157 676 l 153 676 m 665 673 l 665 660 l 669 660 l 669 673 l 665 673 m 585 667 l 581 660 q 585 650 585 654 q 578 644 578 649 l 578 634 l 581 634 l 591 663 l 585 667 m 789 667 l 789 654 q 795 647 790 647 q 802 660 795 652 l 789 667 m 130 663 l 130 656 l 134 656 l 134 663 l 130 663 m 195 663 q 192 640 195 653 l 199 640 l 199 637 l 192 637 l 192 618 l 195 602 l 199 602 q 202 608 199 608 q 199 611 202 611 l 202 644 q 199 663 199 661 l 195 663 m 656 663 q 652 644 656 648 l 659 644 l 659 663 l 656 663 m 705 663 l 705 656 l 708 656 l 708 663 l 705 663 m 143 660 l 143 654 l 146 654 l 146 660 l 143 660 m 536 660 l 536 637 l 539 637 l 539 660 l 536 660 m 244 654 q 241 640 244 652 l 244 621 q 241 589 241 604 l 241 582 q 250 576 241 576 l 250 553 l 244 553 l 244 547 q 254 543 248 547 l 254 585 l 248 582 l 244 589 q 254 595 244 595 l 254 634 l 248 634 l 248 637 l 254 637 l 254 654 l 244 654 m 426 650 l 426 644 l 429 644 l 429 650 l 426 650 m 72 647 l 72 637 l 75 637 l 75 647 l 72 647 m 299 644 q 296 624 299 624 l 299 618 l 299 611 q 296 608 299 608 q 299 592 299 603 l 306 595 l 309 595 q 312 585 309 591 q 302 579 304 579 q 299 582 302 582 l 296 566 l 296 559 q 319 592 319 576 q 309 595 312 595 l 309 605 l 319 618 l 319 621 q 302 644 306 621 l 299 644 m 545 644 l 545 627 l 552 627 l 552 621 l 545 621 l 545 595 l 549 595 q 555 627 549 605 l 552 627 l 555 634 l 555 644 l 545 644 m 257 637 l 257 631 l 260 631 l 260 637 l 257 637 m 665 637 q 659 627 665 627 q 656 631 659 631 q 652 602 656 619 q 656 598 656 602 l 663 602 l 665 602 l 665 595 l 669 595 l 669 637 l 665 637 m 121 624 l 121 611 l 127 614 q 130 611 127 611 l 130 634 q 121 624 125 634 m 315 631 l 315 624 l 319 624 l 319 631 l 315 631 m 536 627 l 536 534 l 539 534 l 539 627 l 536 627 m 302 621 l 309 621 l 309 614 l 302 614 l 302 621 m 146 614 l 146 605 l 150 605 l 150 614 l 146 614 m 439 611 q 435 598 439 604 q 445 585 440 585 l 455 585 l 455 589 q 441 611 441 589 l 439 611 m 121 605 l 117 589 l 124 585 l 127 585 l 130 605 l 121 605 m 195 598 l 195 589 l 199 589 l 199 598 l 195 598 m 367 598 q 364 543 367 581 l 367 527 l 374 530 q 380 524 375 524 l 383 524 l 383 527 q 374 536 383 532 l 377 543 l 377 556 l 370 556 l 370 566 l 377 566 l 377 598 l 370 595 q 367 598 370 598 m 159 595 l 159 589 l 163 589 l 163 595 l 159 595 m 766 595 l 766 582 l 769 582 l 769 595 l 766 595 m 656 592 l 656 534 l 659 534 l 659 553 l 665 553 l 665 536 l 669 536 l 669 559 q 659 563 663 563 l 659 579 l 665 579 l 665 566 l 669 566 l 669 589 l 663 585 l 659 585 l 659 592 l 656 592 m 150 585 l 150 566 q 157 559 151 559 l 159 559 l 159 566 q 153 585 153 573 l 150 585 m 159 585 l 159 576 l 163 576 l 163 585 l 159 585 m 189 585 l 189 576 l 192 576 l 192 585 l 189 585 m 458 585 l 458 579 l 465 579 q 458 585 465 585 m 545 585 l 545 579 l 549 579 l 549 585 l 545 585 m 82 582 l 82 563 q 88 549 88 563 l 92 549 l 92 569 q 85 582 85 569 l 82 582 m 552 582 l 552 566 l 555 566 l 555 582 l 552 582 m 445 579 q 471 549 445 563 l 468 543 q 471 540 471 543 l 468 540 l 471 534 l 465 524 l 465 520 q 471 514 465 514 l 468 507 q 477 498 468 503 q 481 501 477 501 q 484 498 481 498 l 481 491 l 481 481 l 484 481 l 487 501 q 477 527 487 512 l 471 524 l 468 524 q 481 534 468 532 q 468 576 468 562 l 461 576 q 455 566 461 566 l 452 566 l 452 579 l 445 579 m 760 579 l 760 566 l 766 569 l 769 569 l 769 559 l 763 549 l 763 517 l 766 517 l 766 527 l 772 527 l 772 494 l 766 494 l 766 488 l 772 488 l 772 465 q 783 462 776 465 l 783 475 q 776 481 783 481 l 779 520 l 779 547 q 769 540 771 540 l 769 543 q 772 569 772 561 q 766 579 766 569 l 760 579 m 192 572 l 192 563 l 195 563 l 195 572 l 192 572 m 117 566 l 117 563 l 124 563 l 124 566 l 117 566 m 315 566 l 315 559 l 319 559 l 319 566 l 315 566 m 163 563 l 163 547 l 166 547 l 166 563 l 163 563 m 273 563 l 267 423 q 283 400 274 400 l 290 410 l 290 563 l 273 563 m 545 559 l 545 553 l 549 553 l 549 559 l 545 559 m 299 556 l 299 549 l 302 549 l 302 556 l 299 556 m 306 549 l 315 549 l 315 556 l 312 556 q 306 549 306 555 m 455 553 l 455 549 q 458 540 458 543 l 461 540 l 461 543 q 458 553 458 549 l 455 553 m 82 549 l 82 514 l 95 501 l 95 498 l 88 498 l 88 485 l 85 469 l 92 465 l 88 459 q 92 449 92 452 l 95 449 l 95 465 l 101 465 l 101 459 l 104 459 l 104 472 q 98 478 104 478 l 101 501 l 101 511 q 95 520 95 511 l 88 517 l 85 524 l 85 527 l 88 527 q 98 524 94 524 l 98 543 l 95 543 l 95 536 l 88 536 q 82 549 88 549 m 150 543 q 157 524 152 524 l 153 517 l 153 514 l 159 505 l 157 475 l 159 475 l 157 469 l 157 465 q 163 459 163 465 l 166 459 q 173 465 166 465 l 173 472 l 166 472 l 170 494 l 170 501 l 159 520 l 170 520 q 166 543 166 533 l 163 543 l 163 536 l 157 536 l 157 549 q 150 543 150 549 m 309 543 l 309 536 l 315 536 l 315 543 l 309 543 m 250 536 l 250 527 l 254 527 l 254 536 l 250 536 m 545 534 l 545 527 l 549 527 l 549 534 l 545 534 m 367 520 l 364 498 q 367 488 367 492 q 364 485 364 488 l 370 481 q 383 514 370 488 l 374 520 q 370 517 374 517 q 367 520 370 520 m 665 520 l 665 507 l 669 507 l 669 520 l 665 520 m 250 517 l 250 511 l 254 511 l 254 517 l 250 517 m 578 501 l 578 494 q 588 465 581 465 l 585 449 l 585 446 l 591 449 q 594 446 591 446 q 597 449 594 449 q 604 443 598 443 q 597 491 597 484 l 594 491 l 594 485 l 588 485 l 588 488 l 591 494 l 591 498 l 588 498 l 588 491 q 581 501 581 491 l 578 501 m 763 469 l 763 462 l 766 462 l 766 469 l 763 469 m 705 462 l 705 439 q 711 433 705 433 l 711 456 q 705 462 711 462 m 772 452 l 772 446 l 776 446 l 776 452 l 772 452 m 772 443 l 772 427 l 776 427 l 776 443 l 772 443 m 98 436 l 98 430 l 101 430 l 101 436 l 98 436 m 429 427 l 429 420 l 432 420 l 432 427 l 429 427 m 190 306 q 227 275 227 300 l 227 166 l 220 166 l 220 141 l 227 141 l 227 85 q 229 49 227 67 q 190 -7 229 -7 q 148 49 148 -7 l 151 77 l 151 267 q 190 306 151 306 m 66 303 l 131 303 q 136 298 136 302 l 136 273 q 134 270 136 270 l 136 264 l 136 258 q 134 245 136 249 l 136 228 l 136 205 q 131 200 136 200 l 120 200 q 114 205 114 200 l 114 286 l 103 286 q 98 281 98 286 l 98 169 q 125 161 98 163 l 125 152 q 98 144 125 146 l 98 18 l 109 4 l 109 1 q 103 -5 109 -5 l 66 -5 q 61 1 61 -5 l 61 7 q 69 15 61 11 l 66 29 q 69 35 66 35 l 66 49 l 66 197 q 69 200 66 200 l 66 205 l 66 208 l 69 225 q 66 233 66 231 l 69 233 l 66 239 l 66 253 q 69 256 66 256 l 66 261 l 66 267 q 69 278 66 273 l 61 292 l 61 298 q 66 303 62 303 m 391 303 l 425 303 q 431 298 431 302 l 431 205 q 425 200 431 200 l 416 200 q 411 205 411 200 l 411 283 q 406 290 411 290 l 399 290 l 399 15 l 408 4 q 399 -5 408 0 l 366 -5 q 361 1 361 -5 l 361 7 l 369 18 l 369 290 l 363 290 q 358 283 358 288 l 358 205 q 352 200 358 200 l 344 200 q 338 205 338 200 l 338 286 q 327 267 327 282 l 327 18 l 330 -2 l 324 -5 l 310 -5 q 277 161 303 -5 l 274 161 l 274 60 q 271 35 274 50 q 279 7 275 13 l 279 1 q 274 -5 279 -5 l 245 -5 q 240 1 240 -5 l 240 7 l 249 18 l 249 283 q 240 290 240 283 l 240 295 q 245 300 241 300 l 277 300 q 302 166 285 300 l 304 166 l 304 281 l 299 290 l 299 295 l 302 300 q 391 303 362 303 m 534 303 l 568 303 q 573 298 573 302 l 573 290 q 565 253 568 286 q 573 222 573 253 l 579 222 q 587 258 581 252 l 587 283 q 579 290 579 283 l 579 298 q 585 303 580 303 l 615 303 q 621 298 621 302 l 621 290 q 590 163 604 290 q 587 161 587 163 q 618 12 609 16 q 621 9 621 12 l 621 1 q 615 -5 621 -5 l 579 -5 q 573 1 573 -5 l 573 9 q 579 20 579 16 q 568 85 579 48 l 565 85 q 559 15 559 39 q 565 9 565 14 l 565 1 q 559 -5 565 -5 l 531 -5 q 526 1 526 -5 l 526 9 q 543 54 535 19 l 540 60 q 559 158 545 76 q 551 203 555 163 q 553 205 553 203 q 540 278 547 205 q 528 290 535 278 l 528 298 q 534 303 530 303 m 632 303 l 666 303 q 671 298 671 302 l 671 290 q 663 253 667 286 q 671 222 671 253 l 677 222 q 685 258 679 252 l 685 283 q 677 290 677 283 l 677 298 q 682 303 677 303 l 713 303 q 719 298 719 302 l 719 290 q 688 163 703 290 q 685 161 685 163 q 716 12 707 16 q 719 9 719 12 l 719 1 q 713 -5 719 -5 l 677 -5 q 671 1 671 -5 l 671 9 q 677 20 677 16 q 666 85 677 48 l 663 85 q 657 15 657 39 q 663 9 663 14 l 663 1 q 657 -5 663 -5 l 629 -5 q 624 1 624 -5 l 624 9 q 640 54 633 19 l 637 60 q 657 158 644 76 q 649 203 652 163 q 652 205 652 203 q 637 278 646 205 q 627 290 633 278 l 627 298 q 632 303 627 303 m 730 303 l 764 303 q 769 298 769 302 l 769 290 q 761 253 764 286 q 769 222 769 253 l 775 222 q 783 258 777 252 l 783 283 q 775 290 775 283 l 775 298 q 781 303 776 303 l 811 303 q 817 298 817 302 l 817 290 q 786 163 800 290 q 783 161 783 163 q 814 12 805 16 q 817 9 817 12 l 817 1 q 811 -5 817 -5 l 775 -5 q 769 1 769 -5 l 769 9 q 775 20 775 16 q 764 85 775 48 l 761 85 q 755 15 755 39 q 761 9 761 14 l 761 1 q 755 -5 761 -5 l 727 -5 q 722 1 722 -5 l 722 9 q 739 54 731 19 l 736 60 q 755 158 741 76 q 747 203 751 163 q 749 205 749 203 q 736 278 743 205 q 724 290 731 278 l 724 298 q 730 303 726 303 m 178 270 l 178 113 q 181 46 178 85 q 178 35 178 41 q 190 15 184 15 l 198 20 l 195 35 l 195 43 q 198 46 195 46 q 195 49 198 49 q 198 180 198 137 l 198 278 q 190 286 198 282 l 187 286 q 178 270 178 283 m 319 261 l 319 256 l 321 256 l 321 261 l 319 261 m 593 261 l 593 253 q 599 258 599 253 l 593 261 m 691 261 l 691 253 q 696 258 696 253 l 691 261 m 789 261 l 789 253 q 794 258 794 253 l 789 261 m 123 253 l 123 233 l 128 233 l 128 248 q 123 253 128 253 m 587 248 q 590 236 590 242 l 595 236 l 595 250 q 587 248 590 248 m 685 248 q 688 236 688 242 l 694 236 l 694 250 q 685 248 688 248 m 783 248 q 786 236 786 242 l 791 236 l 791 250 q 783 248 786 248 m 165 241 l 165 236 l 168 236 l 168 241 l 165 241 m 316 241 l 316 239 q 319 174 316 226 l 321 174 l 321 241 l 316 241 m 565 228 l 565 216 q 559 225 559 216 q 553 219 553 224 l 553 211 l 568 216 l 568 205 l 565 205 l 559 208 l 557 203 l 565 191 q 559 186 559 191 l 559 178 l 565 180 l 570 178 q 576 200 576 195 l 576 203 l 573 203 l 573 197 l 568 197 l 568 203 l 573 211 l 573 219 l 568 216 l 568 228 l 565 228 m 663 228 l 663 216 q 657 225 657 216 q 652 219 652 224 l 652 211 l 666 216 l 666 205 l 663 205 l 657 208 l 654 203 l 663 191 q 657 186 657 191 l 657 178 l 663 180 l 669 178 q 674 200 674 195 l 674 203 l 671 203 l 671 197 l 666 197 l 666 203 l 671 211 l 671 219 l 666 216 l 666 228 l 663 228 m 761 228 l 761 216 q 755 225 755 216 q 749 219 749 224 l 749 211 l 764 216 l 764 205 l 761 205 l 755 208 l 753 203 l 761 191 q 755 186 755 191 l 755 178 l 761 180 l 766 178 q 772 200 772 195 l 772 203 l 769 203 l 769 197 l 764 197 l 764 203 l 769 211 l 769 219 l 764 216 l 764 228 l 761 228 m 279 225 l 279 219 l 282 219 l 282 225 l 279 225 m 204 205 l 204 127 l 210 127 l 210 146 l 215 146 l 215 152 l 210 152 l 210 172 l 215 172 l 215 178 l 210 178 l 210 191 l 215 191 l 215 214 q 204 205 204 210 m 156 205 l 156 197 l 159 197 l 159 205 l 156 205 m 257 203 l 257 200 q 260 178 257 189 q 257 155 257 167 l 262 155 l 265 180 q 262 189 265 183 q 265 200 265 193 l 265 203 l 257 203 m 165 197 l 165 189 l 162 189 l 156 191 l 156 127 l 162 130 l 165 130 l 165 127 q 159 121 165 121 q 156 124 159 124 l 156 96 l 162 99 l 165 99 l 165 85 l 168 85 q 173 104 168 98 l 173 110 l 168 119 l 168 121 l 173 130 l 173 141 q 168 155 168 148 l 162 152 l 159 158 l 159 169 l 165 169 l 165 163 l 168 163 l 168 197 l 165 197 m 78 194 l 78 186 l 81 186 l 81 194 l 78 194 m 377 194 l 377 189 q 383 194 383 189 l 377 194 m 86 186 l 86 174 l 89 174 l 89 186 l 86 186 m 282 186 l 282 178 l 285 178 l 285 186 l 282 186 m 78 183 l 78 116 l 81 116 l 81 132 l 86 132 l 86 113 l 78 113 l 78 82 l 81 82 l 81 87 l 86 87 l 86 79 l 89 79 q 92 99 89 88 l 89 104 q 92 107 89 107 l 89 121 l 89 124 q 92 146 89 136 q 89 172 89 157 l 86 172 l 86 144 l 81 144 l 81 183 l 78 183 m 389 174 l 389 163 l 383 163 l 383 172 q 377 166 377 171 l 377 121 l 383 113 l 377 104 l 377 85 l 383 87 q 389 77 389 87 l 391 77 l 391 146 q 394 149 391 149 q 391 174 391 151 l 389 174 m 562 172 l 562 166 l 565 166 l 565 172 l 562 172 m 660 172 l 660 166 l 663 166 l 663 172 l 660 172 m 758 172 l 758 166 l 761 166 l 761 172 l 758 172 m 319 169 l 319 163 l 321 163 l 321 169 l 319 169 m 570 169 l 570 155 l 573 155 l 573 169 l 570 169 m 669 169 l 669 155 l 671 155 l 671 169 l 669 169 m 766 169 l 766 155 l 769 155 l 769 169 l 766 169 m 579 163 l 579 152 l 582 152 l 582 163 l 579 163 m 677 163 l 677 152 l 680 152 l 680 163 l 677 163 m 775 163 l 775 152 l 778 152 l 778 163 l 775 163 m 288 158 l 288 146 l 290 146 l 290 158 l 288 158 m 296 155 q 288 132 296 146 l 294 132 l 299 152 l 299 155 l 296 155 m 383 155 l 389 155 l 389 152 q 383 146 389 146 l 383 155 m 565 149 l 565 144 l 568 144 l 568 149 l 565 149 m 663 149 l 663 144 l 666 144 l 666 149 l 663 149 m 761 149 l 761 144 l 764 144 l 764 149 l 761 149 m 573 146 l 570 132 l 579 138 q 582 136 579 136 l 582 138 q 573 146 582 142 m 671 146 l 669 132 q 677 138 670 132 q 680 136 677 136 l 680 138 q 671 146 680 142 m 769 146 l 766 132 l 775 138 q 778 136 775 136 l 778 138 q 769 146 778 142 m 159 144 l 165 144 l 165 138 l 159 138 l 159 144 m 212 127 l 212 121 l 215 121 l 215 127 l 212 127 m 290 124 l 294 119 l 294 113 l 290 107 q 296 99 296 107 l 299 99 l 299 102 l 296 116 l 299 116 l 304 113 l 304 124 q 299 127 299 124 q 290 124 294 124 m 383 130 l 389 130 l 389 124 l 383 124 l 383 130 m 582 124 l 582 119 l 585 119 l 585 124 l 582 124 m 680 124 l 680 119 l 682 119 l 682 124 l 680 124 m 778 124 l 778 119 l 781 119 l 781 124 l 778 124 m 204 121 l 204 110 l 207 110 q 210 121 210 120 l 204 121 m 587 113 q 585 104 587 110 l 585 102 l 587 102 q 590 110 587 104 l 590 113 l 587 113 m 685 113 q 682 104 685 110 l 682 102 l 685 102 q 688 110 685 104 l 688 113 l 685 113 m 783 113 q 781 104 783 110 l 781 102 l 783 102 q 786 110 783 104 l 786 113 l 783 113 m 304 107 q 299 82 304 100 q 302 62 302 71 l 304 62 q 310 79 304 73 q 302 85 302 79 l 302 87 l 310 87 q 307 107 307 99 l 304 107 m 204 104 l 204 99 q 210 104 210 99 l 204 104 m 81 104 l 86 104 l 86 99 l 81 99 l 81 104 m 551 85 l 553 71 q 548 62 548 71 q 551 54 551 57 l 553 54 q 559 68 553 61 q 557 79 557 73 q 562 85 562 79 q 559 87 559 85 q 551 85 554 85 m 649 85 l 652 71 q 646 62 646 71 q 649 54 649 57 l 652 54 q 657 68 652 61 q 654 79 654 73 q 660 85 660 79 q 657 87 657 85 q 649 85 652 85 m 747 85 l 749 71 q 744 62 744 71 q 747 54 747 57 l 749 54 q 755 68 749 61 q 753 79 753 73 q 758 85 758 79 q 755 87 755 85 q 747 85 750 85 m 310 74 l 310 65 l 313 65 l 313 74 l 310 74 m 156 65 l 156 60 l 159 60 l 159 65 l 156 65 m 207 49 l 207 43 l 210 43 l 210 49 l 207 49 m 166 -38 q 189 -57 189 -42 l 189 -124 l 185 -124 l 185 -140 l 189 -140 l 189 -174 q 191 -196 189 -185 q 166 -231 191 -231 q 140 -196 140 -231 l 142 -179 l 142 -62 q 166 -38 142 -38 m 223 -38 q 245 -57 245 -42 l 245 -124 l 242 -124 l 242 -140 l 245 -140 l 245 -174 q 247 -196 245 -185 q 223 -231 247 -231 q 197 -196 197 -231 l 199 -179 l 199 -62 q 223 -38 199 -38 m 333 -38 q 345 -41 336 -38 q 352 -40 348 -40 l 355 -40 q 359 -43 359 -41 l 359 -100 q 355 -104 359 -104 l 350 -104 q 347 -100 347 -104 l 347 -69 q 338 -50 347 -50 q 335 -54 338 -54 l 336 -71 l 336 -179 l 335 -189 q 336 -198 336 -192 l 336 -214 q 340 -217 337 -217 l 342 -217 q 347 -207 347 -215 l 345 -191 q 347 -186 345 -189 q 345 -170 345 -177 l 345 -165 q 350 -160 345 -163 l 355 -160 q 359 -163 359 -161 l 359 -191 q 350 -229 359 -229 q 332 -231 347 -229 q 317 -212 323 -231 l 317 -60 q 333 -38 320 -38 m 50 -40 l 74 -40 q 77 -43 77 -41 l 77 -50 l 70 -57 l 70 -60 q 77 -152 77 -140 l 79 -152 q 81 -146 79 -150 l 79 -134 q 84 -47 84 -88 q 89 -40 87 -40 l 104 -40 q 115 -150 110 -40 l 117 -150 l 123 -54 q 118 -50 118 -54 l 118 -43 q 121 -40 119 -40 l 139 -40 q 142 -43 142 -41 l 142 -50 q 130 -124 135 -50 q 127 -148 129 -124 l 129 -152 q 118 -229 122 -229 l 106 -229 q 101 -222 102 -229 q 96 -122 96 -132 l 94 -122 q 89 -165 91 -140 q 91 -170 91 -169 q 85 -227 85 -199 l 82 -229 l 70 -229 q 53 -56 64 -229 q 46 -49 50 -56 l 46 -43 q 50 -40 47 -40 m 258 -40 l 271 -40 q 307 -66 307 -40 l 307 -198 q 294 -229 307 -222 l 258 -229 q 254 -225 254 -229 l 254 -220 q 259 -217 254 -217 l 259 -54 l 254 -47 l 254 -43 q 258 -40 254 -40 m 371 -40 l 390 -40 q 397 -41 393 -40 q 404 -40 399 -40 l 416 -40 q 419 -43 419 -41 l 419 -47 q 414 -50 419 -50 l 414 -207 q 401 -229 414 -222 l 387 -229 q 371 -186 371 -223 l 371 -178 q 372 -170 371 -174 q 371 -169 372 -169 l 372 -148 l 372 -52 l 368 -45 l 368 -43 q 371 -40 368 -40 m 426 -40 l 532 -40 q 536 -43 536 -41 l 536 -100 q 532 -104 536 -104 l 527 -104 q 524 -100 524 -104 l 524 -52 q 520 -49 524 -49 l 517 -49 l 517 -217 l 522 -224 q 517 -229 522 -227 l 496 -229 q 493 -225 493 -229 l 493 -222 l 498 -215 l 498 -49 l 494 -49 q 491 -52 491 -49 l 491 -100 q 488 -104 491 -104 l 481 -104 q 479 -102 479 -104 l 475 -104 l 471 -104 q 467 -100 467 -104 l 467 -52 q 464 -49 467 -49 l 460 -49 l 460 -217 l 465 -224 q 460 -229 465 -227 l 439 -229 q 436 -225 436 -229 l 436 -222 l 441 -215 l 441 -49 l 438 -49 q 434 -52 434 -49 l 434 -100 q 431 -104 434 -104 l 426 -104 q 422 -100 422 -104 l 422 -43 q 426 -40 423 -40 m 543 -40 l 582 -40 q 585 -43 585 -41 l 585 -59 l 584 -67 l 577 -59 l 577 -76 l 578 -76 q 582 -71 578 -71 q 585 -75 585 -71 l 585 -98 q 582 -102 585 -102 l 577 -102 q 574 -98 574 -102 l 574 -52 l 565 -52 q 562 -56 562 -52 l 562 -121 q 578 -126 562 -124 l 578 -131 q 562 -136 578 -134 l 562 -215 q 565 -218 562 -218 l 574 -218 l 574 -162 q 577 -159 574 -159 l 582 -159 q 585 -162 585 -159 l 585 -179 q 584 -199 585 -191 q 585 -220 585 -209 l 585 -225 q 582 -229 585 -229 l 543 -229 q 539 -225 539 -229 l 539 -222 l 545 -215 l 545 -56 l 539 -49 l 539 -43 q 543 -40 540 -40 m 725 -40 l 764 -40 q 768 -43 768 -41 l 768 -59 l 766 -67 l 759 -59 l 759 -76 l 761 -76 q 764 -71 761 -71 q 768 -75 768 -71 l 768 -98 q 764 -102 768 -102 l 759 -102 q 755 -98 755 -102 l 755 -52 l 747 -52 q 743 -56 743 -52 l 743 -121 q 761 -126 743 -124 l 761 -131 q 743 -136 761 -134 l 743 -215 q 747 -218 744 -218 l 755 -218 l 755 -162 q 759 -159 756 -159 l 764 -159 q 768 -162 768 -159 l 768 -179 q 766 -199 768 -191 q 768 -220 768 -209 l 768 -225 q 764 -229 768 -229 l 725 -229 q 722 -225 722 -229 l 722 -222 l 726 -215 l 726 -56 l 722 -49 l 722 -43 q 725 -40 722 -40 m 793 -40 q 817 -47 817 -44 l 817 -104 q 814 -107 817 -107 l 807 -107 q 804 -104 804 -107 l 804 -54 l 800 -54 q 795 -64 795 -56 l 795 -76 q 819 -163 795 -104 q 821 -198 821 -186 q 804 -234 821 -234 q 780 -227 780 -230 l 780 -162 q 783 -159 780 -159 l 787 -159 q 790 -162 790 -159 l 790 -184 l 785 -184 l 785 -181 l 783 -181 l 783 -196 l 787 -195 l 788 -195 l 790 -203 l 790 -215 q 795 -220 790 -218 l 797 -220 q 802 -210 802 -218 l 802 -195 q 778 -107 802 -159 q 777 -79 777 -90 l 777 -78 q 778 -76 777 -76 l 777 -73 l 777 -71 q 788 -40 777 -46 l 793 -40 m 600 -41 l 629 -41 q 649 -73 649 -41 l 649 -111 q 639 -134 649 -123 q 649 -153 645 -134 l 649 -215 l 654 -222 l 654 -225 q 651 -229 654 -229 l 644 -229 q 630 -214 630 -229 l 630 -144 q 625 -140 630 -142 l 620 -140 l 620 -195 l 618 -205 q 620 -214 620 -208 l 620 -218 q 625 -222 625 -218 l 625 -225 q 622 -229 625 -229 l 600 -229 q 596 -225 596 -229 l 596 -222 q 601 -218 596 -218 l 601 -52 q 596 -49 596 -52 l 596 -45 q 600 -41 596 -41 m 395 -47 l 391 -52 l 391 -210 l 393 -218 l 397 -218 q 401 -208 401 -217 l 401 -54 q 395 -47 401 -51 m 159 -60 l 159 -157 q 161 -198 159 -174 q 159 -205 159 -201 q 166 -217 163 -217 l 172 -214 l 170 -205 l 170 -199 q 172 -198 170 -198 q 170 -196 172 -196 q 172 -115 172 -142 l 172 -56 q 166 -50 172 -53 l 165 -50 q 159 -60 159 -52 m 216 -60 l 216 -157 q 218 -198 216 -174 q 216 -205 216 -201 q 223 -217 219 -217 l 229 -214 l 227 -205 l 227 -199 q 229 -198 227 -198 q 227 -196 229 -196 q 229 -115 229 -142 l 229 -56 q 223 -50 229 -53 l 221 -50 q 216 -60 216 -52 m 278 -54 l 278 -217 l 283 -217 q 288 -207 288 -215 l 288 -57 q 281 -50 288 -54 q 278 -54 278 -51 m 620 -56 l 620 -126 q 630 -115 630 -126 l 630 -60 q 625 -56 630 -58 l 620 -56 m 350 -62 l 350 -75 l 355 -71 q 350 -62 353 -62 m 324 -69 l 324 -73 l 326 -73 l 326 -69 l 324 -69 m 385 -69 l 385 -73 l 387 -73 l 387 -69 l 385 -69 m 551 -71 l 551 -76 l 553 -76 l 553 -71 l 551 -71 m 637 -71 q 635 -83 637 -81 l 635 -88 l 633 -88 l 633 -95 l 635 -95 q 639 -92 635 -92 l 639 -71 l 637 -71 m 642 -71 l 642 -107 l 644 -107 l 644 -88 l 646 -88 q 644 -71 644 -87 l 642 -71 m 733 -71 l 733 -76 l 735 -76 l 735 -71 l 733 -71 m 809 -75 l 809 -81 l 810 -81 q 812 -76 810 -79 l 809 -75 m 103 -76 l 103 -81 l 104 -81 l 104 -76 l 103 -76 m 330 -76 q 324 -85 330 -85 l 324 -92 l 328 -90 l 328 -93 q 321 -96 328 -96 l 321 -98 l 324 -104 l 324 -115 l 330 -115 l 332 -107 l 332 -76 l 330 -76 m 151 -78 l 151 -81 l 153 -81 l 153 -78 l 151 -78 m 208 -78 l 208 -81 l 210 -81 l 210 -78 l 208 -78 m 556 -78 l 556 -85 l 558 -85 l 558 -78 l 556 -78 m 739 -78 l 739 -85 l 740 -85 l 740 -78 l 739 -78 m 271 -81 l 271 -85 l 273 -85 l 273 -81 l 271 -81 m 91 -83 l 91 -86 l 92 -86 l 92 -83 l 91 -83 m 125 -83 q 123 -95 125 -88 l 127 -95 l 127 -96 l 123 -96 l 123 -107 l 125 -115 l 127 -115 q 129 -112 127 -112 q 127 -111 129 -111 l 129 -93 q 127 -83 129 -92 l 125 -83 m 551 -83 q 549 -93 551 -91 l 553 -93 l 553 -83 l 551 -83 m 577 -83 l 577 -86 l 578 -86 l 578 -83 l 577 -83 m 733 -83 q 732 -93 733 -91 l 735 -93 l 735 -83 l 733 -83 m 759 -83 l 759 -86 l 761 -86 l 761 -83 l 759 -83 m 98 -85 l 98 -88 l 100 -88 l 100 -85 l 98 -85 m 781 -90 l 781 -93 l 783 -93 l 783 -90 l 781 -90 m 60 -92 l 60 -96 l 62 -96 l 62 -92 l 60 -92 m 297 -92 q 295 -107 297 -107 q 297 -119 297 -109 q 304 -100 304 -119 l 300 -102 l 298 -102 l 298 -92 l 297 -92 m 613 -93 l 613 -100 l 610 -100 l 610 -95 l 606 -95 l 606 -119 q 604 -138 606 -126 q 608 -150 608 -143 l 610 -150 l 610 -146 l 613 -146 l 613 -157 l 614 -157 l 614 -117 l 613 -117 l 613 -124 l 610 -124 l 610 -107 l 613 -107 l 613 -109 q 611 -111 613 -111 q 613 -115 613 -114 l 614 -115 l 614 -93 l 613 -93 m 637 -93 l 637 -96 l 639 -96 l 639 -93 l 637 -93 m 175 -100 l 175 -148 l 178 -148 l 178 -136 l 182 -136 l 182 -133 l 178 -133 l 178 -121 l 182 -121 l 182 -117 l 178 -117 l 178 -109 l 182 -109 l 182 -95 q 175 -100 175 -98 m 232 -100 l 232 -148 l 235 -148 l 235 -136 l 239 -136 l 239 -133 l 235 -133 l 235 -121 l 239 -121 l 239 -117 l 235 -117 l 235 -109 l 239 -109 l 239 -95 q 232 -100 232 -98 m 556 -96 q 553 -102 556 -102 q 551 -100 553 -100 q 549 -115 551 -106 q 551 -117 551 -115 l 555 -115 l 556 -115 l 556 -119 l 558 -119 l 558 -96 l 556 -96 m 739 -96 q 735 -102 739 -102 q 733 -100 735 -100 q 732 -115 733 -106 q 733 -117 733 -115 l 736 -115 l 739 -115 l 739 -119 l 740 -119 l 740 -96 l 739 -96 m 85 -104 l 85 -111 l 89 -109 q 91 -111 89 -111 l 91 -98 q 85 -104 88 -98 m 146 -100 l 146 -105 l 147 -105 l 147 -100 l 146 -100 m 203 -100 l 203 -105 l 204 -105 l 204 -100 l 203 -100 m 326 -100 l 330 -100 l 330 -102 l 326 -102 l 326 -100 m 407 -102 q 405 -114 407 -112 q 407 -121 407 -117 l 405 -124 q 407 -136 407 -126 l 408 -136 l 410 -127 l 410 -124 q 408 -117 410 -120 q 410 -111 410 -114 l 408 -102 l 407 -102 m 385 -104 q 383 -133 385 -133 l 381 -133 l 381 -134 l 385 -140 l 385 -143 q 376 -160 379 -160 l 376 -169 l 378 -169 l 378 -163 l 381 -163 l 385 -172 l 388 -172 l 387 -169 l 387 -162 l 388 -159 q 383 -157 385 -157 l 383 -153 l 388 -153 q 387 -143 388 -152 q 388 -131 387 -138 q 387 -104 387 -121 l 385 -104 m 151 -105 l 151 -111 l 149 -111 l 146 -109 l 146 -148 l 149 -146 l 151 -146 l 151 -148 q 147 -152 151 -152 q 146 -150 147 -150 l 146 -167 l 149 -165 l 151 -165 l 151 -174 l 153 -174 q 156 -162 153 -166 l 156 -159 l 153 -153 l 153 -152 l 156 -146 l 156 -140 q 153 -131 153 -135 l 149 -133 l 147 -130 l 147 -122 l 151 -122 l 151 -126 l 153 -126 l 153 -105 l 151 -105 m 208 -105 l 208 -111 l 206 -111 l 203 -109 l 203 -148 l 206 -146 l 208 -146 l 208 -148 q 204 -152 208 -152 q 203 -150 204 -150 l 203 -167 l 206 -165 l 208 -165 l 208 -174 l 210 -174 q 213 -162 210 -166 l 213 -159 l 210 -153 l 210 -152 l 213 -146 l 213 -140 q 210 -131 210 -135 l 206 -133 l 204 -130 l 204 -122 l 208 -122 l 208 -126 l 210 -126 l 210 -105 l 208 -105 m 446 -107 l 446 -111 q 450 -107 450 -111 l 446 -107 m 503 -107 l 503 -111 q 507 -107 507 -111 l 503 -107 m 100 -109 l 100 -114 l 101 -114 l 101 -109 l 100 -109 m 788 -111 q 787 -117 788 -114 q 791 -124 789 -124 l 797 -124 l 797 -122 q 790 -111 790 -122 l 788 -111 m 376 -114 q 381 -119 376 -116 l 381 -112 q 376 -114 378 -114 m 85 -114 l 84 -122 l 87 -124 l 89 -124 l 91 -114 l 85 -114 m 125 -117 l 125 -122 l 127 -122 l 127 -117 l 125 -117 m 264 -121 l 266 -124 l 262 -126 q 264 -131 264 -129 l 268 -131 l 268 -117 q 264 -121 264 -118 m 292 -117 l 292 -121 l 294 -121 l 294 -117 l 292 -117 m 106 -119 l 106 -122 l 108 -122 l 108 -119 l 106 -119 m 271 -119 l 271 -178 l 273 -178 q 275 -165 273 -168 q 273 -159 273 -162 q 275 -157 273 -157 l 273 -153 l 273 -152 q 275 -134 273 -144 q 273 -119 273 -128 l 271 -119 m 324 -119 l 324 -131 l 328 -130 l 330 -130 l 330 -134 l 332 -134 l 332 -121 q 324 -119 328 -121 m 453 -119 l 453 -126 l 450 -126 l 450 -121 q 446 -124 446 -121 l 446 -152 l 450 -157 l 446 -162 l 446 -174 l 450 -172 q 453 -179 453 -172 l 455 -179 l 455 -136 q 456 -134 455 -134 q 455 -119 455 -134 l 453 -119 m 510 -119 l 510 -126 l 507 -126 l 507 -121 q 503 -124 503 -121 l 503 -152 q 507 -157 503 -153 l 503 -162 l 503 -174 l 507 -172 q 510 -179 510 -172 l 511 -179 l 511 -136 q 513 -134 511 -134 q 511 -119 511 -134 l 510 -119 m 551 -121 l 551 -152 l 553 -152 l 553 -141 l 556 -141 l 556 -150 l 558 -150 l 558 -138 q 553 -136 555 -136 l 553 -127 l 556 -127 l 556 -134 l 558 -134 l 558 -122 l 555 -124 l 553 -124 l 553 -121 l 551 -121 m 733 -121 l 733 -152 l 735 -152 l 735 -141 l 739 -141 l 739 -150 l 740 -150 l 740 -138 q 735 -136 736 -136 l 735 -127 l 739 -127 l 739 -134 l 740 -134 l 740 -122 l 736 -124 l 735 -124 l 735 -121 l 733 -121 m 294 -122 l 300 -131 l 297 -131 l 297 -140 l 300 -138 l 300 -143 l 297 -143 l 297 -163 l 298 -163 q 302 -160 298 -160 l 302 -124 l 294 -122 m 101 -124 l 101 -134 q 104 -138 102 -138 l 106 -138 l 106 -134 q 103 -124 103 -130 l 101 -124 m 106 -124 l 106 -130 l 108 -130 l 108 -124 l 106 -124 m 121 -124 l 121 -130 l 123 -130 l 123 -124 l 121 -124 m 799 -124 l 799 -127 l 802 -127 q 799 -124 802 -124 m 65 -126 l 65 -136 q 68 -143 68 -136 l 70 -143 l 70 -133 q 66 -126 66 -133 l 65 -126 m 376 -126 l 376 -144 l 378 -144 l 378 -126 l 376 -126 m 791 -127 q 806 -143 791 -136 l 804 -146 q 806 -148 806 -146 l 804 -148 l 806 -152 l 802 -157 l 802 -159 q 806 -162 802 -162 l 804 -165 q 809 -170 804 -168 q 810 -169 809 -169 q 812 -170 810 -170 l 810 -174 l 810 -179 l 812 -179 l 814 -169 q 809 -155 814 -163 l 806 -157 l 804 -157 q 810 -152 804 -153 q 804 -130 804 -136 l 800 -130 q 797 -134 800 -134 l 795 -134 l 795 -127 l 791 -127 m 123 -131 l 123 -136 l 125 -136 l 125 -131 l 123 -131 m 262 -133 l 262 -152 l 266 -150 q 268 -152 266 -152 l 268 -148 l 264 -148 l 264 -146 q 269 -140 269 -146 q 264 -133 264 -140 l 262 -133 m 324 -133 l 324 -143 l 328 -141 l 332 -143 l 332 -138 q 326 -133 326 -138 l 324 -133 m 450 -131 l 453 -131 l 453 -133 q 450 -136 453 -136 l 450 -131 m 507 -131 l 510 -131 l 510 -133 q 507 -136 510 -136 l 507 -131 m 84 -134 l 84 -136 l 87 -136 l 87 -134 l 84 -134 m 610 -133 l 613 -133 l 613 -141 l 610 -141 l 610 -133 m 108 -136 l 108 -144 l 110 -144 l 110 -136 l 108 -136 m 292 -136 l 292 -144 l 294 -144 l 294 -136 l 292 -136 m 147 -138 l 151 -138 l 151 -141 l 147 -141 l 147 -138 m 204 -138 l 208 -138 l 208 -141 l 204 -141 l 204 -138 m 797 -141 l 797 -143 q 799 -148 799 -146 l 800 -148 l 800 -146 q 799 -141 799 -143 l 797 -141 m 65 -143 l 65 -162 l 72 -169 l 72 -170 l 68 -170 l 68 -178 l 66 -186 l 70 -188 l 68 -191 q 70 -196 70 -195 l 72 -196 l 72 -188 l 75 -188 l 75 -191 l 77 -191 l 77 -184 q 74 -181 77 -181 l 75 -169 l 75 -163 q 72 -159 72 -163 l 68 -160 l 66 -157 l 66 -155 l 68 -155 q 74 -157 72 -157 l 74 -146 l 72 -146 l 72 -150 l 68 -150 q 65 -143 68 -143 m 101 -146 q 104 -157 102 -157 l 103 -160 l 103 -162 l 106 -167 l 104 -182 l 106 -182 l 104 -186 l 104 -188 q 108 -191 108 -188 l 110 -191 q 113 -188 110 -188 l 113 -184 l 110 -184 l 111 -172 l 111 -169 l 106 -159 l 111 -159 q 110 -146 110 -152 l 108 -146 l 108 -150 l 104 -150 l 104 -143 q 101 -146 101 -144 m 330 -144 l 330 -152 l 332 -152 l 332 -144 l 330 -144 m 180 -148 l 180 -152 l 182 -152 l 182 -148 l 180 -148 m 237 -148 l 237 -152 l 239 -152 l 239 -148 l 237 -148 m 324 -148 l 324 -152 l 326 -152 l 326 -148 l 324 -148 m 450 -146 l 453 -146 l 453 -150 l 450 -150 l 450 -146 m 507 -146 l 510 -146 l 510 -150 l 507 -150 l 507 -146 m 175 -152 l 175 -159 l 177 -159 l 178 -152 l 175 -152 m 232 -152 l 232 -159 l 233 -159 l 235 -152 l 232 -152 m 608 -157 l 608 -160 l 610 -160 l 610 -157 l 608 -157 m 262 -160 l 262 -174 l 264 -174 l 264 -167 l 266 -167 l 269 -169 q 268 -159 268 -166 q 262 -160 264 -160 m 556 -159 l 556 -165 l 558 -165 l 558 -159 l 556 -159 m 739 -159 l 739 -165 l 740 -165 l 740 -159 l 739 -159 m 613 -160 l 613 -163 l 614 -163 l 614 -160 l 613 -160 m 175 -162 l 175 -165 q 178 -162 178 -165 l 175 -162 m 232 -162 l 232 -165 q 235 -162 235 -165 l 232 -162 m 642 -162 l 642 -199 l 644 -199 q 646 -182 644 -183 q 644 -162 644 -177 l 642 -162 m 637 -165 q 633 -174 637 -174 l 633 -178 l 637 -178 l 637 -179 l 633 -179 l 633 -188 q 639 -186 637 -186 l 639 -165 l 637 -165 m 146 -186 l 146 -189 l 147 -189 l 147 -186 l 146 -186 m 203 -186 l 203 -189 l 204 -189 l 204 -186 l 203 -186 m 577 -189 l 577 -201 q 581 -205 578 -205 l 581 -193 q 577 -189 581 -189 m 759 -189 l 759 -201 q 762 -205 760 -205 l 762 -193 q 759 -189 762 -189 m 350 -193 l 350 -205 l 353 -205 l 353 -196 q 350 -193 353 -193 m 177 -196 l 177 -199 l 178 -199 l 178 -196 l 177 -196 m 233 -196 l 233 -199 l 235 -199 l 235 -196 l 233 -196 m 74 -203 l 74 -207 l 75 -207 l 75 -203 l 74 -203 m 783 -208 l 783 -212 l 785 -212 l 785 -208 l 783 -208 m 661 -212 l 671 -212 q 675 -215 675 -212 l 675 -225 q 671 -229 675 -229 l 661 -229 q 658 -225 658 -229 l 658 -215 q 661 -212 659 -212 z "},"&":{"ha":298,"x_min":20,"x_max":332,"o":"m 121 1149 l 178 1149 q 243 1100 243 1124 q 264 1057 264 1064 l 264 755 q 259 750 264 750 l 208 750 q 199 758 205 750 q 202 831 202 808 l 202 926 q 199 948 202 938 q 202 970 202 959 l 202 1008 q 189 1070 202 1070 q 175 1084 178 1084 l 164 1084 q 126 1038 143 1084 l 129 1013 l 126 986 q 129 956 129 962 l 123 916 q 126 905 126 911 l 123 899 l 126 886 l 123 867 q 126 864 123 864 l 123 850 l 123 750 q 137 647 123 669 q 221 617 137 623 l 283 617 q 324 620 297 617 l 332 609 l 332 574 q 319 560 326 560 q 300 566 300 560 q 264 536 264 553 l 264 267 q 256 259 264 263 q 240 281 240 270 q 248 305 248 294 l 245 321 q 248 343 248 332 q 235 365 235 357 l 229 365 q 227 357 229 362 q 229 346 229 352 q 221 308 224 340 q 224 297 224 303 q 216 273 219 273 l 218 267 q 216 240 218 254 q 235 218 216 218 l 235 205 q 216 178 216 189 q 229 142 218 142 l 237 142 q 251 167 237 152 l 248 180 l 248 191 q 256 199 248 195 q 264 191 260 199 l 264 72 q 243 26 252 59 q 191 -15 219 -15 q 164 -20 191 -20 l 159 -20 q 64 15 85 -20 q 26 115 26 60 q 20 153 20 136 l 20 281 q 23 468 20 348 q 28 498 28 479 l 28 517 q 77 574 50 563 q 99 587 85 587 l 99 598 q 28 671 41 641 q 20 736 28 696 q 23 750 20 745 q 20 902 20 846 l 20 975 q 28 1008 20 982 l 28 1035 q 64 1114 28 1049 q 121 1149 106 1149 m 88 1059 l 85 1054 q 91 1048 86 1048 l 94 1048 l 94 1054 q 88 1059 94 1059 m 61 1048 q 58 1040 61 1040 q 69 997 61 1018 q 66 994 69 994 l 69 981 q 75 864 69 941 l 72 850 q 75 810 75 827 l 75 777 l 77 777 l 83 780 l 80 791 l 88 840 l 83 859 q 94 886 87 886 q 102 869 97 869 q 104 899 102 876 l 99 902 q 91 899 94 899 l 85 907 q 104 937 85 922 l 104 945 q 80 986 104 951 l 83 1000 q 61 1048 83 1023 m 240 1040 q 237 1024 240 1028 l 240 1019 q 224 970 240 992 q 218 940 224 966 l 218 918 l 232 907 l 216 880 q 240 861 216 868 q 251 894 245 867 l 248 899 l 248 924 q 251 935 248 930 q 245 951 245 943 l 245 959 q 248 962 245 962 l 245 967 l 245 989 q 243 1010 245 1000 q 245 1032 245 1021 l 245 1035 q 240 1040 245 1040 m 39 945 l 39 924 q 47 880 47 886 q 39 856 43 865 q 47 834 43 834 l 45 823 q 47 758 47 774 l 53 755 l 56 761 l 56 970 l 58 989 l 53 989 q 39 945 45 989 m 240 815 l 240 793 l 243 793 l 243 815 l 240 815 m 126 446 l 126 387 q 129 243 126 327 q 126 221 126 233 q 129 218 126 218 l 126 205 l 126 202 q 129 178 126 188 q 126 151 126 163 l 126 140 q 129 126 126 131 l 126 110 q 151 47 126 70 l 178 47 q 202 94 202 59 q 199 107 202 102 q 202 145 202 130 l 202 180 q 199 208 202 193 q 202 213 199 213 q 199 335 199 296 l 199 547 q 180 555 199 553 q 132 490 139 555 q 126 446 126 478 m 50 408 q 45 381 45 385 q 47 370 45 380 l 42 343 l 47 321 l 39 300 l 47 273 l 39 194 q 53 145 46 145 l 56 145 l 56 395 l 53 408 l 50 408 m 77 389 l 75 384 l 75 349 q 72 302 75 323 q 75 281 75 288 q 72 240 72 254 q 75 229 72 239 q 69 199 69 218 l 69 178 q 72 151 69 165 q 69 132 69 140 q 75 104 69 120 l 72 88 l 72 85 q 85 134 77 85 q 83 156 83 149 q 102 180 102 168 l 96 189 l 96 194 q 104 208 104 194 l 85 229 l 85 243 q 94 248 85 248 q 102 245 99 245 l 104 251 l 104 259 q 99 273 104 273 q 91 270 94 270 q 83 294 83 290 q 88 316 88 304 q 83 332 88 323 l 85 346 q 80 362 80 355 l 83 387 l 77 389 m 256 251 l 259 251 q 264 245 264 250 l 264 216 q 256 208 264 212 q 245 227 245 212 l 245 232 q 256 251 245 247 z "},"'":{"ha":208,"x_min":43,"x_max":172,"o":"m 52 1142 l 91 1139 l 123 1139 l 143 1142 q 172 1123 160 1137 l 169 1101 l 165 1007 q 136 994 161 994 l 62 994 q 43 1004 45 994 l 46 1133 l 52 1142 z "},"(":{"ha":514,"x_min":0,"x_max":0,"o":""},")":{"ha":514,"x_min":0,"x_max":0,"o":""},"*":{"ha":1408,"x_min":58,"x_max":1344,"o":"m 702 1126 q 1152 934 952 1126 q 1274 759 1238 838 q 1344 461 1344 610 l 1344 437 q 1153 -33 1344 178 q 702 -228 954 -228 q 238 -21 440 -228 q 58 451 58 184 q 248 929 58 722 q 702 1126 446 1126 m 684 1095 q 687 1021 687 1042 q 688 1016 688 1017 l 682 1011 l 670 1011 q 663 1089 663 1011 q 661 1094 661 1089 q 639 1092 646 1092 l 634 1092 q 637 1046 636 1082 q 629 1037 635 1046 q 639 1023 639 1032 l 639 1008 q 660 987 639 987 l 663 987 q 713 1001 713 987 q 715 1010 713 1002 q 713 1034 713 1025 q 722 1043 715 1034 q 712 1052 718 1043 l 712 1055 q 711 1095 712 1067 l 684 1095 m 760 1092 q 755 1069 758 1088 q 783 1062 783 1067 q 769 1036 783 1042 q 777 1026 771 1036 q 769 983 770 985 q 795 979 779 983 q 814 1028 800 1028 l 806 1038 q 810 1061 808 1054 q 838 1056 834 1056 l 838 1058 q 841 1079 838 1063 q 760 1092 770 1092 m 516 1052 q 524 1019 516 1042 q 518 1011 522 1019 l 518 1008 q 536 977 530 1008 q 553 966 543 966 q 608 989 608 977 l 608 995 q 603 1019 608 1002 q 576 1011 579 1011 q 579 998 579 1004 q 559 994 572 994 q 555 1015 555 1003 q 559 1023 559 1016 q 545 1047 547 1023 q 563 1053 549 1050 q 567 1041 567 1048 l 594 1048 q 573 1079 589 1079 l 567 1079 q 516 1052 516 1071 m 876 1067 q 869 1047 869 1049 q 895 1036 895 1038 q 875 1011 888 1011 q 880 1000 880 1004 q 866 959 866 965 q 890 950 886 950 q 917 995 903 995 q 912 1007 912 1002 q 922 1026 918 1026 q 945 1017 941 1017 l 954 1038 q 876 1068 885 1067 l 876 1067 m 389 1006 q 410 964 408 972 l 407 953 q 430 929 422 953 q 440 913 431 929 q 500 955 500 940 q 485 987 500 963 q 488 1000 488 993 q 469 1019 474 1000 q 446 1034 461 1034 q 389 1006 440 1034 m 995 1016 q 968 977 972 977 q 959 975 960 975 q 962 965 959 972 q 938 926 938 928 q 1000 887 996 887 q 1010 907 1010 901 q 972 934 976 928 q 983 945 981 945 l 984 945 l 1010 929 q 1023 949 1013 930 q 996 968 996 963 q 1006 981 1002 979 q 1044 956 1008 979 q 1057 975 1047 957 q 995 1016 1054 977 m 443 1006 q 470 959 445 1006 l 470 958 q 452 947 460 947 q 425 998 431 984 q 443 1006 439 1006 m 291 918 q 313 884 291 910 l 311 874 l 322 874 q 353 848 345 848 q 399 886 369 848 l 401 893 q 380 925 401 900 l 380 926 l 382 935 l 372 935 q 337 962 347 962 q 292 925 323 962 l 291 918 m 1095 943 q 1062 910 1095 941 l 1055 911 l 1051 911 l 1051 899 l 1021 868 q 1040 850 1021 866 l 1062 871 l 1063 871 q 1055 833 1055 836 l 1076 814 l 1086 852 q 1098 848 1097 848 l 1101 848 q 1139 884 1114 848 l 1139 889 q 1095 943 1139 903 m 332 932 l 336 932 q 372 892 347 922 l 372 889 q 359 878 372 887 l 357 878 q 321 919 346 887 l 321 922 q 332 932 321 923 m 413 672 l 414 662 l 414 584 q 374 515 374 569 q 394 412 374 458 q 425 354 397 411 q 448 321 448 326 l 448 318 l 446 307 q 452 269 448 290 q 449 245 449 260 q 450 233 450 234 l 449 230 q 461 178 454 178 q 476 144 476 165 q 503 113 481 130 q 528 92 513 92 q 552 55 552 58 q 591 5 572 5 q 603 -23 599 5 q 640 -47 614 -39 q 690 -71 652 -61 q 700 -72 699 -71 q 777 -66 723 -68 q 808 -50 793 -60 q 856 -26 831 -50 q 908 30 902 -26 q 935 106 920 45 q 960 174 960 134 q 969 204 969 188 l 969 215 q 983 264 983 249 q 978 282 981 277 q 979 306 979 297 l 979 312 q 978 319 979 317 q 979 330 979 326 q 962 394 979 357 q 964 410 963 410 l 963 414 l 963 429 q 956 465 963 442 q 968 490 968 474 l 966 500 q 974 541 974 519 l 974 549 q 979 575 979 566 l 966 621 l 968 645 q 944 729 968 664 q 881 817 922 779 q 808 878 850 864 q 648 910 713 910 l 636 910 q 549 892 602 910 q 480 848 519 881 q 424 753 447 806 q 413 672 418 730 m 1098 907 q 1111 890 1111 897 l 1095 876 l 1092 876 q 1080 887 1090 876 l 1080 889 q 1098 907 1080 891 m 621 895 q 795 867 720 895 q 863 819 854 835 q 903 751 881 804 q 944 648 925 727 l 944 647 q 942 618 944 642 q 951 581 948 601 q 956 576 954 581 l 956 574 q 948 562 956 563 l 951 547 q 938 496 951 522 q 944 491 944 495 l 944 487 q 939 482 944 485 l 930 482 q 926 469 930 477 q 941 424 932 469 l 941 418 q 938 385 938 395 q 954 343 947 374 q 956 332 954 342 l 954 321 q 957 303 957 306 q 951 282 957 300 q 959 262 959 269 q 945 219 959 255 q 937 173 945 194 q 922 127 937 149 q 901 71 911 119 q 882 30 901 68 l 882 28 q 884 22 882 27 q 857 -2 876 -2 q 818 -24 844 -2 q 777 -41 798 -24 l 702 -48 l 700 -48 q 655 -31 686 -48 q 629 -17 655 -24 q 623 4 623 -10 q 624 19 623 6 q 585 43 585 28 q 574 65 574 56 q 578 75 574 68 q 543 115 565 75 q 519 130 526 115 q 503 146 519 134 l 491 182 q 475 221 475 189 q 473 233 473 227 l 473 234 q 475 236 473 236 l 473 239 q 475 275 475 272 q 470 312 470 304 l 471 319 l 467 342 q 409 439 452 347 q 398 512 398 482 l 398 518 q 430 564 398 555 l 440 564 l 440 566 q 437 611 440 587 q 439 637 439 625 q 437 672 439 652 q 501 840 437 777 q 579 889 535 875 q 621 895 583 889 m 452 688 q 454 684 452 687 q 450 668 450 676 q 452 635 450 657 q 450 610 450 614 q 454 562 454 572 q 490 532 490 548 l 491 532 q 498 542 491 538 l 501 542 l 511 534 q 537 538 531 538 l 542 532 l 542 529 q 522 409 522 446 q 534 373 530 393 q 552 351 552 364 q 572 327 572 348 l 589 328 l 610 327 q 625 333 621 333 q 630 328 627 333 q 627 315 627 317 q 630 302 630 305 q 629 297 629 298 q 646 275 646 286 l 646 269 q 666 246 660 269 q 661 222 661 228 q 663 210 663 214 l 664 210 q 706 281 678 243 q 736 337 724 309 l 741 337 q 745 332 745 337 q 722 285 743 315 l 724 285 q 760 302 759 293 q 766 303 763 302 q 787 302 779 302 q 805 307 789 302 l 805 309 l 800 309 q 781 306 794 309 q 751 330 751 313 l 751 334 q 755 343 752 343 l 760 343 q 764 327 763 343 q 778 319 772 319 q 802 322 797 322 q 850 306 835 306 q 875 336 875 306 q 857 409 875 378 q 848 475 848 448 l 848 478 q 881 529 848 497 q 926 574 892 529 q 938 579 928 574 q 929 618 935 602 q 930 642 930 633 l 930 645 q 905 726 919 701 l 880 771 q 854 806 869 780 q 778 857 817 844 q 666 882 696 882 l 651 882 l 642 880 q 636 882 640 882 q 537 848 550 869 q 485 795 511 827 q 452 688 452 756 m 208 819 q 237 790 208 812 q 238 780 238 784 l 252 781 q 285 764 270 764 q 322 808 308 779 l 322 814 q 295 842 322 824 l 295 853 l 292 853 l 281 852 q 249 871 260 871 q 208 825 233 871 l 208 819 m 597 854 q 616 837 616 848 l 616 832 q 582 810 614 826 l 576 810 q 561 827 561 816 l 561 829 q 597 854 561 846 m 573 825 l 576 823 l 581 823 l 603 837 q 594 841 602 841 q 573 825 573 836 m 248 841 l 252 841 q 294 806 291 813 q 283 793 288 795 l 280 793 q 237 827 237 823 q 248 841 243 839 m 530 806 l 534 806 q 548 793 548 805 l 548 787 q 528 758 548 781 q 491 702 519 702 q 479 722 479 707 l 479 735 q 521 804 479 772 q 530 806 526 806 m 1095 791 l 1095 790 q 1105 774 1095 781 l 1111 774 q 1120 781 1120 779 l 1120 784 q 1107 801 1116 801 q 1095 791 1095 795 m 491 733 l 491 722 l 492 714 l 495 714 q 518 765 507 714 q 537 789 532 781 l 537 791 q 533 796 537 794 q 497 759 513 788 q 491 733 491 745 m 1180 768 q 1169 769 1175 769 q 1126 739 1169 757 q 1160 672 1154 689 q 1181 684 1177 680 l 1160 726 l 1175 733 q 1190 705 1190 709 q 1211 714 1194 705 q 1198 743 1211 720 l 1198 744 q 1213 751 1198 747 l 1214 751 q 1235 711 1221 733 q 1255 720 1252 720 q 1220 787 1255 727 q 1180 768 1184 768 m 167 768 q 157 744 167 764 q 228 713 222 717 l 228 711 q 218 696 223 696 q 203 711 205 696 q 191 707 195 707 l 149 724 l 140 699 l 140 698 q 184 671 184 684 l 184 669 q 197 673 192 673 q 208 668 208 672 q 201 651 205 651 l 199 651 l 130 678 l 130 677 q 120 652 120 656 q 165 630 165 637 l 165 626 l 167 626 q 178 629 168 626 l 198 621 q 237 662 237 635 q 233 673 237 665 q 253 694 248 680 q 256 703 253 699 q 238 739 248 739 q 222 756 222 744 q 212 751 214 751 l 168 768 l 167 768 m 1240 675 q 1219 659 1240 668 l 1216 648 l 1216 647 q 1223 614 1216 637 q 1210 610 1217 610 q 1202 627 1205 610 q 1213 633 1213 631 q 1205 657 1205 655 q 1177 637 1177 652 l 1177 629 q 1206 579 1184 579 l 1214 581 q 1223 575 1214 578 q 1246 593 1223 583 l 1249 604 l 1249 605 q 1241 637 1249 615 q 1256 644 1250 644 q 1262 626 1262 635 q 1252 621 1261 621 l 1259 595 q 1289 617 1289 600 q 1261 672 1280 672 l 1257 672 q 1252 671 1254 672 q 1240 675 1246 675 m 788 672 q 841 659 801 672 l 844 659 q 873 668 848 659 q 878 663 876 668 l 878 659 q 838 645 878 652 q 800 657 831 645 l 787 659 l 764 654 l 763 654 q 760 657 760 654 l 760 662 q 788 672 760 669 m 660 663 l 664 663 q 712 648 673 663 q 730 642 730 646 l 730 637 q 721 633 728 633 q 670 650 710 633 q 664 651 664 650 q 630 635 650 651 l 625 635 q 621 640 623 635 l 621 644 q 660 663 641 663 m 664 625 l 669 625 q 707 615 707 621 q 702 608 705 608 l 692 608 q 666 612 687 608 q 621 583 642 612 l 619 583 q 614 587 614 585 l 614 589 q 664 625 627 625 m 827 608 l 831 608 q 884 605 836 608 l 884 604 l 899 606 q 905 602 905 604 l 905 597 q 890 590 905 593 q 836 595 848 595 l 835 595 q 812 593 827 595 l 810 596 l 810 600 q 827 608 810 606 m 654 590 l 660 590 q 748 569 686 590 q 784 536 784 547 l 784 530 q 770 522 779 522 l 768 522 q 713 542 760 522 q 684 544 701 542 q 680 539 684 541 l 664 539 q 602 524 654 539 l 599 524 l 594 530 q 630 579 595 541 q 654 590 643 590 m 419 545 l 419 544 q 488 467 469 544 l 490 467 l 490 472 q 488 478 490 475 q 490 509 490 479 q 475 538 482 509 q 440 551 457 551 l 434 551 q 419 545 431 551 m 935 549 q 880 512 930 539 l 872 500 l 873 500 q 895 505 884 505 l 899 505 q 924 498 908 505 q 938 548 938 519 l 935 549 m 412 529 l 412 508 q 443 400 412 446 q 473 355 454 370 q 479 370 479 366 l 479 378 l 471 420 q 480 463 477 455 q 467 496 475 463 q 425 532 444 532 q 412 529 423 532 m 137 530 l 137 502 l 132 496 l 137 490 l 137 463 l 152 463 l 152 491 l 155 491 l 167 465 q 180 490 170 465 l 183 490 l 183 463 l 198 463 l 198 490 l 203 496 l 198 502 l 198 530 l 184 530 q 170 502 182 530 l 165 502 q 153 530 165 505 l 137 530 m 219 530 l 219 503 q 213 496 219 503 q 219 486 219 494 l 219 463 l 233 463 l 233 491 l 234 491 q 248 465 237 491 l 264 491 l 265 491 l 265 463 l 279 463 l 279 490 l 285 497 q 279 502 279 497 l 279 530 l 265 530 q 250 502 262 530 l 249 502 q 234 530 245 502 l 219 530 m 295 530 l 295 529 q 311 497 295 527 q 295 463 295 465 l 311 463 q 319 476 315 463 l 321 476 q 328 463 324 476 l 346 463 l 346 465 q 331 497 331 493 l 346 530 l 328 530 q 321 517 324 517 l 319 517 q 311 530 315 530 l 295 530 m 1000 530 l 1000 503 q 995 496 995 496 q 1000 486 1000 494 l 1000 463 l 1014 463 l 1014 491 l 1015 491 q 1029 465 1019 491 l 1045 491 l 1047 491 l 1047 463 l 1060 463 l 1060 490 l 1066 497 q 1060 502 1060 497 l 1060 530 l 1047 530 q 1032 502 1044 530 l 1030 502 q 1015 530 1027 502 l 1000 530 m 1081 530 l 1081 503 l 1076 496 q 1081 486 1081 494 l 1081 463 l 1095 463 l 1095 491 l 1096 491 q 1109 465 1100 491 l 1126 491 l 1128 491 l 1128 463 l 1141 463 l 1141 490 l 1147 497 q 1141 502 1141 497 l 1141 530 l 1128 530 q 1113 502 1124 530 l 1111 502 q 1096 530 1108 502 l 1081 530 m 1158 530 q 1174 496 1174 498 l 1158 463 l 1174 463 q 1181 476 1177 463 l 1183 476 q 1190 463 1186 476 l 1210 463 q 1194 497 1194 494 l 1210 530 l 1190 530 q 1183 517 1186 517 l 1181 517 q 1174 530 1177 530 l 1158 530 m 1221 530 q 1238 496 1238 498 l 1221 463 l 1238 463 q 1246 476 1242 463 l 1247 476 q 1255 463 1251 476 l 1274 463 q 1257 497 1257 494 l 1274 530 l 1255 530 q 1247 517 1251 517 l 1246 517 q 1238 530 1242 530 l 1221 530 m 692 527 q 737 512 734 522 l 737 508 q 733 503 737 506 q 694 514 709 514 l 692 514 q 652 497 652 507 q 648 493 649 493 l 644 493 q 639 502 639 494 q 692 527 639 517 m 440 511 q 449 503 446 509 l 443 454 q 454 427 446 427 l 460 430 q 465 426 465 428 l 465 421 q 458 414 465 419 l 452 414 q 430 454 435 414 q 434 493 434 481 l 434 498 l 433 507 q 440 511 437 511 m 699 508 q 754 481 730 508 l 754 476 q 697 451 734 451 q 645 482 645 460 l 645 486 q 699 508 667 508 m 763 502 l 768 502 q 784 478 784 489 q 775 463 782 463 q 769 467 769 465 l 769 481 l 758 493 l 758 497 q 763 502 758 499 m 702 494 q 705 486 705 490 l 705 478 q 702 465 705 474 l 703 465 q 736 481 736 468 q 702 494 718 494 m 896 493 q 899 484 899 487 q 893 467 897 475 l 895 467 q 918 487 918 467 q 896 493 907 493 m 660 482 l 660 479 l 661 479 l 661 482 l 660 482 m 861 478 l 861 472 q 865 469 862 469 l 865 471 l 863 478 l 861 478 m 458 472 q 467 469 462 472 q 464 452 464 458 l 465 439 l 460 436 q 449 454 452 436 q 458 472 452 472 m 758 466 l 763 466 q 768 461 765 466 l 768 460 q 741 418 768 448 l 739 418 q 732 426 735 418 l 754 457 q 758 466 755 466 m 880 454 l 869 454 l 861 456 q 886 372 863 426 q 887 340 887 352 l 887 334 q 881 312 887 321 q 909 292 888 312 l 911 292 q 918 343 911 295 l 927 429 q 923 442 926 442 q 897 400 923 418 l 895 400 q 890 405 892 400 l 890 408 q 912 454 912 429 l 912 458 q 880 454 894 454 m 805 437 l 810 437 q 815 426 814 437 l 814 418 l 818 397 l 818 394 q 809 390 817 390 q 800 430 802 390 l 800 433 q 805 437 800 435 m 633 436 l 639 436 q 684 414 659 414 l 691 414 q 724 421 699 414 l 726 418 l 726 412 q 690 400 716 400 q 630 431 630 408 l 630 433 q 633 436 631 436 m 1225 426 q 1223 400 1223 408 q 1242 387 1227 400 q 1220 375 1242 385 l 1217 351 q 1267 373 1263 373 l 1272 373 l 1280 366 q 1286 372 1282 366 l 1297 370 l 1302 370 l 1302 379 l 1304 390 q 1283 399 1289 390 q 1276 393 1276 395 q 1238 416 1265 393 l 1225 426 m 153 415 q 134 403 153 409 l 131 393 q 132 369 132 371 q 123 366 127 366 l 122 366 q 117 380 118 366 q 126 384 121 384 q 123 405 125 405 q 99 390 99 405 q 116 345 99 345 q 127 339 120 345 q 147 349 127 345 l 152 363 q 149 384 152 366 q 161 388 155 388 q 165 373 163 385 q 156 369 156 370 q 157 349 156 368 l 159 349 q 183 364 183 349 q 165 409 183 409 q 155 415 161 409 l 153 415 m 768 403 l 772 403 q 777 399 774 403 q 758 360 766 360 l 755 360 q 751 366 753 360 q 768 403 764 401 m 787 369 q 806 357 806 363 l 806 353 q 803 349 806 349 l 800 349 q 781 360 781 355 l 781 364 q 787 369 781 368 m 1204 288 q 1241 275 1241 280 l 1241 272 l 1249 276 q 1283 272 1273 272 l 1287 290 q 1265 294 1269 294 l 1265 296 q 1292 307 1267 298 l 1297 328 q 1267 321 1272 321 q 1234 342 1267 337 l 1226 342 q 1204 288 1211 342 m 152 326 q 146 330 152 328 q 111 313 146 320 q 110 312 110 313 q 116 294 113 294 q 141 298 134 298 q 156 266 146 266 l 157 266 q 199 285 199 269 l 199 288 l 189 333 q 152 326 159 326 m 1231 319 q 1249 312 1249 319 q 1244 300 1248 300 q 1226 307 1226 302 q 1231 319 1227 319 m 176 307 q 180 292 180 299 q 161 288 175 288 q 156 303 156 297 q 176 307 169 307 m 1181 224 q 1210 203 1181 211 q 1214 194 1213 194 q 1223 199 1221 199 q 1246 191 1229 195 q 1270 233 1261 191 l 1270 236 q 1242 255 1270 247 q 1238 262 1242 262 l 1234 260 l 1231 260 l 1205 267 q 1181 224 1192 267 m 174 254 q 165 256 170 254 q 152 243 165 250 q 131 233 131 239 q 138 216 137 216 q 167 227 162 227 q 174 209 170 227 q 146 199 147 199 l 146 197 q 153 179 150 179 q 186 189 181 189 q 193 188 188 188 q 228 208 193 197 l 228 210 q 207 266 212 250 q 174 254 178 254 m 1208 243 q 1249 230 1215 243 l 1249 229 q 1242 214 1246 214 q 1202 230 1202 228 q 1208 243 1205 243 m 197 239 q 204 221 200 235 q 192 216 195 216 q 184 234 186 224 q 197 239 193 239 m 805 215 l 802 216 q 773 210 793 212 q 753 201 767 201 q 743 204 750 201 q 732 200 735 200 q 734 197 732 197 l 760 197 q 854 222 854 207 q 831 224 839 224 l 830 224 q 805 215 810 215 m 1173 206 l 1144 149 q 1160 143 1154 143 q 1168 159 1168 157 l 1169 159 q 1187 143 1187 157 q 1196 146 1192 146 q 1226 131 1200 146 l 1227 131 q 1235 151 1235 148 q 1204 174 1204 163 q 1195 172 1198 172 q 1180 180 1180 178 q 1187 200 1187 193 q 1173 206 1177 206 m 204 176 q 195 179 201 176 q 163 153 195 167 q 174 136 170 140 q 210 153 205 153 q 188 113 203 138 q 197 94 188 109 l 227 111 q 235 109 228 109 q 262 130 235 119 q 267 136 267 133 q 259 151 259 149 l 223 134 l 223 136 l 244 173 q 234 193 244 180 l 204 176 m 836 178 q 842 153 838 153 l 845 153 q 850 163 850 155 l 850 168 q 844 179 850 176 l 839 179 l 836 178 m 812 172 q 808 155 809 168 q 815 144 810 144 q 820 146 818 146 l 820 164 q 821 165 820 165 q 812 172 820 172 m 779 164 l 781 149 l 781 140 q 785 136 781 138 l 788 136 q 791 138 791 136 l 791 158 l 790 165 l 783 165 l 779 164 m 1138 140 l 1103 91 q 1132 68 1103 90 l 1132 61 l 1141 62 q 1169 43 1151 56 l 1171 43 q 1181 60 1171 45 l 1156 79 q 1168 94 1164 94 q 1192 77 1175 90 l 1195 77 q 1205 94 1195 79 q 1177 115 1177 112 l 1177 122 l 1175 122 l 1165 121 q 1138 140 1162 125 m 833 106 q 836 103 833 103 l 844 103 q 846 127 846 119 q 845 131 845 130 l 839 131 q 833 106 833 131 m 250 98 l 241 100 q 223 80 241 87 q 213 71 223 79 q 225 55 223 55 l 253 75 l 262 73 l 262 80 l 291 103 q 280 119 280 117 q 250 98 279 119 m 794 106 l 794 92 q 798 90 795 90 l 802 90 q 806 109 806 90 l 806 118 l 799 118 q 794 106 794 117 m 1141 112 l 1143 112 q 1152 104 1152 106 q 1139 90 1143 91 q 1131 97 1131 95 l 1131 98 q 1141 112 1139 111 m 289 75 l 283 75 l 280 76 q 273 56 280 64 l 273 50 q 289 25 273 43 l 289 24 q 281 16 289 22 l 280 16 q 271 26 277 16 l 271 28 l 276 34 q 262 49 263 49 q 249 35 250 40 l 249 30 q 279 -6 249 17 l 288 -6 q 298 -2 293 -2 l 300 -2 l 302 -3 q 311 16 302 6 l 311 22 q 295 47 311 29 l 295 49 q 302 56 295 51 l 304 56 q 313 43 313 51 q 309 39 311 43 q 322 24 309 38 q 336 41 336 33 l 336 43 q 306 79 336 56 l 300 79 q 289 75 294 79 m 817 76 l 817 64 l 818 56 l 823 56 q 829 67 829 59 l 829 70 q 824 79 829 77 l 820 79 q 817 76 817 79 m 1056 37 l 1056 34 q 1081 12 1059 34 l 1081 4 l 1088 4 q 1114 -18 1090 4 l 1117 -18 q 1129 -3 1117 -16 q 1111 12 1114 12 l 1111 14 l 1141 9 l 1156 25 q 1126 34 1133 31 q 1129 45 1129 40 q 1098 73 1109 73 l 1095 73 q 1056 37 1086 73 m 787 25 l 790 24 l 794 24 q 803 46 798 26 q 802 50 802 49 l 794 50 q 787 25 790 50 m 1095 50 q 1107 40 1101 48 l 1107 35 q 1098 26 1107 33 q 1083 40 1083 38 q 1095 50 1090 50 m 814 20 l 814 14 q 818 10 814 12 l 821 10 q 827 30 825 10 l 823 33 l 820 33 q 814 20 816 33 m 322 3 l 323 -1 l 323 -8 l 302 -33 q 319 -47 315 -46 q 340 -23 333 -28 q 353 -35 353 -33 l 353 -36 q 334 -60 341 -50 l 334 -62 q 351 -74 336 -62 q 373 -47 351 -71 l 380 -47 l 380 -38 q 401 -9 401 -12 l 387 3 l 385 3 q 366 -21 385 -1 q 352 -9 352 -11 l 352 -8 q 370 14 352 -7 l 370 16 q 357 28 370 17 l 355 28 q 328 3 334 3 l 322 3 m 1004 -14 l 1004 -17 q 1019 -41 1004 -22 l 1019 -47 l 1017 -50 q 1035 -58 1029 -50 q 1045 -69 1035 -63 l 1051 -69 q 1087 -41 1064 -69 q 1088 -36 1088 -38 q 1074 -12 1088 -30 l 1074 -6 l 1076 -3 q 1053 13 1062 -3 q 1040 19 1046 19 q 1004 -14 1004 -1 m 1040 -3 q 1065 -39 1065 -34 q 1056 -47 1057 -47 l 1053 -47 q 1026 -16 1051 -46 l 1026 -12 q 1040 -3 1034 -3 m 939 -48 l 939 -51 l 956 -78 l 954 -89 q 977 -114 966 -89 q 979 -119 979 -114 q 1026 -84 1026 -98 l 1026 -81 q 1008 -51 1026 -74 q 985 -24 998 -24 q 939 -48 979 -24 m 981 -47 q 985 -56 985 -48 q 972 -64 979 -64 l 966 -54 q 981 -47 976 -47 m 464 -51 q 440 -84 452 -84 q 443 -93 443 -89 q 430 -124 443 -96 l 431 -124 q 449 -132 445 -132 l 461 -105 l 463 -105 q 486 -115 467 -105 q 494 -99 486 -113 q 470 -87 484 -96 q 477 -75 475 -75 q 511 -90 506 -90 l 512 -90 q 518 -75 512 -85 q 464 -50 465 -50 l 464 -51 m 866 -83 q 880 -115 880 -111 q 876 -123 880 -118 q 897 -157 887 -123 q 917 -149 917 -152 q 906 -119 906 -125 q 923 -113 922 -113 q 938 -141 936 -141 l 956 -134 l 942 -104 l 945 -93 q 924 -58 935 -93 q 866 -83 921 -58 m 995 -74 l 998 -74 q 1004 -81 1000 -74 l 1004 -83 q 990 -93 1002 -87 l 984 -84 l 984 -81 q 995 -74 984 -79 m 507 -117 q 511 -126 511 -122 q 506 -145 506 -142 l 506 -149 q 545 -170 506 -163 l 551 -170 q 568 -142 563 -170 q 576 -138 576 -139 q 573 -129 573 -133 q 579 -105 579 -107 q 533 -83 579 -90 q 515 -113 523 -83 q 507 -117 507 -115 m 911 -84 l 912 -84 q 916 -96 916 -94 l 899 -104 q 893 -92 895 -99 q 911 -84 905 -84 m 805 -100 l 812 -134 l 808 -141 l 808 -142 q 824 -178 819 -142 l 825 -178 l 878 -165 q 873 -149 873 -151 l 841 -156 q 836 -138 836 -145 q 841 -132 838 -138 q 825 -99 830 -132 q 824 -94 824 -99 q 805 -100 805 -98 m 597 -100 q 585 -139 593 -139 q 583 -141 583 -139 q 589 -149 587 -142 l 585 -181 l 587 -181 q 606 -182 587 -181 l 606 -181 l 610 -144 l 612 -144 q 633 -187 614 -147 q 652 -190 648 -190 q 664 -153 652 -157 q 659 -145 661 -146 l 664 -109 l 644 -106 q 636 -145 640 -145 q 614 -102 618 -102 q 597 -100 603 -100 m 542 -104 q 557 -109 557 -105 q 541 -150 546 -150 q 528 -144 528 -147 q 542 -104 538 -104 m 670 -109 l 670 -127 l 691 -127 q 694 -130 694 -128 l 694 -139 q 687 -151 694 -146 l 687 -153 q 694 -159 691 -153 l 694 -192 l 715 -192 l 715 -157 l 721 -151 l 713 -142 l 713 -129 q 717 -126 714 -126 l 736 -126 l 736 -109 l 670 -109 z "},"+":{"ha":1408,"x_min":58,"x_max":1344,"o":"m 702 1126 q 1152 934 952 1126 q 1274 759 1238 838 q 1344 461 1344 610 l 1344 437 q 1153 -33 1344 178 q 702 -228 954 -228 q 238 -21 440 -228 q 58 451 58 184 q 248 929 58 722 q 702 1126 446 1126 m 684 1095 q 687 1021 687 1042 q 688 1016 688 1017 l 682 1011 l 670 1011 q 663 1089 663 1011 q 661 1094 661 1089 q 639 1092 646 1092 l 634 1092 q 637 1046 636 1082 q 629 1037 635 1046 q 639 1023 639 1032 l 639 1008 q 660 987 639 987 l 663 987 q 713 1001 713 987 q 715 1010 713 1002 q 713 1034 713 1025 q 722 1043 715 1034 q 712 1052 718 1043 l 712 1055 q 711 1095 712 1067 l 684 1095 m 760 1092 q 755 1069 758 1088 q 783 1062 783 1067 q 769 1036 783 1042 q 777 1026 771 1036 q 769 983 770 985 q 795 979 779 983 q 814 1028 800 1028 l 806 1038 q 810 1061 808 1054 q 838 1056 834 1056 l 838 1058 q 841 1079 838 1063 q 760 1092 770 1092 m 516 1052 q 524 1019 516 1042 q 518 1011 522 1019 l 518 1008 q 536 977 530 1008 q 553 966 543 966 q 608 989 608 977 l 608 995 q 603 1019 608 1002 q 576 1011 579 1011 q 579 998 579 1004 q 559 994 572 994 q 555 1015 555 1003 q 559 1023 559 1016 q 545 1047 547 1023 q 563 1053 549 1050 q 567 1041 567 1048 l 594 1048 q 573 1079 589 1079 l 567 1079 q 516 1052 516 1071 m 876 1067 q 869 1047 869 1049 q 895 1036 895 1038 q 875 1011 888 1011 q 880 1000 880 1004 q 866 959 866 965 q 890 950 886 950 q 917 995 903 995 q 912 1007 912 1002 q 922 1026 918 1026 q 945 1017 941 1017 l 954 1038 q 876 1068 885 1067 l 876 1067 m 389 1006 q 410 964 408 972 l 407 953 q 430 929 422 953 q 440 913 431 929 q 500 955 500 940 q 485 987 500 963 q 488 1000 488 993 q 469 1019 474 1000 q 446 1034 461 1034 q 389 1006 440 1034 m 995 1016 q 968 977 972 977 q 959 975 960 975 q 962 965 959 972 q 938 926 938 928 q 1000 887 996 887 q 1010 907 1010 901 q 972 934 976 928 q 983 945 981 945 l 984 945 l 1010 929 q 1023 949 1013 930 q 996 968 996 963 q 1006 981 1002 979 q 1044 956 1008 979 q 1057 975 1047 957 q 995 1016 1054 977 m 443 1006 q 470 959 445 1006 l 470 958 q 452 947 460 947 q 425 998 431 984 q 443 1006 439 1006 m 291 918 q 313 884 291 910 l 311 874 l 322 874 q 353 848 345 848 q 399 886 369 848 l 401 893 q 380 925 401 900 l 380 926 l 382 935 l 372 935 q 337 962 347 962 q 292 925 323 962 l 291 918 m 1095 943 q 1062 910 1095 941 l 1055 911 l 1051 911 l 1051 899 l 1021 868 q 1040 850 1021 866 l 1062 871 l 1063 871 q 1055 833 1055 836 l 1076 814 l 1086 852 q 1098 848 1097 848 l 1101 848 q 1139 884 1114 848 l 1139 889 q 1095 943 1139 903 m 332 932 l 336 932 q 372 892 347 922 l 372 889 q 359 878 372 887 l 357 878 q 321 919 346 887 l 321 922 q 332 932 321 923 m 413 672 l 414 662 l 414 584 q 374 515 374 569 q 394 412 374 458 q 425 354 397 411 q 448 321 448 326 l 448 318 l 446 307 q 452 269 448 290 q 449 245 449 260 q 450 233 450 234 l 449 230 q 461 178 454 178 q 476 144 476 165 q 503 113 481 130 q 528 92 513 92 q 552 55 552 58 q 591 5 572 5 q 603 -23 599 5 q 640 -47 614 -39 q 690 -71 652 -61 q 700 -72 699 -71 q 777 -66 723 -68 q 808 -50 793 -60 q 856 -26 831 -50 q 908 30 902 -26 q 935 106 920 45 q 960 174 960 134 q 969 204 969 188 l 969 215 q 983 264 983 249 q 978 282 981 277 q 979 306 979 297 l 979 312 q 978 319 979 317 q 979 330 979 326 q 962 394 979 357 q 964 410 963 410 l 963 414 l 963 429 q 956 465 963 442 q 968 490 968 474 l 966 500 q 974 541 974 519 l 974 549 q 979 575 979 566 l 966 621 l 968 645 q 944 729 968 664 q 881 817 922 779 q 808 878 850 864 q 648 910 713 910 l 636 910 q 549 892 602 910 q 480 848 519 881 q 424 753 447 806 q 413 672 418 730 m 1098 907 q 1111 890 1111 897 l 1095 876 l 1092 876 q 1080 887 1090 876 l 1080 889 q 1098 907 1080 891 m 621 895 q 795 867 720 895 q 863 819 854 835 q 903 751 881 804 q 944 648 925 727 l 944 647 q 942 618 944 642 q 951 581 948 601 q 956 576 954 581 l 956 574 q 948 562 956 563 l 951 547 q 938 496 951 522 q 944 491 944 495 l 944 487 q 939 482 944 485 l 930 482 q 926 469 930 477 q 941 424 932 469 l 941 418 q 938 385 938 395 q 954 343 947 374 q 956 332 954 342 l 954 321 q 957 303 957 306 q 951 282 957 300 q 959 262 959 269 q 945 219 959 255 q 937 173 945 194 q 922 127 937 149 q 901 71 911 119 q 882 30 901 68 l 882 28 q 884 22 882 27 q 857 -2 876 -2 q 818 -24 844 -2 q 777 -41 798 -24 l 702 -48 l 700 -48 q 655 -31 686 -48 q 629 -17 655 -24 q 623 4 623 -10 q 624 19 623 6 q 585 43 585 28 q 574 65 574 56 q 578 75 574 68 q 543 115 565 75 q 519 130 526 115 q 503 146 519 134 l 491 182 q 475 221 475 189 q 473 233 473 227 l 473 234 q 475 236 473 236 l 473 239 q 475 275 475 272 q 470 312 470 304 l 471 319 l 467 342 q 409 439 452 347 q 398 512 398 482 l 398 518 q 430 564 398 555 l 440 564 l 440 566 q 437 611 440 587 q 439 637 439 625 q 437 672 439 652 q 501 840 437 777 q 579 889 535 875 q 621 895 583 889 m 452 688 q 454 684 452 687 q 450 668 450 676 q 452 635 450 657 q 450 610 450 614 q 454 562 454 572 q 490 532 490 548 l 491 532 q 498 542 491 538 l 501 542 l 511 534 q 537 538 531 538 l 542 532 l 542 529 q 522 409 522 446 q 534 373 530 393 q 552 351 552 364 q 572 327 572 348 l 589 328 l 610 327 q 625 333 621 333 q 630 328 627 333 q 627 315 627 317 q 630 302 630 305 q 629 297 629 298 q 646 275 646 286 l 646 269 q 666 246 660 269 q 661 222 661 228 q 663 210 663 214 l 664 210 q 706 281 678 243 q 736 337 724 309 l 741 337 q 745 332 745 337 q 722 285 743 315 l 724 285 q 760 302 759 293 q 766 303 763 302 q 787 302 779 302 q 805 307 789 302 l 805 309 l 800 309 q 781 306 794 309 q 751 330 751 313 l 751 334 q 755 343 752 343 l 760 343 q 764 327 763 343 q 778 319 772 319 q 802 322 797 322 q 850 306 835 306 q 875 336 875 306 q 857 409 875 378 q 848 475 848 448 l 848 478 q 881 529 848 497 q 926 574 892 529 q 938 579 928 574 q 929 618 935 602 q 930 642 930 633 l 930 645 q 905 726 919 701 l 880 771 q 854 806 869 780 q 778 857 817 844 q 666 882 696 882 l 651 882 l 642 880 q 636 882 640 882 q 537 848 550 869 q 485 795 511 827 q 452 688 452 756 m 208 819 q 237 790 208 812 q 238 780 238 784 l 252 781 q 285 764 270 764 q 322 808 308 779 l 322 814 q 295 842 322 824 l 295 853 l 292 853 l 281 852 q 249 871 260 871 q 208 825 233 871 l 208 819 m 597 854 q 616 837 616 848 l 616 832 q 582 810 614 826 l 576 810 q 561 827 561 816 l 561 829 q 597 854 561 846 m 573 825 l 576 823 l 581 823 l 603 837 q 594 841 602 841 q 573 825 573 836 m 248 841 l 252 841 q 294 806 291 813 q 283 793 288 795 l 280 793 q 237 827 237 823 q 248 841 243 839 m 530 806 l 534 806 q 548 793 548 805 l 548 787 q 528 758 548 781 q 491 702 519 702 q 479 722 479 707 l 479 735 q 521 804 479 772 q 530 806 526 806 m 1095 791 l 1095 790 q 1105 774 1095 781 l 1111 774 q 1120 781 1120 779 l 1120 784 q 1107 801 1116 801 q 1095 791 1095 795 m 491 733 l 491 722 l 492 714 l 495 714 q 518 765 507 714 q 537 789 532 781 l 537 791 q 533 796 537 794 q 497 759 513 788 q 491 733 491 745 m 1180 768 q 1169 769 1175 769 q 1126 739 1169 757 q 1160 672 1154 689 q 1181 684 1177 680 l 1160 726 l 1175 733 q 1190 705 1190 709 q 1211 714 1194 705 q 1198 743 1211 720 l 1198 744 q 1213 751 1198 747 l 1214 751 q 1235 711 1221 733 q 1255 720 1252 720 q 1220 787 1255 727 q 1180 768 1184 768 m 167 768 q 157 744 167 764 q 228 713 222 717 l 228 711 q 218 696 223 696 q 203 711 205 696 q 191 707 195 707 l 149 724 l 140 699 l 140 698 q 184 671 184 684 l 184 669 q 197 673 192 673 q 208 668 208 672 q 201 651 205 651 l 199 651 l 130 678 l 130 677 q 120 652 120 656 q 165 630 165 637 l 165 626 l 167 626 q 178 629 168 626 l 198 621 q 237 662 237 635 q 233 673 237 665 q 253 694 248 680 q 256 703 253 699 q 238 739 248 739 q 222 756 222 744 q 212 751 214 751 l 168 768 l 167 768 m 1240 675 q 1219 659 1240 668 l 1216 648 l 1216 647 q 1223 614 1216 637 q 1210 610 1217 610 q 1202 627 1205 610 q 1213 633 1213 631 q 1205 657 1205 655 q 1177 637 1177 652 l 1177 629 q 1206 579 1184 579 l 1214 581 q 1223 575 1214 578 q 1246 593 1223 583 l 1249 604 l 1249 605 q 1241 637 1249 615 q 1256 644 1250 644 q 1262 626 1262 635 q 1252 621 1261 621 l 1259 595 q 1289 617 1289 600 q 1261 672 1280 672 l 1257 672 q 1252 671 1254 672 q 1240 675 1246 675 m 788 672 q 841 659 801 672 l 844 659 q 873 668 848 659 q 878 663 876 668 l 878 659 q 838 645 878 652 q 800 657 831 645 l 787 659 l 764 654 l 763 654 q 760 657 760 654 l 760 662 q 788 672 760 669 m 660 663 l 664 663 q 712 648 673 663 q 730 642 730 646 l 730 637 q 721 633 728 633 q 670 650 710 633 q 664 651 664 650 q 630 635 650 651 l 625 635 q 621 640 623 635 l 621 644 q 660 663 641 663 m 664 625 l 669 625 q 707 615 707 621 q 702 608 705 608 l 692 608 q 666 612 687 608 q 621 583 642 612 l 619 583 q 614 587 614 585 l 614 589 q 664 625 627 625 m 827 608 l 831 608 q 884 605 836 608 l 884 604 l 899 606 q 905 602 905 604 l 905 597 q 890 590 905 593 q 836 595 848 595 l 835 595 q 812 593 827 595 l 810 596 l 810 600 q 827 608 810 606 m 654 590 l 660 590 q 748 569 686 590 q 784 536 784 547 l 784 530 q 770 522 779 522 l 768 522 q 713 542 760 522 q 684 544 701 542 q 680 539 684 541 l 664 539 q 602 524 654 539 l 599 524 l 594 530 q 630 579 595 541 q 654 590 643 590 m 419 545 l 419 544 q 488 467 469 544 l 490 467 l 490 472 q 488 478 490 475 q 490 509 490 479 q 475 538 482 509 q 440 551 457 551 l 434 551 q 419 545 431 551 m 935 549 q 880 512 930 539 l 872 500 l 873 500 q 895 505 884 505 l 899 505 q 924 498 908 505 q 938 548 938 519 l 935 549 m 412 529 l 412 508 q 443 400 412 446 q 473 355 454 370 q 479 370 479 366 l 479 378 l 471 420 q 480 463 477 455 q 467 496 475 463 q 425 532 444 532 q 412 529 423 532 m 137 530 l 137 502 l 132 496 l 137 490 l 137 463 l 152 463 l 152 491 l 155 491 l 167 465 q 180 490 170 465 l 183 490 l 183 463 l 198 463 l 198 490 l 203 496 l 198 502 l 198 530 l 184 530 q 170 502 182 530 l 165 502 q 153 530 165 505 l 137 530 m 219 530 l 219 503 q 213 496 219 503 q 219 486 219 494 l 219 463 l 233 463 l 233 491 l 234 491 q 248 465 237 491 l 264 491 l 265 491 l 265 463 l 279 463 l 279 490 l 285 497 q 279 502 279 497 l 279 530 l 265 530 q 250 502 262 530 l 249 502 q 234 530 245 502 l 219 530 m 295 530 l 295 529 q 311 497 295 527 q 295 463 295 465 l 311 463 q 319 476 315 463 l 321 476 q 328 463 324 476 l 346 463 l 346 465 q 331 497 331 493 l 346 530 l 328 530 q 321 517 324 517 l 319 517 q 311 530 315 530 l 295 530 m 1000 530 l 1000 503 q 995 496 995 496 q 1000 486 1000 494 l 1000 463 l 1014 463 l 1014 491 l 1015 491 q 1029 465 1019 491 l 1045 491 l 1047 491 l 1047 463 l 1060 463 l 1060 490 l 1066 497 q 1060 502 1060 497 l 1060 530 l 1047 530 q 1032 502 1044 530 l 1030 502 q 1015 530 1027 502 l 1000 530 m 1081 530 l 1081 503 l 1076 496 q 1081 486 1081 494 l 1081 463 l 1095 463 l 1095 491 l 1096 491 q 1109 465 1100 491 l 1126 491 l 1128 491 l 1128 463 l 1141 463 l 1141 490 l 1147 497 q 1141 502 1141 497 l 1141 530 l 1128 530 q 1113 502 1124 530 l 1111 502 q 1096 530 1108 502 l 1081 530 m 1158 530 q 1174 496 1174 498 l 1158 463 l 1174 463 q 1181 476 1177 463 l 1183 476 q 1190 463 1186 476 l 1210 463 q 1194 497 1194 494 l 1210 530 l 1190 530 q 1183 517 1186 517 l 1181 517 q 1174 530 1177 530 l 1158 530 m 1221 530 q 1238 496 1238 498 l 1221 463 l 1238 463 q 1246 476 1242 463 l 1247 476 q 1255 463 1251 476 l 1274 463 q 1257 497 1257 494 l 1274 530 l 1255 530 q 1247 517 1251 517 l 1246 517 q 1238 530 1242 530 l 1221 530 m 692 527 q 737 512 734 522 l 737 508 q 733 503 737 506 q 694 514 709 514 l 692 514 q 652 497 652 507 q 648 493 649 493 l 644 493 q 639 502 639 494 q 692 527 639 517 m 440 511 q 449 503 446 509 l 443 454 q 454 427 446 427 l 460 430 q 465 426 465 428 l 465 421 q 458 414 465 419 l 452 414 q 430 454 435 414 q 434 493 434 481 l 434 498 l 433 507 q 440 511 437 511 m 699 508 q 754 481 730 508 l 754 476 q 697 451 734 451 q 645 482 645 460 l 645 486 q 699 508 667 508 m 763 502 l 768 502 q 784 478 784 489 q 775 463 782 463 q 769 467 769 465 l 769 481 l 758 493 l 758 497 q 763 502 758 499 m 702 494 q 705 486 705 490 l 705 478 q 702 465 705 474 l 703 465 q 736 481 736 468 q 702 494 718 494 m 896 493 q 899 484 899 487 q 893 467 897 475 l 895 467 q 918 487 918 467 q 896 493 907 493 m 660 482 l 660 479 l 661 479 l 661 482 l 660 482 m 861 478 l 861 472 q 865 469 862 469 l 865 471 l 863 478 l 861 478 m 458 472 q 467 469 462 472 q 464 452 464 458 l 465 439 l 460 436 q 449 454 452 436 q 458 472 452 472 m 758 466 l 763 466 q 768 461 765 466 l 768 460 q 741 418 768 448 l 739 418 q 732 426 735 418 l 754 457 q 758 466 755 466 m 880 454 l 869 454 l 861 456 q 886 372 863 426 q 887 340 887 352 l 887 334 q 881 312 887 321 q 909 292 888 312 l 911 292 q 918 343 911 295 l 927 429 q 923 442 926 442 q 897 400 923 418 l 895 400 q 890 405 892 400 l 890 408 q 912 454 912 429 l 912 458 q 880 454 894 454 m 805 437 l 810 437 q 815 426 814 437 l 814 418 l 818 397 l 818 394 q 809 390 817 390 q 800 430 802 390 l 800 433 q 805 437 800 435 m 633 436 l 639 436 q 684 414 659 414 l 691 414 q 724 421 699 414 l 726 418 l 726 412 q 690 400 716 400 q 630 431 630 408 l 630 433 q 633 436 631 436 m 1225 426 q 1223 400 1223 408 q 1242 387 1227 400 q 1220 375 1242 385 l 1217 351 q 1267 373 1263 373 l 1272 373 l 1280 366 q 1286 372 1282 366 l 1297 370 l 1302 370 l 1302 379 l 1304 390 q 1283 399 1289 390 q 1276 393 1276 395 q 1238 416 1265 393 l 1225 426 m 153 415 q 134 403 153 409 l 131 393 q 132 369 132 371 q 123 366 127 366 l 122 366 q 117 380 118 366 q 126 384 121 384 q 123 405 125 405 q 99 390 99 405 q 116 345 99 345 q 127 339 120 345 q 147 349 127 345 l 152 363 q 149 384 152 366 q 161 388 155 388 q 165 373 163 385 q 156 369 156 370 q 157 349 156 368 l 159 349 q 183 364 183 349 q 165 409 183 409 q 155 415 161 409 l 153 415 m 768 403 l 772 403 q 777 399 774 403 q 758 360 766 360 l 755 360 q 751 366 753 360 q 768 403 764 401 m 787 369 q 806 357 806 363 l 806 353 q 803 349 806 349 l 800 349 q 781 360 781 355 l 781 364 q 787 369 781 368 m 1204 288 q 1241 275 1241 280 l 1241 272 l 1249 276 q 1283 272 1273 272 l 1287 290 q 1265 294 1269 294 l 1265 296 q 1292 307 1267 298 l 1297 328 q 1267 321 1272 321 q 1234 342 1267 337 l 1226 342 q 1204 288 1211 342 m 152 326 q 146 330 152 328 q 111 313 146 320 q 110 312 110 313 q 116 294 113 294 q 141 298 134 298 q 156 266 146 266 l 157 266 q 199 285 199 269 l 199 288 l 189 333 q 152 326 159 326 m 1231 319 q 1249 312 1249 319 q 1244 300 1248 300 q 1226 307 1226 302 q 1231 319 1227 319 m 176 307 q 180 292 180 299 q 161 288 175 288 q 156 303 156 297 q 176 307 169 307 m 1181 224 q 1210 203 1181 211 q 1214 194 1213 194 q 1223 199 1221 199 q 1246 191 1229 195 q 1270 233 1261 191 l 1270 236 q 1242 255 1270 247 q 1238 262 1242 262 l 1234 260 l 1231 260 l 1205 267 q 1181 224 1192 267 m 174 254 q 165 256 170 254 q 152 243 165 250 q 131 233 131 239 q 138 216 137 216 q 167 227 162 227 q 174 209 170 227 q 146 199 147 199 l 146 197 q 153 179 150 179 q 186 189 181 189 q 193 188 188 188 q 228 208 193 197 l 228 210 q 207 266 212 250 q 174 254 178 254 m 1208 243 q 1249 230 1215 243 l 1249 229 q 1242 214 1246 214 q 1202 230 1202 228 q 1208 243 1205 243 m 197 239 q 204 221 200 235 q 192 216 195 216 q 184 234 186 224 q 197 239 193 239 m 805 215 l 802 216 q 773 210 793 212 q 753 201 767 201 q 743 204 750 201 q 732 200 735 200 q 734 197 732 197 l 760 197 q 854 222 854 207 q 831 224 839 224 l 830 224 q 805 215 810 215 m 1173 206 l 1144 149 q 1160 143 1154 143 q 1168 159 1168 157 l 1169 159 q 1187 143 1187 157 q 1196 146 1192 146 q 1226 131 1200 146 l 1227 131 q 1235 151 1235 148 q 1204 174 1204 163 q 1195 172 1198 172 q 1180 180 1180 178 q 1187 200 1187 193 q 1173 206 1177 206 m 204 176 q 195 179 201 176 q 163 153 195 167 q 174 136 170 140 q 210 153 205 153 q 188 113 203 138 q 197 94 188 109 l 227 111 q 235 109 228 109 q 262 130 235 119 q 267 136 267 133 q 259 151 259 149 l 223 134 l 223 136 l 244 173 q 234 193 244 180 l 204 176 m 836 178 q 842 153 838 153 l 845 153 q 850 163 850 155 l 850 168 q 844 179 850 176 l 839 179 l 836 178 m 812 172 q 808 155 809 168 q 815 144 810 144 q 820 146 818 146 l 820 164 q 821 165 820 165 q 812 172 820 172 m 779 164 l 781 149 l 781 140 q 785 136 781 138 l 788 136 q 791 138 791 136 l 791 158 l 790 165 l 783 165 l 779 164 m 1138 140 l 1103 91 q 1132 68 1103 90 l 1132 61 l 1141 62 q 1169 43 1151 56 l 1171 43 q 1181 60 1171 45 l 1156 79 q 1168 94 1164 94 q 1192 77 1175 90 l 1195 77 q 1205 94 1195 79 q 1177 115 1177 112 l 1177 122 l 1175 122 l 1165 121 q 1138 140 1162 125 m 833 106 q 836 103 833 103 l 844 103 q 846 127 846 119 q 845 131 845 130 l 839 131 q 833 106 833 131 m 250 98 l 241 100 q 223 80 241 87 q 213 71 223 79 q 225 55 223 55 l 253 75 l 262 73 l 262 80 l 291 103 q 280 119 280 117 q 250 98 279 119 m 794 106 l 794 92 q 798 90 795 90 l 802 90 q 806 109 806 90 l 806 118 l 799 118 q 794 106 794 117 m 1141 112 l 1143 112 q 1152 104 1152 106 q 1139 90 1143 91 q 1131 97 1131 95 l 1131 98 q 1141 112 1139 111 m 289 75 l 283 75 l 280 76 q 273 56 280 64 l 273 50 q 289 25 273 43 l 289 24 q 281 16 289 22 l 280 16 q 271 26 277 16 l 271 28 l 276 34 q 262 49 263 49 q 249 35 250 40 l 249 30 q 279 -6 249 17 l 288 -6 q 298 -2 293 -2 l 300 -2 l 302 -3 q 311 16 302 6 l 311 22 q 295 47 311 29 l 295 49 q 302 56 295 51 l 304 56 q 313 43 313 51 q 309 39 311 43 q 322 24 309 38 q 336 41 336 33 l 336 43 q 306 79 336 56 l 300 79 q 289 75 294 79 m 817 76 l 817 64 l 818 56 l 823 56 q 829 67 829 59 l 829 70 q 824 79 829 77 l 820 79 q 817 76 817 79 m 1056 37 l 1056 34 q 1081 12 1059 34 l 1081 4 l 1088 4 q 1114 -18 1090 4 l 1117 -18 q 1129 -3 1117 -16 q 1111 12 1114 12 l 1111 14 l 1141 9 l 1156 25 q 1126 34 1133 31 q 1129 45 1129 40 q 1098 73 1109 73 l 1095 73 q 1056 37 1086 73 m 787 25 l 790 24 l 794 24 q 803 46 798 26 q 802 50 802 49 l 794 50 q 787 25 790 50 m 1095 50 q 1107 40 1101 48 l 1107 35 q 1098 26 1107 33 q 1083 40 1083 38 q 1095 50 1090 50 m 814 20 l 814 14 q 818 10 814 12 l 821 10 q 827 30 825 10 l 823 33 l 820 33 q 814 20 816 33 m 322 3 l 323 -1 l 323 -8 l 302 -33 q 319 -47 315 -46 q 340 -23 333 -28 q 353 -35 353 -33 l 353 -36 q 334 -60 341 -50 l 334 -62 q 351 -74 336 -62 q 373 -47 351 -71 l 380 -47 l 380 -38 q 401 -9 401 -12 l 387 3 l 385 3 q 366 -21 385 -1 q 352 -9 352 -11 l 352 -8 q 370 14 352 -7 l 370 16 q 357 28 370 17 l 355 28 q 328 3 334 3 l 322 3 m 1004 -14 l 1004 -17 q 1019 -41 1004 -22 l 1019 -47 l 1017 -50 q 1035 -58 1029 -50 q 1045 -69 1035 -63 l 1051 -69 q 1087 -41 1064 -69 q 1088 -36 1088 -38 q 1074 -12 1088 -30 l 1074 -6 l 1076 -3 q 1053 13 1062 -3 q 1040 19 1046 19 q 1004 -14 1004 -1 m 1040 -3 q 1065 -39 1065 -34 q 1056 -47 1057 -47 l 1053 -47 q 1026 -16 1051 -46 l 1026 -12 q 1040 -3 1034 -3 m 939 -48 l 939 -51 l 956 -78 l 954 -89 q 977 -114 966 -89 q 979 -119 979 -114 q 1026 -84 1026 -98 l 1026 -81 q 1008 -51 1026 -74 q 985 -24 998 -24 q 939 -48 979 -24 m 981 -47 q 985 -56 985 -48 q 972 -64 979 -64 l 966 -54 q 981 -47 976 -47 m 464 -51 q 440 -84 452 -84 q 443 -93 443 -89 q 430 -124 443 -96 l 431 -124 q 449 -132 445 -132 l 461 -105 l 463 -105 q 486 -115 467 -105 q 494 -99 486 -113 q 470 -87 484 -96 q 477 -75 475 -75 q 511 -90 506 -90 l 512 -90 q 518 -75 512 -85 q 464 -50 465 -50 l 464 -51 m 866 -83 q 880 -115 880 -111 q 876 -123 880 -118 q 897 -157 887 -123 q 917 -149 917 -152 q 906 -119 906 -125 q 923 -113 922 -113 q 938 -141 936 -141 l 956 -134 l 942 -104 l 945 -93 q 924 -58 935 -93 q 866 -83 921 -58 m 995 -74 l 998 -74 q 1004 -81 1000 -74 l 1004 -83 q 990 -93 1002 -87 l 984 -84 l 984 -81 q 995 -74 984 -79 m 507 -117 q 511 -126 511 -122 q 506 -145 506 -142 l 506 -149 q 545 -170 506 -163 l 551 -170 q 568 -142 563 -170 q 576 -138 576 -139 q 573 -129 573 -133 q 579 -105 579 -107 q 533 -83 579 -90 q 515 -113 523 -83 q 507 -117 507 -115 m 911 -84 l 912 -84 q 916 -96 916 -94 l 899 -104 q 893 -92 895 -99 q 911 -84 905 -84 m 805 -100 l 812 -134 l 808 -141 l 808 -142 q 824 -178 819 -142 l 825 -178 l 878 -165 q 873 -149 873 -151 l 841 -156 q 836 -138 836 -145 q 841 -132 838 -138 q 825 -99 830 -132 q 824 -94 824 -99 q 805 -100 805 -98 m 597 -100 q 585 -139 593 -139 q 583 -141 583 -139 q 589 -149 587 -142 l 585 -181 l 587 -181 q 606 -182 587 -181 l 606 -181 l 610 -144 l 612 -144 q 633 -187 614 -147 q 652 -190 648 -190 q 664 -153 652 -157 q 659 -145 661 -146 l 664 -109 l 644 -106 q 636 -145 640 -145 q 614 -102 618 -102 q 597 -100 603 -100 m 542 -104 q 557 -109 557 -105 q 541 -150 546 -150 q 528 -144 528 -147 q 542 -104 538 -104 m 670 -109 l 670 -127 l 691 -127 q 694 -130 694 -128 l 694 -139 q 687 -151 694 -146 l 687 -153 q 694 -159 691 -153 l 694 -192 l 715 -192 l 715 -157 l 721 -151 l 713 -142 l 713 -129 q 717 -126 714 -126 l 736 -126 l 736 -109 l 670 -109 z "},",":{"ha":262,"x_min":61,"x_max":187,"o":"m 68 123 l 106 119 l 138 119 l 158 123 q 187 103 175 118 l 184 81 l 184 -89 q 155 -102 180 -102 l 81 0 q 61 9 64 0 l 61 113 l 68 123 z "},"-":{"ha":454,"x_min":0,"x_max":0,"o":""},".":{"ha":241,"x_min":61,"x_max":187,"o":"m 68 123 l 106 119 l 138 119 l 158 123 q 187 103 175 118 l 184 81 l 184 13 q 155 0 180 0 l 81 0 q 61 9 64 0 l 61 113 l 68 123 z "},"/":{"ha":386,"x_min":0,"x_max":0,"o":""},":":{"ha":378,"x_min":0,"x_max":0,"o":""},";":{"ha":378,"x_min":0,"x_max":0,"o":""},"<":{"ha":688,"x_min":0,"x_max":0,"o":""},"=":{"ha":688,"x_min":0,"x_max":0,"o":""},">":{"ha":688,"x_min":0,"x_max":0,"o":""},"?":{"ha":287,"x_min":14,"x_max":269,"o":"m 168 1141 q 236 1097 200 1135 q 260 1048 236 1093 l 260 1019 q 269 978 269 993 l 269 902 q 260 842 269 893 l 260 791 q 244 758 260 785 l 244 731 q 236 723 244 727 q 225 755 229 723 q 220 761 220 755 l 220 788 q 225 793 220 793 l 228 793 l 239 783 l 241 783 l 244 802 l 244 807 q 231 872 244 823 q 228 888 231 884 l 231 902 q 228 991 228 976 q 231 1002 231 1001 q 228 1016 228 1007 l 228 1029 l 222 1029 l 222 1027 q 220 997 222 1012 q 222 956 222 981 q 209 937 222 954 l 209 921 q 220 888 220 891 q 214 864 214 871 l 214 856 q 217 815 214 842 l 212 812 l 206 821 l 206 826 q 209 837 206 832 l 198 856 l 198 867 l 203 875 l 203 897 q 190 910 203 900 l 193 929 l 193 932 l 190 945 q 184 940 184 945 l 184 840 q 209 777 194 777 q 233 696 209 750 l 233 682 q 228 677 233 677 l 225 677 q 217 704 220 677 q 201 747 203 704 q 187 783 191 747 q 174 823 181 783 q 168 837 169 823 l 168 1016 q 136 1076 161 1074 l 130 1076 q 90 1043 119 1076 q 92 989 92 1006 l 92 758 q 76 750 90 750 l 24 750 q 16 758 20 750 l 16 804 q 14 869 16 836 q 16 886 16 884 q 14 935 14 918 q 24 1038 14 974 q 49 1092 24 1055 q 122 1141 60 1118 l 168 1141 m 33 962 q 46 897 33 939 l 49 897 q 54 978 52 964 q 49 997 49 991 l 43 997 q 33 962 39 997 m 68 983 q 62 975 68 982 l 62 945 q 73 926 62 931 l 73 978 q 68 983 73 983 m 43 878 q 38 867 43 873 l 38 864 l 43 845 l 49 845 l 49 872 q 43 878 49 878 m 160 812 l 165 812 q 182 747 165 770 q 195 715 182 732 q 212 669 211 696 q 217 655 217 669 l 217 652 q 201 606 208 618 l 201 604 q 206 595 201 602 q 190 571 206 583 q 193 555 190 569 q 179 509 185 541 q 155 441 168 509 q 127 357 135 406 q 106 270 117 357 l 106 161 q 98 153 106 157 q 76 156 96 153 q 60 153 62 153 q 41 178 43 153 q 49 300 41 232 l 49 349 q 65 392 49 358 q 76 460 76 458 q 106 541 97 530 q 100 568 102 545 l 109 574 l 122 574 q 117 604 117 600 q 125 614 121 614 q 136 587 131 614 q 149 576 148 576 q 155 582 155 576 q 127 625 155 585 q 125 636 127 631 q 141 663 125 642 q 155 734 141 713 q 152 777 152 762 l 152 783 q 160 812 152 812 m 168 718 l 168 712 q 190 666 168 698 l 193 666 l 193 669 q 179 709 193 679 l 179 723 l 174 723 q 168 718 168 722 m 160 682 q 155 661 155 669 q 187 617 186 617 l 193 617 l 193 633 q 176 661 178 644 q 160 682 172 661 m 198 658 l 195 652 l 195 647 q 201 642 196 642 l 203 647 l 203 652 q 198 658 203 658 m 146 639 l 146 633 q 152 628 147 628 l 152 639 l 146 639 m 157 620 l 157 617 l 160 604 l 165 604 l 165 606 l 163 620 l 157 620 m 171 598 l 171 595 q 176 590 172 590 l 179 595 l 174 598 l 171 598 m 133 557 l 130 552 q 138 547 132 552 l 138 552 q 133 557 138 557 m 144 544 q 149 538 144 538 l 149 544 l 144 544 m 119 533 l 119 519 l 127 519 l 125 533 l 119 533 m 30 83 l 62 80 l 90 80 l 106 83 q 127 69 127 73 l 127 -9 q 103 -20 124 -20 l 41 -20 q 24 -12 26 -20 l 24 75 l 30 83 z "}}}
